SplineFontDB: 3.2
FontName: B612Mono-Bold
FullName: B612 Mono Bold
FamilyName: B612 Mono
Weight: Bold
Copyright: Copyright 2012 The B612 Project Authors (https://github.com/polarsys/b612)
Version: 1.008
ItalicAngle: 0
UnderlinePosition: -300
UnderlineWidth: 100
Ascent: 1600
Descent: 400
InvalidEm: 0
sfntRevision: 0x0001020c
LayerCount: 2
Layer: 0 1 "Back" 1
Layer: 1 1 "Fore" 0
XUID: [1021 203 -901246744 14451300]
StyleMap: 0x0020
FSType: 0
OS2Version: 3
OS2_WeightWidthSlopeOnly: 0
OS2_UseTypoMetrics: 0
CreationTime: 1511795400
ModificationTime: 1695107205
PfmFamily: 17
TTFWeight: 700
TTFWidth: 5
LineGap: 0
VLineGap: 0
Panose: 2 11 6 9 5 0 0 2 0 4
OS2TypoAscent: 1930
OS2TypoAOffset: 0
OS2TypoDescent: -500
OS2TypoDOffset: 0
OS2TypoLinegap: 0
OS2WinAscent: 1966
OS2WinAOffset: 0
OS2WinDescent: 712
OS2WinDOffset: 0
HheadAscent: 1930
HheadAOffset: 0
HheadDescent: -500
HheadDOffset: 0
OS2SubXSize: 1300
OS2SubYSize: 1399
OS2SubXOff: 0
OS2SubYOff: 279
OS2SupXSize: 1300
OS2SupYSize: 1399
OS2SupXOff: 0
OS2SupYOff: 960
OS2StrikeYSize: 100
OS2StrikeYPos: 500
OS2CapHeight: 1500
OS2XHeight: 1100
OS2FamilyClass: 2053
OS2Vendor: '    '
OS2CodePages: 20000011.81d40000
OS2UnicodeRanges: 800000af.5000e0fb.00000000.00000000
DEI: 91125
TtTable: prep
PUSHW_1
 511
SCANCTRL
PUSHB_1
 4
SCANTYPE
EndTTInstrs
TtTable: fpgm
PUSHW_1
 0
FDEF
MPPEM
PUSHW_1
 9
LT
IF
PUSHB_2
 1
 1
INSTCTRL
EIF
PUSHW_1
 511
SCANCTRL
PUSHW_1
 68
SCVTCI
PUSHW_2
 9
 3
SDS
SDB
ENDF
PUSHW_1
 1
FDEF
DUP
DUP
RCVT
ROUND[Black]
WCVTP
PUSHB_1
 1
ADD
ENDF
PUSHW_1
 2
FDEF
PUSHW_1
 1
LOOPCALL
POP
ENDF
PUSHW_1
 3
FDEF
DUP
GC[cur]
PUSHB_1
 3
CINDEX
GC[cur]
GT
IF
SWAP
EIF
DUP
ROLL
DUP
ROLL
MD[grid]
ABS
ROLL
DUP
GC[cur]
DUP
ROUND[Grey]
SUB
ABS
PUSHB_1
 4
CINDEX
GC[cur]
DUP
ROUND[Grey]
SUB
ABS
GT
IF
SWAP
NEG
ROLL
EIF
MDAP[rnd]
DUP
PUSHB_1
 0
GTEQ
IF
ROUND[Black]
DUP
PUSHB_1
 0
EQ
IF
POP
PUSHB_1
 64
EIF
ELSE
ROUND[Black]
DUP
PUSHB_1
 0
EQ
IF
POP
PUSHB_1
 64
NEG
EIF
EIF
MSIRP[no-rp0]
ENDF
PUSHW_1
 4
FDEF
DUP
GC[cur]
PUSHB_1
 4
CINDEX

StartChar: .notdef
Encoding: 65536 -1 0
Width: 1300
GlyphClass: 1
Flags: W
LayerCount: 2
Fore
SplineSet
100 1500 m 1,0,-1
 1200 1500 l 1,1,-1
 1200 0 l 1,2,-1
 100 0 l 1,3,-1
 100 1500 l 1,0,-1
300 200 m 1,4,-1
 1000 200 l 1,5,-1
 1000 1300 l 1,6,-1
 300 1300 l 1,7,-1
 300 200 l 1,4,-1
EndSplineSet
Validated: 1
EndChar

StartChar: exclam
Encoding: 33 33 2
Width: 1300
GlyphClass: 1
Flags: W
LayerCount: 2
Fore
SplineSet
652 1500 m 1,0,-1
 652 444 l 1,1,-1
 352 409 l 1,2,-1
 352 1500 l 1,3,-1
 652 1500 l 1,0,-1
338 149 m 0,4,5
 338 183 338 183 351 212.5 c 128,-1,6
 364 242 364 242 386 264.5 c 128,-1,7
 408 287 408 287 437.5 300 c 128,-1,8
 467 313 467 313 501 313 c 256,9,10
 535 313 535 313 564.5 300 c 128,-1,11
 594 287 594 287 616 264.5 c 128,-1,12
 638 242 638 242 651 212.5 c 128,-1,13
 664 183 664 183 664 149 c 0,14,15
 664 116 664 116 651.5 85.5 c 128,-1,16
 639 55 639 55 617 32.5 c 128,-1,17
 595 10 595 10 565.5 -3.5 c 128,-1,18
 536 -17 536 -17 502 -17 c 256,19,20
 468 -17 468 -17 438 -3.5 c 128,-1,21
 408 10 408 10 386 32.5 c 128,-1,22
 364 55 364 55 351 85.5 c 128,-1,23
 338 116 338 116 338 149 c 0,4,5
EndSplineSet
Validated: 1
EndChar

StartChar: quotedbl
Encoding: 34 34 3
Width: 1300
GlyphClass: 1
Flags: W
LayerCount: 2
Fore
SplineSet
861 1500 m 1,0,-1
 861 1367 l 2,1,2
 861 1349 861 1349 860.5 1324.5 c 128,-1,3
 860 1300 860 1300 859 1273 c 128,-1,4
 858 1246 858 1246 856 1218.5 c 128,-1,5
 854 1191 854 1191 851 1168 c 2,6,-1
 828 1013 l 1,7,-1
 648 1013 l 1,8,-1
 625 1168 l 2,9,10
 622 1191 622 1191 620 1218.5 c 128,-1,11
 618 1246 618 1246 617 1273 c 128,-1,12
 616 1300 616 1300 615.5 1324.5 c 128,-1,13
 615 1349 615 1349 615 1367 c 2,14,-1
 615 1500 l 1,15,-1
 861 1500 l 1,0,-1
561 1500 m 1,16,-1
 561 1367 l 2,17,18
 561 1349 561 1349 560.5 1324.5 c 128,-1,19
 560 1300 560 1300 559 1273 c 128,-1,20
 558 1246 558 1246 556 1218.5 c 128,-1,21
 554 1191 554 1191 551 1168 c 2,22,-1
 528 1013 l 1,23,-1
 348 1013 l 1,24,-1
 325 1168 l 2,25,26
 322 1191 322 1191 320 1218.5 c 128,-1,27
 318 1246 318 1246 317 1273 c 128,-1,28
 316 1300 316 1300 315.5 1324.5 c 128,-1,29
 315 1349 315 1349 315 1367 c 2,30,-1
 315 1500 l 1,31,-1
 561 1500 l 1,16,-1
EndSplineSet
Validated: 1
EndChar

StartChar: numbersign
Encoding: 35 35 4
Width: 1300
GlyphClass: 1
Flags: W
LayerCount: 2
Fore
SplineSet
1051 885 m 1,0,-1
 1041 809 l 2,1,2
 1037 773 1037 773 1032 738 c 128,-1,3
 1027 703 1027 703 1022.5 666 c 128,-1,4
 1018 629 1018 629 1013 587 c 1,5,-1
 1266 587 l 1,6,-1
 1239 373 l 1,7,-1
 989 373 l 1,8,9
 984 329 984 329 978 281 c 128,-1,10
 972 233 972 233 965.5 184.5 c 128,-1,11
 959 136 959 136 953 89 c 128,-1,12
 947 42 947 42 942 0 c 1,13,-1
 636 -17 l 1,14,-1
 686 373 l 1,15,-1
 520 373 l 1,16,17
 515 329 515 329 508.5 281 c 128,-1,18
 502 233 502 233 495.5 184.5 c 128,-1,19
 489 136 489 136 482.5 89 c 128,-1,20
 476 42 476 42 471 0 c 1,21,-1
 166 -17 l 1,22,-1
 219 373 l 1,23,-1
 42 373 l 1,24,-1
 42 587 l 1,25,-1
 244 587 l 1,26,-1
 281 885 l 1,27,-1
 38 885 l 1,28,-1
 65 1100 l 1,29,-1
 307 1100 l 1,30,31
 312 1135 312 1135 315.5 1167.5 c 128,-1,32
 319 1200 319 1200 324 1235 c 1,33,-1
 324 1500 l 1,34,-1
 661 1520 l 1,35,-1
 608 1100 l 1,36,-1
 775 1100 l 1,37,38
 780 1144 780 1144 786.5 1196 c 128,-1,39
 793 1248 793 1248 800.5 1301.5 c 128,-1,40
 808 1355 808 1355 814.5 1406.5 c 128,-1,41
 821 1458 821 1458 826 1500 c 1,42,-1
 1134 1520 l 1,43,-1
 1077 1100 l 1,44,-1
 1263 1100 l 1,45,-1
 1263 885 l 1,46,-1
 1051 885 l 1,0,-1
748 885 m 1,47,-1
 584 885 l 1,48,-1
 574 809 l 2,49,50
 570 773 570 773 565.5 738 c 128,-1,51
 561 703 561 703 556.5 666 c 128,-1,52
 552 629 552 629 547 587 c 1,53,-1
 711 587 l 1,54,-1
 748 885 l 1,47,-1
EndSplineSet
Validated: 1
EndChar

StartChar: dollar
Encoding: 36 36 5
Width: 1300
GlyphClass: 1
Flags: W
LayerCount: 2
Fore
SplineSet
500 -14 m 1,0,1
 394 -6 394 -6 302.5 27.5 c 128,-1,2
 211 61 211 61 117 121 c 1,3,-1
 255 348 l 1,4,5
 277 333 277 333 305.5 316 c 128,-1,6
 334 299 334 299 366 283 c 128,-1,7
 398 267 398 267 432.5 253.5 c 128,-1,8
 467 240 467 240 500 233 c 1,9,-1
 500 712 l 1,10,11
 431 745 431 745 364.5 781 c 128,-1,12
 298 817 298 817 246 862 c 128,-1,13
 194 907 194 907 162 964.5 c 128,-1,14
 130 1022 130 1022 130 1097 c 0,15,16
 130 1179 130 1179 159.5 1245.5 c 128,-1,17
 189 1312 189 1312 239.5 1363 c 128,-1,18
 290 1414 290 1414 357.5 1448.5 c 128,-1,19
 425 1483 425 1483 500 1500 c 1,20,-1
 500 1681 l 1,21,-1
 800 1719 l 1,22,-1
 800 1499 l 1,23,24
 875 1482 875 1482 946 1450 c 128,-1,25
 1017 1418 1017 1418 1090 1369 c 1,26,-1
 940 1178 l 1,27,28
 898 1202 898 1202 863.5 1220 c 128,-1,29
 829 1238 829 1238 800 1252 c 1,30,-1
 800 866 l 1,31,32
 865 835 865 835 927 797 c 128,-1,33
 989 759 989 759 1037.5 709.5 c 128,-1,34
 1086 660 1086 660 1115.5 596 c 128,-1,35
 1145 532 1145 532 1145 448 c 0,36,37
 1145 363 1145 363 1117.5 293.5 c 128,-1,38
 1090 224 1090 224 1042 170 c 128,-1,39
 994 116 994 116 929.5 77.5 c 128,-1,40
 865 39 865 39 790 16 c 1,41,-1
 790 -190 l 1,42,-1
 500 -190 l 1,43,-1
 500 -14 l 1,0,1
859 430 m 0,44,45
 859 484 859 484 826 524 c 128,-1,46
 793 564 793 564 742 596 c 1,47,-1
 742 249 l 1,48,49
 766 258 766 258 787.5 272.5 c 128,-1,50
 809 287 809 287 825 308.5 c 128,-1,51
 841 330 841 330 850 360 c 128,-1,52
 859 390 859 390 859 430 c 0,44,45
436 1125 m 0,53,54
 436 1096 436 1096 445.5 1073 c 128,-1,55
 455 1050 455 1050 471.5 1031.5 c 128,-1,56
 488 1013 488 1013 510 998.5 c 128,-1,57
 532 984 532 984 558 972 c 1,58,-1
 558 1268 l 1,59,60
 533 1260 533 1260 511 1248.5 c 128,-1,61
 489 1237 489 1237 472.5 1219.5 c 128,-1,62
 456 1202 456 1202 446 1179 c 128,-1,63
 436 1156 436 1156 436 1125 c 0,53,54
EndSplineSet
Validated: 1
EndChar

StartChar: percent
Encoding: 37 37 6
Width: 1300
GlyphClass: 1
Flags: W
LayerCount: 2
Fore
SplineSet
370 746 m 0,0,1
 284 746 284 746 224 774.5 c 128,-1,2
 164 803 164 803 126 853 c 128,-1,3
 88 903 88 903 71 972 c 128,-1,4
 54 1041 54 1041 54 1121 c 0,5,6
 54 1200 54 1200 70 1267.5 c 128,-1,7
 86 1335 86 1335 123 1384 c 128,-1,8
 160 1433 160 1433 220.5 1461 c 128,-1,9
 281 1489 281 1489 370 1489 c 0,10,11
 455 1489 455 1489 515 1461 c 128,-1,12
 575 1433 575 1433 612.5 1384 c 128,-1,13
 650 1335 650 1335 667 1267 c 0,14,15
 679 1220 679 1220 683 1168 c 1,16,-1
 821 1473 l 1,17,-1
 1125 1473 l 1,18,-1
 779 706 l 1,19,20
 835 727 835 727 913 727 c 0,21,22
 998 727 998 727 1058 699.5 c 128,-1,23
 1118 672 1118 672 1156 622.5 c 128,-1,24
 1194 573 1194 573 1211 505.5 c 128,-1,25
 1228 438 1228 438 1228 359 c 0,26,27
 1228 279 1228 279 1212 210 c 128,-1,28
 1196 141 1196 141 1159 91 c 128,-1,29
 1122 41 1122 41 1061.5 12.5 c 128,-1,30
 1001 -16 1001 -16 913 -16 c 0,31,32
 827 -16 827 -16 767 12.5 c 128,-1,33
 707 41 707 41 669.5 91 c 128,-1,34
 632 141 632 141 614 210 c 0,35,36
 603 255 603 255 599 306 c 1,37,-1
 461 0 l 1,38,-1
 157 0 l 1,39,-1
 503 768 l 1,40,41
 447 746 447 746 370 746 c 0,0,1
423 1165 m 2,42,43
 423 1190 423 1190 421.5 1213 c 128,-1,44
 420 1236 420 1236 414.5 1253 c 128,-1,45
 409 1270 409 1270 397.5 1280.5 c 128,-1,46
 386 1291 386 1291 367 1291 c 0,47,48
 350 1291 350 1291 340 1282 c 128,-1,49
 330 1273 330 1273 325.5 1257.5 c 128,-1,50
 321 1242 321 1242 320 1221.5 c 128,-1,51
 319 1201 319 1201 319 1178 c 2,52,-1
 319 1084 l 2,53,54
 319 1058 319 1058 320.5 1035 c 128,-1,55
 322 1012 322 1012 327.5 994.5 c 128,-1,56
 333 977 333 977 344 966.5 c 128,-1,57
 355 956 355 956 375 956 c 0,58,59
 391 956 391 956 401 965 c 128,-1,60
 411 974 411 974 415.5 989.5 c 128,-1,61
 420 1005 420 1005 421.5 1025 c 128,-1,62
 423 1045 423 1045 423 1068 c 2,63,-1
 423 1165 l 2,42,43
966 404 m 2,64,65
 966 429 966 429 964.5 451.5 c 128,-1,66
 963 474 963 474 957.5 491.5 c 128,-1,67
 952 509 952 509 940.5 519 c 128,-1,68
 929 529 929 529 910 529 c 0,69,70
 893 529 893 529 883.5 520 c 128,-1,71
 874 511 874 511 869.5 495.5 c 128,-1,72
 865 480 865 480 863.5 459.5 c 128,-1,73
 862 439 862 439 862 417 c 2,74,-1
 862 323 l 2,75,76
 862 297 862 297 863.5 273.5 c 128,-1,77
 865 250 865 250 871 232.5 c 128,-1,78
 877 215 877 215 888.5 204.5 c 128,-1,79
 900 194 900 194 920 194 c 0,80,81
 936 194 936 194 945 203 c 128,-1,82
 954 212 954 212 958.5 227.5 c 128,-1,83
 963 243 963 243 964.5 263 c 128,-1,84
 966 283 966 283 966 306 c 2,85,-1
 966 404 l 2,64,65
EndSplineSet
Validated: 1
EndChar

StartChar: ampersand
Encoding: 38 38 7
Width: 1300
GlyphClass: 1
Flags: W
LayerCount: 2
Fore
SplineSet
1200 740 m 1,0,1
 1200 642 1200 642 1184 559.5 c 128,-1,2
 1168 477 1168 477 1141 409.5 c 128,-1,3
 1114 342 1114 342 1077.5 289.5 c 128,-1,4
 1041 237 1041 237 1000 200 c 1,5,-1
 1077 200 l 1,6,-1
 1241 -17 l 1,7,-1
 862 -17 l 1,8,-1
 786 100 l 1,9,-1
 750 11 l 1,10,11
 727 5 727 5 703.5 0 c 128,-1,12
 680 -5 680 -5 654.5 -9 c 128,-1,13
 629 -13 629 -13 599.5 -15 c 128,-1,14
 570 -17 570 -17 534 -17 c 0,15,16
 421 -17 421 -17 330 21.5 c 128,-1,17
 239 60 239 60 174.5 124.5 c 128,-1,18
 110 189 110 189 75.5 274.5 c 128,-1,19
 41 360 41 360 41 454 c 0,20,21
 41 532 41 532 63 597 c 128,-1,22
 85 662 85 662 120 713.5 c 128,-1,23
 155 765 155 765 198.5 803.5 c 128,-1,24
 242 842 242 842 285 867 c 1,25,26
 268 896 268 896 251 930 c 128,-1,27
 234 964 234 964 220.5 999.5 c 128,-1,28
 207 1035 207 1035 198.5 1069.5 c 128,-1,29
 190 1104 190 1104 190 1134 c 0,30,31
 190 1208 190 1208 212.5 1274.5 c 128,-1,32
 235 1341 235 1341 284 1391 c 128,-1,33
 333 1441 333 1441 410.5 1470.5 c 128,-1,34
 488 1500 488 1500 598 1500 c 0,35,36
 675 1500 675 1500 733.5 1482.5 c 128,-1,37
 792 1465 792 1465 838 1435.5 c 128,-1,38
 884 1406 884 1406 920.5 1367.5 c 128,-1,39
 957 1329 957 1329 991 1286 c 1,40,-1
 850 1100 l 1,41,42
 822 1137 822 1137 797 1165 c 128,-1,43
 772 1193 772 1193 745.5 1212 c 128,-1,44
 719 1231 719 1231 688.5 1240.5 c 128,-1,45
 658 1250 658 1250 620 1250 c 0,46,47
 584 1250 584 1250 562 1238.5 c 128,-1,48
 540 1227 540 1227 527.5 1210 c 128,-1,49
 515 1193 515 1193 510.5 1172.5 c 128,-1,50
 506 1152 506 1152 506 1133 c 0,51,52
 506 1121 506 1121 507.5 1108.5 c 128,-1,53
 509 1096 509 1096 513 1084 c 0,54,55
 518 1064 518 1064 531.5 1037 c 128,-1,56
 545 1010 545 1010 571.5 965.5 c 128,-1,57
 598 921 598 921 639.5 854 c 128,-1,58
 681 787 681 787 742 688 c 0,59,60
 761 657 761 657 773 637.5 c 128,-1,61
 785 618 785 618 798 598 c 128,-1,62
 811 578 811 578 827.5 551.5 c 128,-1,63
 844 525 844 525 872 480 c 1,64,65
 886 498 886 498 894 527 c 0,66,67
 901 554 901 554 900 621 c 2,68,-1
 900 720 l 1,69,-1
 1200 740 l 1,0,1
400 694 m 1,70,-1
 400 596 l 1,71,72
 366 543 366 543 366 463 c 0,73,74
 366 405 366 405 383.5 362 c 128,-1,75
 401 319 401 319 428.5 290.5 c 128,-1,76
 456 262 456 262 490 247.5 c 128,-1,77
 524 233 524 233 557 233 c 0,78,79
 599 233 599 233 625.5 243.5 c 128,-1,80
 652 254 652 254 672 269 c 1,81,-1
 400 694 l 1,70,-1
EndSplineSet
Validated: 33
EndChar

StartChar: quotesingle
Encoding: 39 39 8
Width: 1300
GlyphClass: 1
Flags: W
LayerCount: 2
Fore
SplineSet
230 1500 m 1,0,-1
 500 1500 l 1,1,-1
 500 1367 l 2,2,3
 500 1331 500 1331 493 1298.5 c 128,-1,4
 486 1266 486 1266 469.5 1231.5 c 128,-1,5
 453 1197 453 1197 426 1157.5 c 128,-1,6
 399 1118 399 1118 359 1068 c 1,7,-1
 220 1068 l 1,8,9
 222 1149 222 1149 226 1225 c 128,-1,10
 230 1301 230 1301 230 1367 c 2,11,-1
 230 1500 l 1,0,-1
EndSplineSet
Validated: 1
EndChar

StartChar: parenleft
Encoding: 40 40 9
Width: 1300
GlyphClass: 1
Flags: W
LayerCount: 2
Fore
SplineSet
379 1158 m 2,0,1
 379 1251 379 1251 389 1331.5 c 128,-1,2
 399 1412 399 1412 434.5 1472 c 128,-1,3
 470 1532 470 1532 537.5 1566 c 128,-1,4
 605 1600 605 1600 719 1600 c 0,5,6
 744 1600 744 1600 772.5 1596.5 c 128,-1,7
 801 1593 801 1593 829.5 1586 c 128,-1,8
 858 1579 858 1579 884 1568.5 c 128,-1,9
 910 1558 910 1558 931 1545 c 1,10,-1
 841 1431 l 1,11,12
 823 1431 823 1431 798.5 1426 c 128,-1,13
 774 1421 774 1421 752 1400.5 c 128,-1,14
 730 1380 730 1380 715 1339 c 128,-1,15
 700 1298 700 1298 700 1227 c 2,16,-1
 700 -46 l 2,17,18
 700 -120 700 -120 715.5 -160 c 128,-1,19
 731 -200 731 -200 752 -219 c 128,-1,20
 773 -238 773 -238 795.5 -241.5 c 128,-1,21
 818 -245 818 -245 833 -245 c 1,22,-1
 931 -365 l 1,23,24
 910 -378 910 -378 884 -388.5 c 128,-1,25
 858 -399 858 -399 829.5 -406 c 128,-1,26
 801 -413 801 -413 772.5 -416.5 c 128,-1,27
 744 -420 744 -420 719 -420 c 0,28,29
 605 -420 605 -420 537.5 -383.5 c 128,-1,30
 470 -347 470 -347 434.5 -284 c 128,-1,31
 399 -221 399 -221 389 -138 c 128,-1,32
 379 -55 379 -55 379 38 c 2,33,-1
 379 1158 l 2,0,1
EndSplineSet
Validated: 1
EndChar

StartChar: parenright
Encoding: 41 41 10
Width: 1300
GlyphClass: 1
Flags: W
LayerCount: 2
Fore
SplineSet
1020 38 m 2,0,1
 1020 -55 1020 -55 1010 -138 c 128,-1,2
 1000 -221 1000 -221 964.5 -284 c 128,-1,3
 929 -347 929 -347 861.5 -383.5 c 128,-1,4
 794 -420 794 -420 680 -420 c 0,5,6
 654 -420 654 -420 626 -416.5 c 128,-1,7
 598 -413 598 -413 569.5 -406 c 128,-1,8
 541 -399 541 -399 515 -388.5 c 128,-1,9
 489 -378 489 -378 468 -365 c 1,10,-1
 566 -245 l 1,11,12
 581 -245 581 -245 603.5 -241.5 c 128,-1,13
 626 -238 626 -238 647 -219 c 128,-1,14
 668 -200 668 -200 683.5 -160 c 128,-1,15
 699 -120 699 -120 699 -46 c 2,16,-1
 699 1227 l 2,17,18
 699 1298 699 1298 684 1339 c 128,-1,19
 669 1380 669 1380 647 1400.5 c 128,-1,20
 625 1421 625 1421 600.5 1426 c 128,-1,21
 576 1431 576 1431 558 1431 c 1,22,-1
 468 1545 l 1,23,24
 489 1558 489 1558 515 1568.5 c 128,-1,25
 541 1579 541 1579 569.5 1586 c 128,-1,26
 598 1593 598 1593 626 1596.5 c 128,-1,27
 654 1600 654 1600 680 1600 c 0,28,29
 794 1600 794 1600 861.5 1566 c 128,-1,30
 929 1532 929 1532 964.5 1472 c 128,-1,31
 1000 1412 1000 1412 1010 1331.5 c 128,-1,32
 1020 1251 1020 1251 1020 1158 c 2,33,-1
 1020 38 l 2,0,1
EndSplineSet
Validated: 1
EndChar

StartChar: asterisk
Encoding: 42 42 11
Width: 1300
GlyphClass: 1
Flags: W
LayerCount: 2
Fore
SplineSet
918 926 m 1,0,-1
 1010 805 l 1,1,-1
 842 654 l 1,2,-1
 730 800 l 1,3,-1
 675 990 l 1,4,-1
 625 800 l 1,5,-1
 524 656 l 1,6,-1
 325 781 l 1,7,-1
 447 950 l 1,8,-1
 608 1041 l 1,9,-1
 398 1041 l 1,10,-1
 247 1090 l 1,11,-1
 291 1309 l 1,12,-1
 476 1259 l 1,13,-1
 635 1120 l 1,14,-1
 568 1315 l 1,15,-1
 568 1446 l 1,16,-1
 797 1470 l 1,17,-1
 797 1309 l 1,18,-1
 720 1117 l 1,19,-1
 867 1247 l 1,20,-1
 1011 1294 l 1,21,-1
 1105 1083 l 1,22,-1
 967 1037 l 1,23,-1
 744 1037 l 1,24,-1
 918 926 l 1,0,-1
EndSplineSet
Validated: 1
EndChar

StartChar: plus
Encoding: 43 43 12
Width: 1300
GlyphClass: 1
Flags: W
LayerCount: 2
Fore
SplineSet
179 700 m 1,0,-1
 539 700 l 1,1,-1
 539 1117 l 1,2,-1
 759 1117 l 1,3,-1
 759 700 l 1,4,-1
 1119 700 l 1,5,-1
 1119 500 l 1,6,-1
 759 500 l 1,7,-1
 759 100 l 1,8,-1
 539 100 l 1,9,-1
 539 500 l 1,10,-1
 179 500 l 1,11,-1
 179 700 l 1,0,-1
EndSplineSet
Validated: 1
EndChar

StartChar: comma
Encoding: 44 44 13
Width: 1300
VWidth: 2706
GlyphClass: 1
Flags: W
LayerCount: 2
Fore
SplineSet
309.700195312 216.900390625 m 0,0,1
 309.700195312 264.150390625 309.700195312 264.150390625 328.599609375 306.674804688 c 128,-1,2
 347.5 349.200195312 347.5 349.200195312 380.575195312 380.924804688 c 128,-1,3
 413.650390625 412.650390625 413.650390625 412.650390625 457.525390625 431.549804688 c 128,-1,4
 501.400390625 450.450195312 501.400390625 450.450195312 550 450.450195312 c 0,5,6
 595.900390625 450.450195312 595.900390625 450.450195312 639.099609375 433.575195312 c 128,-1,7
 682.299804688 416.700195312 682.299804688 416.700195312 716.049804688 383.625 c 128,-1,8
 749.799804688 350.549804688 749.799804688 350.549804688 770.049804688 301.950195312 c 128,-1,9
 790.299804688 253.349609375 790.299804688 253.349609375 790.299804688 189.900390625 c 0,10,11
 790.299804688 104.849609375 790.299804688 104.849609375 779.5 23.1748046875 c 128,-1,12
 768.700195312 -58.5 768.700195312 -58.5 735.625 -140.174804688 c 128,-1,13
 702.549804688 -221.849609375 702.549804688 -221.849609375 641.125 -307.575195312 c 128,-1,14
 579.700195312 -393.299804688 579.700195312 -393.299804688 478.450195312 -486.450195312 c 1,15,-1
 394.75 -448.650390625 l 1,16,17
 413.650390625 -413.549804688 413.650390625 -413.549804688 429.849609375 -376.424804688 c 128,-1,18
 446.049804688 -339.299804688 446.049804688 -339.299804688 460.900390625 -301.5 c 0,19,20
 485.200195312 -236.700195312 485.200195312 -236.700195312 505.450195312 -163.125 c 128,-1,21
 525.700195312 -89.5498046875 525.700195312 -89.5498046875 525.700195312 -16.650390625 c 1,22,23
 485.200195312 -15.2998046875 485.200195312 -15.2998046875 446.049804688 0.224609375 c 128,-1,24
 406.900390625 15.75 406.900390625 15.75 376.525390625 45.4501953125 c 128,-1,25
 346.150390625 75.150390625 346.150390625 75.150390625 327.924804688 117.674804688 c 128,-1,26
 309.700195312 160.200195312 309.700195312 160.200195312 309.700195312 216.900390625 c 0,0,1
EndSplineSet
Validated: 524289
EndChar

StartChar: hyphen
Encoding: 45 45 14
Width: 1300
GlyphClass: 1
Flags: W
LayerCount: 2
Fore
SplineSet
335 624 m 1,0,-1
 962 624 l 1,1,-1
 962 400 l 1,2,-1
 335 400 l 1,3,-1
 335 624 l 1,0,-1
EndSplineSet
Validated: 1
EndChar

StartChar: period
Encoding: 46 46 15
Width: 1300
VWidth: 2636
GlyphClass: 1
Flags: W
LayerCount: 2
Fore
SplineSet
283.875 183.349609375 m 256,0,1
 283.875 238.700195312 283.875 238.700195312 304.799804688 287.299804688 c 128,-1,2
 325.724609375 335.900390625 325.724609375 335.900390625 362.174804688 372.349609375 c 128,-1,3
 398.625 408.799804688 398.625 408.799804688 446.549804688 429.724609375 c 128,-1,4
 494.474609375 450.650390625 494.474609375 450.650390625 549.825195312 450.650390625 c 256,5,6
 605.174804688 450.650390625 605.174804688 450.650390625 653.775390625 429.724609375 c 128,-1,7
 702.375 408.799804688 702.375 408.799804688 738.825195312 372.349609375 c 128,-1,8
 775.275390625 335.900390625 775.275390625 335.900390625 796.200195312 287.299804688 c 128,-1,9
 817.125 238.700195312 817.125 238.700195312 817.125 183.349609375 c 256,10,11
 817.125 128 817.125 128 796.200195312 78.724609375 c 128,-1,12
 775.275390625 29.4501953125 775.275390625 29.4501953125 739.5 -7 c 128,-1,13
 703.724609375 -43.4501953125 703.724609375 -43.4501953125 655.125 -65.0498046875 c 128,-1,14
 606.525390625 -86.650390625 606.525390625 -86.650390625 552.525390625 -86.650390625 c 0,15,16
 497.174804688 -86.650390625 497.174804688 -86.650390625 447.900390625 -65.0498046875 c 128,-1,17
 398.625 -43.4501953125 398.625 -43.4501953125 362.174804688 -7 c 128,-1,18
 325.724609375 29.4501953125 325.724609375 29.4501953125 304.799804688 78.724609375 c 128,-1,19
 283.875 128 283.875 128 283.875 183.349609375 c 256,0,1
EndSplineSet
Validated: 524289
EndChar

StartChar: slash
Encoding: 47 47 16
Width: 1300
GlyphClass: 1
Flags: W
LayerCount: 2
Fore
SplineSet
453 -100 m 1,0,-1
 101 -100 l 1,1,-1
 810 1600 l 1,2,-1
 1153 1600 l 1,3,-1
 453 -100 l 1,0,-1
EndSplineSet
Validated: 1
EndChar

StartChar: zero
Encoding: 48 48 17
Width: 1300
GlyphClass: 1
Flags: W
LayerCount: 2
Fore
SplineSet
628 -16 m 0,0,1
 535 -16 535 -16 457 16.5 c 128,-1,2
 379 49 379 49 317 105 c 128,-1,3
 255 161 255 161 208 236 c 128,-1,4
 161 311 161 311 130 396 c 128,-1,5
 99 481 99 481 83.5 572 c 128,-1,6
 68 663 68 663 68 750 c 0,7,8
 68 840 68 840 81 931.5 c 128,-1,9
 94 1023 94 1023 122.5 1108.5 c 128,-1,10
 151 1194 151 1194 195.5 1268 c 128,-1,11
 240 1342 240 1342 302 1397.5 c 128,-1,12
 364 1453 364 1453 445 1484.5 c 128,-1,13
 526 1516 526 1516 628 1516 c 0,14,15
 721 1516 721 1516 799 1483.5 c 128,-1,16
 877 1451 877 1451 939 1395 c 128,-1,17
 1001 1339 1001 1339 1048 1264 c 128,-1,18
 1095 1189 1095 1189 1126 1104 c 128,-1,19
 1157 1019 1157 1019 1172.5 928 c 128,-1,20
 1188 837 1188 837 1188 750 c 0,21,22
 1188 660 1188 660 1174.5 568.5 c 128,-1,23
 1161 477 1161 477 1133 391.5 c 128,-1,24
 1105 306 1105 306 1060.5 232 c 128,-1,25
 1016 158 1016 158 953.5 102.5 c 128,-1,26
 891 47 891 47 810 15.5 c 128,-1,27
 729 -16 729 -16 628 -16 c 0,0,1
396 791 m 0,28,29
 396 755 396 755 398 713.5 c 128,-1,30
 400 672 400 672 405 628 c 1,31,-1
 383 328 l 1,32,-1
 746 1204 l 1,33,34
 721 1236 721 1236 690 1254.5 c 128,-1,35
 659 1273 659 1273 620 1273 c 0,36,37
 578 1273 578 1273 545 1252.5 c 128,-1,38
 512 1232 512 1232 487 1196.5 c 128,-1,39
 462 1161 462 1161 444.5 1113.5 c 128,-1,40
 427 1066 427 1066 416.5 1012.5 c 128,-1,41
 406 959 406 959 401 902 c 128,-1,42
 396 845 396 845 396 791 c 0,28,29
880 1111 m 1,43,-1
 536 266 l 1,44,45
 556 247 556 247 581 236.5 c 128,-1,46
 606 226 606 226 635 226 c 0,47,48
 677 226 677 226 710 246.5 c 128,-1,49
 743 267 743 267 768 302.5 c 128,-1,50
 793 338 793 338 810.5 385.5 c 128,-1,51
 828 433 828 433 839 487 c 128,-1,52
 850 541 850 541 855 597.5 c 128,-1,53
 860 654 860 654 860 709 c 0,54,55
 860 752 860 752 857 800 c 1,56,-1
 880 1111 l 1,43,-1
EndSplineSet
EndChar

StartChar: one
Encoding: 49 49 18
Width: 1300
GlyphClass: 1
Flags: W
LayerCount: 2
Fore
SplineSet
545 880 m 1,0,-1
 619 1243 l 1,1,-1
 392 972 l 1,2,-1
 308 898 l 1,3,-1
 153 1083 l 1,4,-1
 633 1520 l 1,5,-1
 876 1500 l 1,6,-1
 876 200 l 1,7,-1
 1119 200 l 1,8,-1
 1119 0 l 1,9,-1
 302 0 l 1,10,-1
 302 200 l 1,11,-1
 545 200 l 1,12,-1
 545 880 l 1,0,-1
EndSplineSet
Validated: 1
EndChar

StartChar: two
Encoding: 50 50 19
Width: 1300
GlyphClass: 1
Flags: W
LayerCount: 2
Fore
SplineSet
112 0 m 1,0,-1
 112 190 l 1,1,2
 159 264 159 264 220.5 345.5 c 128,-1,3
 282 427 282 427 347 505.5 c 128,-1,4
 412 584 412 584 474 654 c 128,-1,5
 536 724 536 724 583 775 c 0,6,7
 637 833 637 833 675 873 c 128,-1,8
 713 913 713 913 736 947 c 128,-1,9
 759 981 759 981 769.5 1015.5 c 128,-1,10
 780 1050 780 1050 780 1097 c 0,11,12
 780 1134 780 1134 767.5 1170.5 c 128,-1,13
 755 1207 755 1207 732 1236 c 128,-1,14
 709 1265 709 1265 676 1282.5 c 128,-1,15
 643 1300 643 1300 603 1300 c 0,16,17
 521 1300 521 1300 459 1245 c 128,-1,18
 397 1190 397 1190 349 1096 c 1,19,-1
 116 1183 l 1,20,21
 145 1259 145 1259 190.5 1321 c 128,-1,22
 236 1383 236 1383 299 1426.5 c 128,-1,23
 362 1470 362 1470 441.5 1493.5 c 128,-1,24
 521 1517 521 1517 618 1517 c 0,25,26
 732 1517 732 1517 821 1479.5 c 128,-1,27
 910 1442 910 1442 971.5 1381 c 128,-1,28
 1033 1320 1033 1320 1065 1242.5 c 128,-1,29
 1097 1165 1097 1165 1097 1086 c 0,30,31
 1097 1016 1097 1016 1075 957 c 128,-1,32
 1053 898 1053 898 1016 843.5 c 128,-1,33
 979 789 979 789 932 735 c 128,-1,34
 885 681 885 681 835 621 c 256,35,36
 785 561 785 561 731.5 499 c 128,-1,37
 678 437 678 437 629.5 381 c 128,-1,38
 581 325 581 325 541.5 278 c 128,-1,39
 502 231 502 231 480 200 c 1,40,-1
 1122 200 l 1,41,-1
 1122 0 l 1,42,-1
 112 0 l 1,0,-1
EndSplineSet
Validated: 1
EndChar

StartChar: three
Encoding: 51 51 20
Width: 1300
GlyphClass: 1
Flags: W
LayerCount: 2
Fore
SplineSet
283 938 m 1,0,1
 312 959 312 959 353 989 c 128,-1,2
 394 1019 394 1019 440.5 1055 c 128,-1,3
 487 1091 487 1091 535.5 1130.5 c 128,-1,4
 584 1170 584 1170 628 1211.5 c 128,-1,5
 672 1253 672 1253 709.5 1294.5 c 128,-1,6
 747 1336 747 1336 771 1374 c 1,7,-1
 511 1300 l 1,8,-1
 180 1300 l 1,9,-1
 201 1500 l 1,10,-1
 1043 1500 l 1,11,-1
 1043 1327 l 1,12,13
 1012 1248 1012 1248 954.5 1182 c 128,-1,14
 897 1116 897 1116 825 1052 c 1,15,-1
 669 969 l 1,16,17
 774 969 774 969 860.5 941.5 c 128,-1,18
 947 914 947 914 1008 863 c 128,-1,19
 1069 812 1069 812 1102.5 738.5 c 128,-1,20
 1136 665 1136 665 1136 573 c 0,21,22
 1136 474 1136 474 1095 393 c 128,-1,23
 1054 312 1054 312 984 248.5 c 128,-1,24
 914 185 914 185 819.5 138 c 128,-1,25
 725 91 725 91 617.5 60.5 c 128,-1,26
 510 30 510 30 395.5 15 c 128,-1,27
 281 0 281 0 170 0 c 1,28,-1
 170 200 l 1,29,30
 288 204 288 204 400 231 c 128,-1,31
 512 258 512 258 600 304.5 c 128,-1,32
 688 351 688 351 741.5 416.5 c 128,-1,33
 795 482 795 482 795 563 c 0,34,35
 795 621 795 621 770.5 660.5 c 128,-1,36
 746 700 746 700 704 724.5 c 128,-1,37
 662 749 662 749 606.5 759.5 c 128,-1,38
 551 770 551 770 489 770 c 0,39,40
 474 770 474 770 445 769 c 128,-1,41
 416 768 416 768 385 766.5 c 128,-1,42
 354 765 354 765 325.5 763 c 128,-1,43
 297 761 297 761 283 760 c 1,44,-1
 283 938 l 1,0,1
EndSplineSet
Validated: 1
EndChar

StartChar: four
Encoding: 52 52 21
Width: 1300
GlyphClass: 1
Flags: W
LayerCount: 2
Fore
SplineSet
1179 300 m 1,0,-1
 1001 300 l 1,1,-1
 1001 0 l 1,2,-1
 680 0 l 1,3,-1
 680 300 l 1,4,-1
 120 300 l 1,5,-1
 120 500 l 1,6,-1
 613 1520 l 1,7,-1
 894 1500 l 1,8,-1
 563 763 l 1,9,-1
 389 500 l 1,10,-1
 680 500 l 1,11,-1
 680 780 l 1,12,-1
 1001 800 l 1,13,-1
 1001 500 l 1,14,-1
 1200 500 l 1,15,-1
 1179 300 l 1,0,-1
EndSplineSet
Validated: 1
EndChar

StartChar: five
Encoding: 53 53 22
Width: 1300
GlyphClass: 1
Flags: W
LayerCount: 2
Fore
SplineSet
521 1046 m 1,0,1
 545 1052 545 1052 573.5 1055.5 c 128,-1,2
 602 1059 602 1059 637 1059 c 0,3,4
 753 1059 753 1059 844.5 1025 c 128,-1,5
 936 991 936 991 999.5 932 c 128,-1,6
 1063 873 1063 873 1096.5 794.5 c 128,-1,7
 1130 716 1130 716 1130 626 c 0,8,9
 1130 524 1130 524 1089 437.5 c 128,-1,10
 1048 351 1048 351 977.5 281.5 c 128,-1,11
 907 212 907 212 813 159.5 c 128,-1,12
 719 107 719 107 612.5 71.5 c 128,-1,13
 506 36 506 36 393 18 c 128,-1,14
 280 0 280 0 172 0 c 1,15,-1
 172 226 l 1,16,17
 243 228 243 228 317.5 242 c 128,-1,18
 392 256 392 256 462 280 c 128,-1,19
 532 304 532 304 594 338 c 128,-1,20
 656 372 656 372 702.5 413.5 c 128,-1,21
 749 455 749 455 776 503.5 c 128,-1,22
 803 552 803 552 803 606 c 0,23,24
 803 647 803 647 789 686 c 128,-1,25
 775 725 775 725 749.5 755 c 128,-1,26
 724 785 724 785 689 803.5 c 128,-1,27
 654 822 654 822 611 822 c 0,28,29
 572 822 572 822 539.5 816 c 128,-1,30
 507 810 507 810 480 800.5 c 128,-1,31
 453 791 453 791 432.5 780 c 128,-1,32
 412 769 412 769 397 759 c 1,33,-1
 172 759 l 1,34,-1
 172 1500 l 1,35,-1
 1038 1500 l 1,36,-1
 1038 1300 l 1,37,-1
 521 1300 l 1,38,-1
 521 1046 l 1,0,1
EndSplineSet
Validated: 1
EndChar

StartChar: six
Encoding: 54 54 23
Width: 1300
GlyphClass: 1
Flags: W
LayerCount: 2
Fore
SplineSet
1004 1280 m 1,0,1
 978 1294 978 1294 947.5 1297 c 128,-1,2
 917 1300 917 1300 893 1300 c 0,3,4
 824 1300 824 1300 750.5 1266.5 c 128,-1,5
 677 1233 677 1233 612 1169 c 128,-1,6
 547 1105 547 1105 498.5 1012 c 128,-1,7
 450 919 450 919 432 800 c 1,8,-1
 597 945 l 1,9,10
 624 950 624 950 649.5 953 c 128,-1,11
 675 956 675 956 698 956 c 0,12,13
 795 956 795 956 885.5 931.5 c 128,-1,14
 976 907 976 907 1046 854.5 c 128,-1,15
 1116 802 1116 802 1158 720.5 c 128,-1,16
 1200 639 1200 639 1200 525 c 0,17,18
 1200 414 1200 414 1160 315.5 c 128,-1,19
 1120 217 1120 217 1047.5 143 c 128,-1,20
 975 69 975 69 873 26 c 128,-1,21
 771 -17 771 -17 648 -17 c 0,22,23
 540 -17 540 -17 457.5 15 c 128,-1,24
 375 47 375 47 313.5 99.5 c 128,-1,25
 252 152 252 152 210 219.5 c 128,-1,26
 168 287 168 287 142.5 358.5 c 128,-1,27
 117 430 117 430 106 500 c 128,-1,28
 95 570 95 570 95 627 c 0,29,30
 95 745 95 745 120.5 857 c 128,-1,31
 146 969 146 969 194.5 1067.5 c 128,-1,32
 243 1166 243 1166 313.5 1249 c 128,-1,33
 384 1332 384 1332 473.5 1391.5 c 128,-1,34
 563 1451 563 1451 671 1484 c 128,-1,35
 779 1517 779 1517 902 1517 c 0,36,37
 920 1517 920 1517 953.5 1514.5 c 128,-1,38
 987 1512 987 1512 1038 1498 c 1,39,-1
 1004 1280 l 1,0,1
684 756 m 0,40,41
 648 756 648 756 611.5 741 c 128,-1,42
 575 726 575 726 541.5 703 c 128,-1,43
 508 680 508 680 479.5 652.5 c 128,-1,44
 451 625 451 625 432 601 c 1,45,46
 432 575 432 575 432.5 553.5 c 128,-1,47
 433 532 433 532 434.5 512.5 c 128,-1,48
 436 493 436 493 439.5 474 c 128,-1,49
 443 455 443 455 449 434 c 0,50,51
 461 387 461 387 480.5 344.5 c 128,-1,52
 500 302 500 302 525.5 270 c 128,-1,53
 551 238 551 238 582.5 219 c 128,-1,54
 614 200 614 200 651 200 c 0,55,56
 705 200 705 200 745 228.5 c 128,-1,57
 785 257 785 257 811.5 302.5 c 128,-1,58
 838 348 838 348 850.5 404 c 128,-1,59
 863 460 863 460 863 516 c 0,60,61
 863 566 863 566 849.5 610 c 128,-1,62
 836 654 836 654 812 686.5 c 128,-1,63
 788 719 788 719 755 737.5 c 128,-1,64
 722 756 722 756 684 756 c 0,40,41
EndSplineSet
Validated: 1
EndChar

StartChar: seven
Encoding: 55 55 24
Width: 1300
GlyphClass: 1
Flags: W
LayerCount: 2
Fore
SplineSet
140 1500 m 1,0,-1
 1147 1500 l 1,1,-1
 1147 1339 l 2,2,3
 1147 1313 1147 1313 1132.5 1274.5 c 128,-1,4
 1118 1236 1118 1236 1094 1189 c 128,-1,5
 1070 1142 1070 1142 1037.5 1088 c 128,-1,6
 1005 1034 1005 1034 969 976 c 0,7,8
 927 906 927 906 881 827 c 128,-1,9
 835 748 835 748 795.5 666 c 128,-1,10
 756 584 756 584 726.5 502.5 c 128,-1,11
 697 421 697 421 688 346 c 0,12,13
 684 310 684 310 681.5 266 c 128,-1,14
 679 222 679 222 678 175.5 c 128,-1,15
 677 129 677 129 677 84 c 128,-1,16
 677 39 677 39 677 0 c 1,17,-1
 340 0 l 1,18,19
 340 32 340 32 340.5 86 c 128,-1,20
 341 140 341 140 343 200 c 128,-1,21
 345 260 345 260 350 318.5 c 128,-1,22
 355 377 355 377 364 418 c 0,23,24
 383 508 383 508 418 598 c 128,-1,25
 453 688 453 688 495.5 774 c 128,-1,26
 538 860 538 860 584 939 c 128,-1,27
 630 1018 630 1018 672 1086 c 0,28,29
 707 1143 707 1143 735.5 1191 c 128,-1,30
 764 1239 764 1239 776 1272 c 1,31,-1
 140 1272 l 1,32,-1
 140 1500 l 1,0,-1
EndSplineSet
Validated: 1
EndChar

StartChar: eight
Encoding: 56 56 25
Width: 1300
GlyphClass: 1
Flags: W
LayerCount: 2
Fore
SplineSet
616 1517 m 0,0,1
 719 1517 719 1517 806.5 1490.5 c 128,-1,2
 894 1464 894 1464 958 1414.5 c 128,-1,3
 1022 1365 1022 1365 1058 1294 c 128,-1,4
 1094 1223 1094 1223 1094 1134 c 0,5,6
 1094 1083 1094 1083 1074 1040 c 128,-1,7
 1054 997 1054 997 1022.5 961 c 128,-1,8
 991 925 991 925 950.5 896 c 128,-1,9
 910 867 910 867 870 844 c 1,10,11
 936 812 936 812 994 769.5 c 128,-1,12
 1052 727 1052 727 1095 674.5 c 128,-1,13
 1138 622 1138 622 1162.5 560 c 128,-1,14
 1187 498 1187 498 1187 427 c 0,15,16
 1187 311 1187 311 1138.5 227.5 c 128,-1,17
 1090 144 1090 144 1011 89.5 c 128,-1,18
 932 35 932 35 830 9 c 128,-1,19
 728 -17 728 -17 622 -17 c 0,20,21
 518 -17 518 -17 420.5 12.5 c 128,-1,22
 323 42 323 42 248 100 c 128,-1,23
 173 158 173 158 127.5 243.5 c 128,-1,24
 82 329 82 329 82 441 c 0,25,26
 82 512 82 512 103.5 573.5 c 128,-1,27
 125 635 125 635 163.5 686 c 128,-1,28
 202 737 202 737 254.5 777.5 c 128,-1,29
 307 818 307 818 370 848 c 1,30,31
 324 875 324 875 285 905.5 c 128,-1,32
 246 936 246 936 217 970 c 128,-1,33
 188 1004 188 1004 171.5 1042.5 c 128,-1,34
 155 1081 155 1081 155 1124 c 0,35,36
 155 1226 155 1226 199 1300.5 c 128,-1,37
 243 1375 243 1375 310.5 1423 c 128,-1,38
 378 1471 378 1471 459.5 1494 c 128,-1,39
 541 1517 541 1517 616 1517 c 0,0,1
862 422 m 0,40,41
 862 476 862 476 839 520 c 128,-1,42
 816 564 816 564 779.5 599.5 c 128,-1,43
 743 635 743 635 697.5 662.5 c 128,-1,44
 652 690 652 690 607 711 c 1,45,46
 564 690 564 690 527.5 662.5 c 128,-1,47
 491 635 491 635 464 599 c 128,-1,48
 437 563 437 563 421.5 519 c 128,-1,49
 406 475 406 475 406 421 c 0,50,51
 406 373 406 373 425.5 332 c 128,-1,52
 445 291 445 291 475.5 262 c 128,-1,53
 506 233 506 233 545 216.5 c 128,-1,54
 584 200 584 200 623 200 c 0,55,56
 668 200 668 200 711 215 c 128,-1,57
 754 230 754 230 787.5 258.5 c 128,-1,58
 821 287 821 287 841.5 328 c 128,-1,59
 862 369 862 369 862 422 c 0,40,41
475 1156 m 0,60,61
 475 1122 475 1122 489 1093.5 c 128,-1,62
 503 1065 503 1065 526.5 1041 c 128,-1,63
 550 1017 550 1017 580.5 998 c 128,-1,64
 611 979 611 979 643 964 c 1,65,66
 670 979 670 979 694 998.5 c 128,-1,67
 718 1018 718 1018 735.5 1041.5 c 128,-1,68
 753 1065 753 1065 763.5 1092.5 c 128,-1,69
 774 1120 774 1120 774 1152 c 0,70,71
 774 1190 774 1190 759.5 1218 c 128,-1,72
 745 1246 745 1246 724 1264 c 128,-1,73
 703 1282 703 1282 678.5 1291 c 128,-1,74
 654 1300 654 1300 634 1300 c 0,75,76
 606 1300 606 1300 577.5 1289 c 128,-1,77
 549 1278 549 1278 526.5 1258.5 c 128,-1,78
 504 1239 504 1239 489.5 1212.5 c 128,-1,79
 475 1186 475 1186 475 1156 c 0,60,61
EndSplineSet
Validated: 1
EndChar

StartChar: nine
Encoding: 57 57 26
Width: 1300
GlyphClass: 1
Flags: W
LayerCount: 2
Fore
SplineSet
318 199 m 1,0,1
 387 201 387 201 453.5 222 c 128,-1,2
 520 243 520 243 580.5 278.5 c 128,-1,3
 641 314 641 314 692 361 c 128,-1,4
 743 408 743 408 781 463 c 128,-1,5
 819 518 819 518 840.5 578.5 c 128,-1,6
 862 639 862 639 863 700 c 1,7,-1
 685 548 l 1,8,9
 669 546 669 546 652.5 545 c 128,-1,10
 636 544 636 544 619 544 c 0,11,12
 509 544 509 544 414.5 577.5 c 128,-1,13
 320 611 320 611 250 673 c 128,-1,14
 180 735 180 735 140 822.5 c 128,-1,15
 100 910 100 910 100 1017 c 0,16,17
 100 1128 100 1128 138 1220 c 128,-1,18
 176 1312 176 1312 246.5 1378 c 128,-1,19
 317 1444 317 1444 417 1480.5 c 128,-1,20
 517 1517 517 1517 641 1517 c 0,21,22
 751 1517 751 1517 835 1486 c 128,-1,23
 919 1455 919 1455 980.5 1403.5 c 128,-1,24
 1042 1352 1042 1352 1083.5 1285 c 128,-1,25
 1125 1218 1125 1218 1149.5 1146.5 c 128,-1,26
 1174 1075 1174 1075 1184.5 1004 c 128,-1,27
 1195 933 1195 933 1195 873 c 0,28,29
 1195 696 1195 696 1139 540.5 c 128,-1,30
 1083 385 1083 385 976 266.5 c 128,-1,31
 869 148 869 148 714 73.5 c 128,-1,32
 559 -1 559 -1 361 -17 c 1,33,-1
 318 199 l 1,0,1
628 761 m 0,34,35
 662 761 662 761 698 777 c 128,-1,36
 734 793 734 793 766 819 c 128,-1,37
 798 845 798 845 824.5 878 c 128,-1,38
 851 911 851 911 867 945 c 1,39,40
 864 1008 864 1008 847.5 1071.5 c 128,-1,41
 831 1135 831 1135 803 1186 c 128,-1,42
 775 1237 775 1237 736 1268.5 c 128,-1,43
 697 1300 697 1300 648 1300 c 0,44,45
 601 1300 601 1300 561.5 1278.5 c 128,-1,46
 522 1257 522 1257 492.5 1221 c 128,-1,47
 463 1185 463 1185 446.5 1136.5 c 128,-1,48
 430 1088 430 1088 430 1034 c 256,49,50
 430 980 430 980 443.5 931 c 128,-1,51
 457 882 457 882 482.5 844 c 128,-1,52
 508 806 508 806 544.5 783.5 c 128,-1,53
 581 761 581 761 628 761 c 0,34,35
EndSplineSet
Validated: 1
EndChar

StartChar: colon
Encoding: 58 58 27
Width: 1300
VWidth: 2545
GlyphClass: 1
Flags: W
LayerCount: 2
Fore
SplineSet
283.875 92.875 m 256,0,1
 283.875 148.224609375 283.875 148.224609375 304.799804688 196.825195312 c 128,-1,2
 325.724609375 245.424804688 325.724609375 245.424804688 362.174804688 281.875 c 128,-1,3
 398.625 318.325195312 398.625 318.325195312 446.549804688 339.25 c 128,-1,4
 494.474609375 360.174804688 494.474609375 360.174804688 549.825195312 360.174804688 c 256,5,6
 605.174804688 360.174804688 605.174804688 360.174804688 653.775390625 339.25 c 128,-1,7
 702.375 318.325195312 702.375 318.325195312 738.825195312 281.875 c 128,-1,8
 775.275390625 245.424804688 775.275390625 245.424804688 796.200195312 196.825195312 c 128,-1,9
 817.125 148.224609375 817.125 148.224609375 817.125 92.875 c 256,10,11
 817.125 37.525390625 817.125 37.525390625 796.200195312 -11.75 c 128,-1,12
 775.275390625 -61.025390625 775.275390625 -61.025390625 739.5 -97.474609375 c 128,-1,13
 703.724609375 -133.924804688 703.724609375 -133.924804688 655.125 -155.525390625 c 128,-1,14
 606.525390625 -177.125 606.525390625 -177.125 552.525390625 -177.125 c 0,15,16
 497.174804688 -177.125 497.174804688 -177.125 447.900390625 -155.525390625 c 128,-1,17
 398.625 -133.924804688 398.625 -133.924804688 362.174804688 -97.474609375 c 128,-1,18
 325.724609375 -61.025390625 325.724609375 -61.025390625 304.799804688 -11.75 c 128,-1,19
 283.875 37.525390625 283.875 37.525390625 283.875 92.875 c 256,0,1
283.875 790.825195312 m 256,20,21
 283.875 846.174804688 283.875 846.174804688 304.799804688 894.775390625 c 128,-1,22
 325.724609375 943.375 325.724609375 943.375 362.174804688 979.825195312 c 128,-1,23
 398.625 1016.27539062 398.625 1016.27539062 446.549804688 1037.20019531 c 128,-1,24
 494.474609375 1058.125 494.474609375 1058.125 549.825195312 1058.125 c 256,25,26
 605.174804688 1058.125 605.174804688 1058.125 653.775390625 1037.20019531 c 128,-1,27
 702.375 1016.27539062 702.375 1016.27539062 738.825195312 979.825195312 c 128,-1,28
 775.275390625 943.375 775.275390625 943.375 796.200195312 894.775390625 c 128,-1,29
 817.125 846.174804688 817.125 846.174804688 817.125 790.825195312 c 256,30,31
 817.125 735.474609375 817.125 735.474609375 796.200195312 686.200195312 c 128,-1,32
 775.275390625 636.924804688 775.275390625 636.924804688 739.5 600.474609375 c 128,-1,33
 703.724609375 564.025390625 703.724609375 564.025390625 655.125 542.424804688 c 128,-1,34
 606.525390625 520.825195312 606.525390625 520.825195312 552.525390625 520.825195312 c 0,35,36
 497.174804688 520.825195312 497.174804688 520.825195312 447.900390625 542.424804688 c 128,-1,37
 398.625 564.025390625 398.625 564.025390625 362.174804688 600.474609375 c 128,-1,38
 325.724609375 636.924804688 325.724609375 636.924804688 304.799804688 686.200195312 c 128,-1,39
 283.875 735.474609375 283.875 735.474609375 283.875 790.825195312 c 256,20,21
EndSplineSet
Validated: 524289
EndChar

StartChar: semicolon
Encoding: 59 59 28
Width: 1300
VWidth: 2606
GlyphClass: 1
Flags: W
LayerCount: 2
Fore
SplineSet
309.525390625 117.325195312 m 0,0,1
 309.525390625 164.575195312 309.525390625 164.575195312 328.424804688 207.099609375 c 128,-1,2
 347.325195312 249.625 347.325195312 249.625 380.400390625 281.349609375 c 128,-1,3
 413.474609375 313.075195312 413.474609375 313.075195312 457.349609375 331.974609375 c 128,-1,4
 501.224609375 350.875 501.224609375 350.875 549.825195312 350.875 c 0,5,6
 595.724609375 350.875 595.724609375 350.875 638.924804688 334 c 128,-1,7
 682.125 317.125 682.125 317.125 715.875 284.049804688 c 128,-1,8
 749.625 250.974609375 749.625 250.974609375 769.875 202.375 c 128,-1,9
 790.125 153.775390625 790.125 153.775390625 790.125 90.3251953125 c 0,10,11
 790.125 5.275390625 790.125 5.275390625 779.325195312 -76.400390625 c 128,-1,12
 768.525390625 -158.075195312 768.525390625 -158.075195312 735.450195312 -239.75 c 128,-1,13
 702.375 -321.424804688 702.375 -321.424804688 640.950195312 -407.150390625 c 128,-1,14
 579.525390625 -492.875 579.525390625 -492.875 478.275390625 -586.025390625 c 1,15,-1
 394.575195312 -548.224609375 l 1,16,17
 413.474609375 -513.125 413.474609375 -513.125 429.674804688 -476 c 128,-1,18
 445.875 -438.875 445.875 -438.875 460.724609375 -401.075195312 c 0,19,20
 485.025390625 -336.275390625 485.025390625 -336.275390625 505.275390625 -262.700195312 c 128,-1,21
 525.525390625 -189.125 525.525390625 -189.125 525.525390625 -116.224609375 c 1,22,23
 485.025390625 -114.875 485.025390625 -114.875 445.875 -99.349609375 c 128,-1,24
 406.724609375 -83.8251953125 406.724609375 -83.8251953125 376.349609375 -54.125 c 128,-1,25
 345.974609375 -24.4248046875 345.974609375 -24.4248046875 327.75 18.099609375 c 128,-1,26
 309.525390625 60.625 309.525390625 60.625 309.525390625 117.325195312 c 0,0,1
283.875 851.724609375 m 256,27,28
 283.875 907.075195312 283.875 907.075195312 304.799804688 955.674804688 c 128,-1,29
 325.724609375 1004.27539062 325.724609375 1004.27539062 362.174804688 1040.72460938 c 128,-1,30
 398.625 1077.17480469 398.625 1077.17480469 446.549804688 1098.09960938 c 128,-1,31
 494.474609375 1119.02539062 494.474609375 1119.02539062 549.825195312 1119.02539062 c 256,32,33
 605.174804688 1119.02539062 605.174804688 1119.02539062 653.775390625 1098.09960938 c 128,-1,34
 702.375 1077.17480469 702.375 1077.17480469 738.825195312 1040.72460938 c 128,-1,35
 775.275390625 1004.27539062 775.275390625 1004.27539062 796.200195312 955.674804688 c 128,-1,36
 817.125 907.075195312 817.125 907.075195312 817.125 851.724609375 c 256,37,38
 817.125 796.375 817.125 796.375 796.200195312 747.099609375 c 128,-1,39
 775.275390625 697.825195312 775.275390625 697.825195312 739.5 661.375 c 128,-1,40
 703.724609375 624.924804688 703.724609375 624.924804688 655.125 603.325195312 c 128,-1,41
 606.525390625 581.724609375 606.525390625 581.724609375 552.525390625 581.724609375 c 0,42,43
 497.174804688 581.724609375 497.174804688 581.724609375 447.900390625 603.325195312 c 128,-1,44
 398.625 624.924804688 398.625 624.924804688 362.174804688 661.375 c 128,-1,45
 325.724609375 697.825195312 325.724609375 697.825195312 304.799804688 747.099609375 c 128,-1,46
 283.875 796.375 283.875 796.375 283.875 851.724609375 c 256,27,28
EndSplineSet
Validated: 524289
EndChar

StartChar: less
Encoding: 60 60 29
Width: 1300
GlyphClass: 1
Flags: W
LayerCount: 2
Fore
SplineSet
1137 1277 m 1,0,-1
 1137 1009 l 1,1,-1
 470 654 l 1,2,-1
 1137 302 l 1,3,-1
 1137 34 l 1,4,-1
 130 545 l 1,5,-1
 130 770 l 1,6,-1
 1137 1277 l 1,0,-1
EndSplineSet
Validated: 1
EndChar

StartChar: equal
Encoding: 61 61 30
Width: 1300
VWidth: 2528
GlyphClass: 1
Flags: W
LayerCount: 2
Fore
SplineSet
60 908.325195312 m 1,0,-1
 1140 908.325195312 l 1,1,-1
 1140 612.674804688 l 1,2,-1
 60 612.674804688 l 1,3,-1
 60 908.325195312 l 1,0,-1
60 368.325195312 m 1,4,-1
 1140 368.325195312 l 1,5,-1
 1140 72.6748046875 l 1,6,-1
 60 72.6748046875 l 1,7,-1
 60 368.325195312 l 1,4,-1
EndSplineSet
Validated: 524289
EndChar

StartChar: greater
Encoding: 62 62 31
Width: 1300
GlyphClass: 1
Flags: W
LayerCount: 2
Fore
SplineSet
1137 770 m 1,0,-1
 1137 545 l 1,1,-1
 130 34 l 1,2,-1
 130 302 l 1,3,-1
 797 654 l 1,4,-1
 130 1009 l 1,5,-1
 130 1278 l 1,6,-1
 1137 770 l 1,0,-1
EndSplineSet
Validated: 1
EndChar

StartChar: question
Encoding: 63 63 32
Width: 1300
GlyphClass: 1
Flags: W
LayerCount: 2
Fore
SplineSet
1111 1124 m 0,0,1
 1111 1064 1111 1064 1091 1014.5 c 128,-1,2
 1071 965 1071 965 1038.5 922.5 c 128,-1,3
 1006 880 1006 880 964.5 841.5 c 128,-1,4
 923 803 923 803 880 765 c 0,5,6
 851 740 851 740 821.5 708.5 c 128,-1,7
 792 677 792 677 768.5 637 c 128,-1,8
 745 597 745 597 730.5 547 c 128,-1,9
 716 497 716 497 716 434 c 1,10,-1
 405 399 l 1,11,12
 406 486 406 486 418.5 562 c 128,-1,13
 431 638 431 638 460 704.5 c 128,-1,14
 489 771 489 771 536 830 c 128,-1,15
 583 889 583 889 654 942 c 0,16,17
 676 961 676 961 697 981 c 128,-1,18
 718 1001 718 1001 734 1023.5 c 128,-1,19
 750 1046 750 1046 760 1072.5 c 128,-1,20
 770 1099 770 1099 770 1132 c 0,21,22
 770 1172 770 1172 755.5 1200.5 c 128,-1,23
 741 1229 741 1229 716.5 1247.5 c 128,-1,24
 692 1266 692 1266 660 1274.5 c 128,-1,25
 628 1283 628 1283 594 1283 c 0,26,27
 568 1283 568 1283 530 1274.5 c 128,-1,28
 492 1266 492 1266 450 1246.5 c 128,-1,29
 408 1227 408 1227 365.5 1195 c 128,-1,30
 323 1163 323 1163 289 1117 c 1,31,-1
 107 1268 l 1,32,33
 164 1344 164 1344 228.5 1392.5 c 128,-1,34
 293 1441 293 1441 360 1468.5 c 128,-1,35
 427 1496 427 1496 493 1506.5 c 128,-1,36
 559 1517 559 1517 618 1517 c 0,37,38
 713 1517 713 1517 802 1493.5 c 128,-1,39
 891 1470 891 1470 959.5 1421.5 c 128,-1,40
 1028 1373 1028 1373 1069.5 1299 c 128,-1,41
 1111 1225 1111 1225 1111 1124 c 0,0,1
409 149 m 0,42,43
 409 183 409 183 422 212.5 c 128,-1,44
 435 242 435 242 457 264.5 c 128,-1,45
 479 287 479 287 508.5 300 c 128,-1,46
 538 313 538 313 572 313 c 256,47,48
 606 313 606 313 635.5 300 c 128,-1,49
 665 287 665 287 687 264.5 c 128,-1,50
 709 242 709 242 722 212.5 c 128,-1,51
 735 183 735 183 735 149 c 0,52,53
 735 116 735 116 722.5 85.5 c 128,-1,54
 710 55 710 55 688 32.5 c 128,-1,55
 666 10 666 10 636.5 -3.5 c 128,-1,56
 607 -17 607 -17 573 -17 c 256,57,58
 539 -17 539 -17 509 -3.5 c 128,-1,59
 479 10 479 10 457 32.5 c 128,-1,60
 435 55 435 55 422 85.5 c 128,-1,61
 409 116 409 116 409 149 c 0,42,43
EndSplineSet
Validated: 1
EndChar

StartChar: at
Encoding: 64 64 33
Width: 1300
GlyphClass: 1
Flags: W
LayerCount: 2
Fore
SplineSet
690 500 m 1,0,-1
 660 500 l 2,1,2
 643 500 643 500 627 492 c 128,-1,3
 611 484 611 484 597.5 465 c 128,-1,4
 584 446 584 446 576 414 c 128,-1,5
 568 382 568 382 568 333 c 0,6,7
 568 293 568 293 573.5 267.5 c 128,-1,8
 579 242 579 242 588 227 c 128,-1,9
 597 212 597 212 609 206 c 128,-1,10
 621 200 621 200 635 200 c 0,11,12
 655 200 655 200 666.5 212.5 c 128,-1,13
 678 225 678 225 683 241 c 256,14,15
 688 257 688 257 690 283 c 2,16,-1
 690 500 l 1,0,-1
275 500 m 2,17,18
 275 421 275 421 282 340.5 c 128,-1,19
 289 260 289 260 307 185 c 128,-1,20
 325 110 325 110 354.5 45 c 128,-1,21
 384 -20 384 -20 429 -68 c 128,-1,22
 474 -116 474 -116 536 -144 c 128,-1,23
 598 -172 598 -172 681 -172 c 0,24,25
 725 -172 725 -172 762.5 -166 c 128,-1,26
 800 -160 800 -160 828.5 -151.5 c 128,-1,27
 857 -143 857 -143 875.5 -134.5 c 128,-1,28
 894 -126 894 -126 901 -120 c 1,29,-1
 901 -346 l 1,30,31
 882 -357 882 -357 825.5 -369.5 c 128,-1,32
 769 -382 769 -382 681 -382 c 0,33,34
 555 -382 555 -382 458 -348 c 128,-1,35
 361 -314 361 -314 290 -253 c 128,-1,36
 219 -192 219 -192 171 -107 c 128,-1,37
 123 -22 123 -22 94 80.5 c 128,-1,38
 65 183 65 183 52.5 300 c 128,-1,39
 40 417 40 417 40 541 c 0,40,41
 40 668 40 668 61 786 c 128,-1,42
 82 904 82 904 122 1006 c 128,-1,43
 162 1108 162 1108 218.5 1191.5 c 128,-1,44
 275 1275 275 1275 346.5 1335 c 128,-1,45
 418 1395 418 1395 502.5 1427.5 c 128,-1,46
 587 1460 587 1460 682 1460 c 0,47,48
 783 1460 783 1460 865 1428 c 128,-1,49
 947 1396 947 1396 1011 1338 c 128,-1,50
 1075 1280 1075 1280 1121.5 1199 c 128,-1,51
 1168 1118 1168 1118 1198.5 1019.5 c 128,-1,52
 1229 921 1229 921 1243.5 808.5 c 128,-1,53
 1258 696 1258 696 1258 576 c 0,54,55
 1258 497 1258 497 1253.5 421 c 128,-1,56
 1249 345 1249 345 1236.5 277 c 128,-1,57
 1224 209 1224 209 1202 152.5 c 128,-1,58
 1180 96 1180 96 1145.5 55 c 128,-1,59
 1111 14 1111 14 1062.5 -9 c 128,-1,60
 1014 -32 1014 -32 948 -32 c 0,61,62
 892 -32 892 -32 851 -15 c 128,-1,63
 810 2 810 2 783 24.5 c 128,-1,64
 756 47 756 47 743 69 c 128,-1,65
 730 91 730 91 730 100 c 1,66,-1
 696 1 l 1,67,-1
 672 -8 l 2,68,69
 660 -12 660 -12 642 -14.5 c 128,-1,70
 624 -17 624 -17 601 -17 c 0,71,72
 541 -17 541 -17 500.5 14.5 c 128,-1,73
 460 46 460 46 435.5 95 c 128,-1,74
 411 144 411 144 400 204 c 128,-1,75
 389 264 389 264 387 321.5 c 128,-1,76
 385 379 385 379 389.5 427 c 128,-1,77
 394 475 394 475 401 500 c 0,78,79
 413 537 413 537 432.5 573 c 128,-1,80
 452 609 452 609 483.5 637 c 128,-1,81
 515 665 515 665 560.5 682.5 c 128,-1,82
 606 700 606 700 670 700 c 2,83,-1
 690 700 l 1,84,-1
 690 800 l 2,85,86
 690 825 690 825 676 837 c 128,-1,87
 662 849 662 849 640 852 c 128,-1,88
 618 855 618 855 590.5 851 c 128,-1,89
 563 847 563 847 536.5 840 c 128,-1,90
 510 833 510 833 487 824.5 c 128,-1,91
 464 816 464 816 451 810 c 1,92,-1
 451 986 l 1,93,94
 472 1000 472 1000 509 1013 c 0,95,96
 538 1023 538 1023 583 1031.5 c 128,-1,97
 628 1040 628 1040 691 1040 c 0,98,99
 733 1040 733 1040 771 1031.5 c 128,-1,100
 809 1023 809 1023 838 1000.5 c 128,-1,101
 867 978 867 978 884 940 c 128,-1,102
 901 902 901 902 901 844 c 2,103,-1
 901 283 l 2,104,105
 902 259 902 259 907 241 c 0,106,107
 912 225 912 225 922 212.5 c 128,-1,108
 932 200 932 200 951 200 c 0,109,110
 976 200 976 200 991 232 c 128,-1,111
 1006 264 1006 264 1014 310.5 c 128,-1,112
 1022 357 1022 357 1024.5 408.5 c 128,-1,113
 1027 460 1027 460 1027 500 c 2,114,-1
 1027 534 l 2,115,116
 1027 713 1027 713 1001 845.5 c 128,-1,117
 975 978 975 978 929 1066 c 128,-1,118
 883 1154 883 1154 819.5 1197 c 128,-1,119
 756 1240 756 1240 681 1240 c 256,120,121
 606 1240 606 1240 533 1197 c 128,-1,122
 460 1154 460 1154 403 1066 c 128,-1,123
 346 978 346 978 310.5 845.5 c 128,-1,124
 275 713 275 713 275 534 c 2,125,-1
 275 500 l 2,17,18
EndSplineSet
Validated: 33
EndChar

StartChar: A
Encoding: 65 65 34
Width: 1300
GlyphClass: 1
Flags: W
LayerCount: 2
Fore
SplineSet
50 0 m 1,0,-1
 405 1284 l 1,1,-1
 441 1500 l 1,2,-1
 819 1520 l 1,3,-1
 1250 0 l 1,4,-1
 916 0 l 1,5,-1
 812 427 l 1,6,-1
 470 427 l 1,7,-1
 369 0 l 1,8,-1
 50 0 l 1,0,-1
643 1331 m 1,9,-1
 604 990 l 1,10,-1
 529 646 l 1,11,-1
 753 646 l 1,12,-1
 681 990 l 1,13,-1
 643 1331 l 1,9,-1
EndSplineSet
Validated: 1
EndChar

StartChar: B
Encoding: 66 66 35
Width: 1300
GlyphClass: 1
Flags: W
LayerCount: 2
Fore
SplineSet
472 1130 m 1,0,-1
 472 900 l 1,1,-1
 501 900 l 2,2,3
 548 900 548 900 595.5 913 c 128,-1,4
 643 926 643 926 681 953.5 c 128,-1,5
 719 981 719 981 743 1024 c 128,-1,6
 767 1067 767 1067 767 1128 c 0,7,8
 767 1183 767 1183 744 1218 c 128,-1,9
 721 1253 721 1253 685 1272 c 128,-1,10
 649 1291 649 1291 605.5 1298 c 128,-1,11
 562 1305 562 1305 521 1305 c 0,12,13
 507 1305 507 1305 489 1304 c 128,-1,14
 471 1303 471 1303 456 1301 c 1,15,-1
 472 1130 l 1,0,-1
121 0 m 1,16,-1
 121 1262 l 1,17,-1
 89 1489 l 1,18,19
 132 1495 132 1495 183 1500 c 128,-1,20
 234 1505 234 1505 284.5 1509 c 128,-1,21
 335 1513 335 1513 381 1515 c 128,-1,22
 427 1517 427 1517 460 1517 c 0,23,24
 580 1517 580 1517 692 1500.5 c 128,-1,25
 804 1484 804 1484 890.5 1442 c 128,-1,26
 977 1400 977 1400 1029 1328.5 c 128,-1,27
 1081 1257 1081 1257 1081 1148 c 0,28,29
 1081 1094 1081 1094 1065.5 1046 c 128,-1,30
 1050 998 1050 998 1022.5 957 c 128,-1,31
 995 916 995 916 955.5 883 c 128,-1,32
 916 850 916 850 868 826 c 1,33,34
 932 804 932 804 988.5 773 c 128,-1,35
 1045 742 1045 742 1087 699 c 128,-1,36
 1129 656 1129 656 1153 600.5 c 128,-1,37
 1177 545 1177 545 1177 475 c 0,38,39
 1177 387 1177 387 1152 317.5 c 128,-1,40
 1127 248 1127 248 1084.5 195.5 c 128,-1,41
 1042 143 1042 143 984 105.5 c 128,-1,42
 926 68 926 68 860.5 44.5 c 128,-1,43
 795 21 795 21 724.5 10.5 c 128,-1,44
 654 0 654 0 586 0 c 2,45,-1
 121 0 l 1,16,-1
472 228 m 1,46,-1
 529 228 l 2,47,48
 604 228 604 228 662.5 239.5 c 128,-1,49
 721 251 721 251 761.5 279 c 128,-1,50
 802 307 802 307 823.5 352 c 128,-1,51
 845 397 845 397 845 465 c 0,52,53
 845 529 845 529 824 573 c 128,-1,54
 803 617 803 617 766 643.5 c 128,-1,55
 729 670 729 670 678 681.5 c 128,-1,56
 627 693 627 693 567 693 c 2,57,-1
 472 693 l 1,58,-1
 472 228 l 1,46,-1
EndSplineSet
Validated: 1
EndChar

StartChar: C
Encoding: 67 67 36
Width: 1300
GlyphClass: 1
Flags: W
LayerCount: 2
Fore
SplineSet
1220 133 m 1,0,1
 1118 52 1118 52 1006.5 17.5 c 128,-1,2
 895 -17 895 -17 764 -17 c 0,3,4
 609 -17 609 -17 486 45.5 c 128,-1,5
 363 108 363 108 277 215 c 128,-1,6
 191 322 191 322 145.5 465 c 128,-1,7
 100 608 100 608 100 769 c 0,8,9
 100 870 100 870 117 964.5 c 128,-1,10
 134 1059 134 1059 169 1142.5 c 128,-1,11
 204 1226 204 1226 258 1294.5 c 128,-1,12
 312 1363 312 1363 386.5 1412.5 c 128,-1,13
 461 1462 461 1462 556 1489.5 c 128,-1,14
 651 1517 651 1517 768 1517 c 0,15,16
 898 1517 898 1517 1015 1473 c 128,-1,17
 1132 1429 1132 1429 1220 1344 c 1,18,-1
 1072 1160 l 1,19,20
 1039 1182 1039 1182 1002.5 1202 c 128,-1,21
 966 1222 966 1222 929 1237 c 128,-1,22
 892 1252 892 1252 855 1261 c 128,-1,23
 818 1270 818 1270 784 1270 c 0,24,25
 689 1270 689 1270 625 1231 c 128,-1,26
 561 1192 561 1192 522 1124.5 c 128,-1,27
 483 1057 483 1057 466.5 966 c 128,-1,28
 450 875 450 875 450 772 c 0,29,30
 450 711 450 711 458.5 647.5 c 128,-1,31
 467 584 467 584 484.5 524 c 128,-1,32
 502 464 502 464 529.5 411 c 128,-1,33
 557 358 557 358 594.5 318.5 c 128,-1,34
 632 279 632 279 680 256 c 128,-1,35
 728 233 728 233 788 233 c 0,36,37
 822 233 822 233 855 238.5 c 128,-1,38
 888 244 888 244 924.5 256.5 c 128,-1,39
 961 269 961 269 1004 289.5 c 128,-1,40
 1047 310 1047 310 1101 340 c 1,41,-1
 1220 133 l 1,0,1
EndSplineSet
Validated: 1
EndChar

StartChar: D
Encoding: 68 68 37
Width: 1300
GlyphClass: 1
Flags: W
LayerCount: 2
Fore
SplineSet
66 1500 m 1,0,1
 115 1505 115 1505 170 1508 c 128,-1,2
 225 1511 225 1511 278.5 1513 c 128,-1,3
 332 1515 332 1515 379.5 1516 c 128,-1,4
 427 1517 427 1517 460 1517 c 0,5,6
 628 1517 628 1517 770.5 1476.5 c 128,-1,7
 913 1436 913 1436 1017 1350 c 128,-1,8
 1121 1264 1121 1264 1180 1129.5 c 128,-1,9
 1239 995 1239 995 1239 807 c 0,10,11
 1239 662 1239 662 1210 545.5 c 128,-1,12
 1181 429 1181 429 1128.5 339.5 c 128,-1,13
 1076 250 1076 250 1003 185.5 c 128,-1,14
 930 121 930 121 842.5 80 c 128,-1,15
 755 39 755 39 656 19.5 c 128,-1,16
 557 0 557 0 452 0 c 2,17,-1
 100 0 l 1,18,-1
 100 1262 l 1,19,-1
 66 1500 l 1,0,1
451 1121 m 1,20,-1
 451 250 l 1,21,22
 556 250 556 250 629 275.5 c 128,-1,23
 702 301 702 301 751 343.5 c 128,-1,24
 800 386 800 386 827 441 c 128,-1,25
 854 496 854 496 868 554.5 c 128,-1,26
 882 613 882 613 885 671 c 128,-1,27
 888 729 888 729 888 778 c 0,28,29
 888 890 888 890 870.5 983 c 128,-1,30
 853 1076 853 1076 805 1143 c 128,-1,31
 757 1210 757 1210 672 1246.5 c 128,-1,32
 587 1283 587 1283 452 1283 c 0,33,34
 449 1283 449 1283 445.5 1282.5 c 128,-1,35
 442 1282 442 1282 438 1282 c 2,36,-1
 430 1282 l 1,37,-1
 451 1121 l 1,20,-1
EndSplineSet
Validated: 1
EndChar

StartChar: E
Encoding: 69 69 38
Width: 1300
GlyphClass: 1
Flags: W
LayerCount: 2
Fore
SplineSet
1137 228 m 1,0,-1
 1110 0 l 1,1,-1
 150 0 l 1,2,-1
 167 231 l 1,3,-1
 167 1263 l 1,4,-1
 132 1500 l 1,5,-1
 1100 1500 l 1,6,-1
 1100 1272 l 1,7,-1
 503 1272 l 1,8,-1
 518 1134 l 1,9,-1
 518 916 l 1,10,-1
 1034 916 l 1,11,-1
 1034 703 l 1,12,-1
 518 703 l 1,13,-1
 518 360 l 1,14,-1
 510 228 l 1,15,-1
 1137 228 l 1,0,-1
EndSplineSet
Validated: 1
EndChar

StartChar: F
Encoding: 70 70 39
Width: 1300
GlyphClass: 1
Flags: W
LayerCount: 2
Fore
SplineSet
551 0 m 1,0,-1
 200 0 l 1,1,-1
 200 1263 l 1,2,-1
 165 1500 l 1,3,-1
 1167 1500 l 1,4,-1
 1140 1272 l 1,5,-1
 536 1272 l 1,6,-1
 551 1134 l 1,7,-1
 551 916 l 1,8,-1
 1064 916 l 1,9,-1
 1064 703 l 1,10,-1
 551 703 l 1,11,-1
 551 0 l 1,0,-1
EndSplineSet
Validated: 1
EndChar

StartChar: G
Encoding: 71 71 40
Width: 1300
GlyphClass: 1
Flags: W
LayerCount: 2
Fore
SplineSet
1251 221 m 1,0,1
 1206 171 1206 171 1150 127.5 c 128,-1,2
 1094 84 1094 84 1026 52 c 128,-1,3
 958 20 958 20 878.5 1.5 c 128,-1,4
 799 -17 799 -17 708 -17 c 0,5,6
 553 -17 553 -17 430 45.5 c 128,-1,7
 307 108 307 108 221 215 c 128,-1,8
 135 322 135 322 89.5 465 c 128,-1,9
 44 608 44 608 44 769 c 0,10,11
 44 870 44 870 62 964.5 c 128,-1,12
 80 1059 80 1059 117 1142.5 c 128,-1,13
 154 1226 154 1226 210.5 1294.5 c 128,-1,14
 267 1363 267 1363 343 1412.5 c 128,-1,15
 419 1462 419 1462 515.5 1489.5 c 128,-1,16
 612 1517 612 1517 730 1517 c 0,17,18
 860 1517 860 1517 977 1473 c 128,-1,19
 1094 1429 1094 1429 1182 1344 c 1,20,-1
 1034 1170 l 1,21,22
 1001 1192 1001 1192 965 1212 c 128,-1,23
 929 1232 929 1232 891.5 1247 c 128,-1,24
 854 1262 854 1262 817 1271 c 128,-1,25
 780 1280 780 1280 745 1280 c 0,26,27
 650 1280 650 1280 583.5 1239.5 c 128,-1,28
 517 1199 517 1199 475 1129.5 c 128,-1,29
 433 1060 433 1060 414 967.5 c 128,-1,30
 395 875 395 875 395 772 c 0,31,32
 395 711 395 711 403.5 646.5 c 128,-1,33
 412 582 412 582 429.5 520.5 c 128,-1,34
 447 459 447 459 474.5 405 c 128,-1,35
 502 351 502 351 539.5 310 c 128,-1,36
 577 269 577 269 625 245 c 128,-1,37
 673 221 673 221 733 221 c 0,38,39
 758 221 758 221 784.5 227 c 128,-1,40
 811 233 811 233 835.5 242.5 c 128,-1,41
 860 252 860 252 881.5 264 c 128,-1,42
 903 276 903 276 919 289 c 1,43,-1
 919 616 l 1,44,-1
 625 635 l 1,45,-1
 625 840 l 1,46,-1
 1251 840 l 1,47,-1
 1251 221 l 1,0,1
EndSplineSet
Validated: 1
EndChar

StartChar: H
Encoding: 72 72 41
Width: 1300
GlyphClass: 1
Flags: W
LayerCount: 2
Fore
SplineSet
872 0 m 1,0,-1
 872 688 l 1,1,-1
 426 688 l 1,2,-1
 426 0 l 1,3,-1
 79 0 l 1,4,-1
 79 1263 l 1,5,-1
 48 1500 l 1,6,-1
 426 1520 l 1,7,-1
 426 916 l 1,8,-1
 872 916 l 1,9,-1
 872 1500 l 1,10,-1
 1218 1520 l 1,11,-1
 1218 0 l 1,12,-1
 872 0 l 1,0,-1
EndSplineSet
Validated: 1
EndChar

StartChar: I
Encoding: 73 73 42
Width: 1300
GlyphClass: 1
Flags: W
LayerCount: 2
Fore
SplineSet
183 1500 m 1,0,-1
 1061 1500 l 1,1,-1
 1061 1272 l 1,2,-1
 788 1272 l 1,3,-1
 788 228 l 1,4,-1
 1089 228 l 1,5,-1
 1054 0 l 1,6,-1
 176 0 l 1,7,-1
 176 228 l 1,8,-1
 454 228 l 1,9,-1
 454 1272 l 1,10,-1
 148 1272 l 1,11,-1
 183 1500 l 1,0,-1
EndSplineSet
Validated: 1
EndChar

StartChar: J
Encoding: 74 74 43
Width: 1300
GlyphClass: 1
Flags: W
LayerCount: 2
Fore
SplineSet
338 1500 m 1,0,-1
 1110 1500 l 1,1,-1
 1110 446 l 2,2,3
 1110 261 1110 261 994 121 c 0,4,5
 967 88 967 88 927.5 62.5 c 128,-1,6
 888 37 888 37 840 19.5 c 128,-1,7
 792 2 792 2 736.5 -7.5 c 128,-1,8
 681 -17 681 -17 623 -17 c 0,9,10
 526 -17 526 -17 452.5 0.5 c 128,-1,11
 379 18 379 18 323 48 c 128,-1,12
 267 78 267 78 224.5 117 c 128,-1,13
 182 156 182 156 146 200 c 1,14,-1
 300 400 l 1,15,16
 315 382 315 382 339 355.5 c 128,-1,17
 363 329 363 329 398 304.5 c 128,-1,18
 433 280 433 280 481 262 c 128,-1,19
 529 244 529 244 592 244 c 0,20,21
 622 244 622 244 652 253.5 c 128,-1,22
 682 263 682 263 705.5 286 c 128,-1,23
 729 309 729 309 744 347.5 c 128,-1,24
 759 386 759 386 759 444 c 2,25,-1
 759 1132 l 1,26,-1
 779 1266 l 1,27,-1
 358 1266 l 1,28,-1
 338 1500 l 1,0,-1
EndSplineSet
Validated: 1
EndChar

StartChar: K
Encoding: 75 75 44
Width: 1300
GlyphClass: 1
Flags: W
LayerCount: 2
Fore
SplineSet
122 0 m 1,0,-1
 122 1263 l 1,1,-1
 89 1500 l 1,2,-1
 473 1520 l 1,3,-1
 473 1035 l 1,4,-1
 864 1500 l 1,5,-1
 1232 1500 l 1,6,-1
 733 900 l 1,7,-1
 500 800 l 1,8,-1
 723 716 l 1,9,-1
 1253 0 l 1,10,-1
 873 0 l 1,11,-1
 473 540 l 1,12,-1
 473 0 l 1,13,-1
 122 0 l 1,0,-1
EndSplineSet
Validated: 1
EndChar

StartChar: L
Encoding: 76 76 45
Width: 1300
GlyphClass: 1
Flags: W
LayerCount: 2
Fore
SplineSet
463 228 m 1,0,-1
 1153 228 l 1,1,-1
 1126 0 l 1,2,-1
 100 0 l 1,3,-1
 123 232 l 1,4,-1
 123 1263 l 1,5,-1
 89 1500 l 1,6,-1
 471 1520 l 1,7,-1
 471 360 l 1,8,-1
 463 228 l 1,0,-1
EndSplineSet
Validated: 1
EndChar

StartChar: M
Encoding: 77 77 46
Width: 1300
GlyphClass: 1
Flags: W
LayerCount: 2
Fore
SplineSet
883 0 m 1,0,-1
 883 449 l 1,1,-1
 990 1200 l 1,2,-1
 980 1200 l 1,3,-1
 843 700 l 1,4,-1
 755 475 l 1,5,-1
 544 475 l 1,6,-1
 459 700 l 1,7,-1
 320 1200 l 1,8,-1
 310 1200 l 1,9,-1
 422 449 l 1,10,-1
 422 0 l 1,11,-1
 100 0 l 1,12,-1
 100 1263 l 1,13,-1
 69 1500 l 1,14,-1
 409 1520 l 1,15,-1
 600 1079 l 1,16,-1
 651 800 l 1,17,-1
 700 1082 l 1,18,-1
 870 1500 l 1,19,-1
 1206 1520 l 1,20,-1
 1206 0 l 1,21,-1
 883 0 l 1,0,-1
EndSplineSet
Validated: 1
EndChar

StartChar: N
Encoding: 78 78 47
Width: 1300
GlyphClass: 1
Flags: W
LayerCount: 2
Fore
SplineSet
884 0 m 1,0,-1
 400 950 l 1,1,-1
 390 950 l 1,2,-1
 452 649 l 1,3,-1
 452 0 l 1,4,-1
 129 0 l 1,5,-1
 129 1263 l 1,6,-1
 96 1500 l 1,7,-1
 422 1520 l 1,8,-1
 900 600 l 1,9,-1
 910 600 l 1,10,-1
 851 852 l 1,11,-1
 851 1500 l 1,12,-1
 1173 1520 l 1,13,-1
 1173 0 l 1,14,-1
 884 0 l 1,0,-1
EndSplineSet
Validated: 1
EndChar

StartChar: O
Encoding: 79 79 48
Width: 1300
GlyphClass: 1
Flags: W
LayerCount: 2
Fore
SplineSet
649 -17 m 0,0,1
 551 -17 551 -17 468.5 10.5 c 128,-1,2
 386 38 386 38 319.5 88.5 c 128,-1,3
 253 139 253 139 202.5 209 c 128,-1,4
 152 279 152 279 118 364.5 c 128,-1,5
 84 450 84 450 67 547.5 c 128,-1,6
 50 645 50 645 50 750 c 0,7,8
 50 907 50 907 87 1047 c 128,-1,9
 124 1187 124 1187 198.5 1291 c 128,-1,10
 273 1395 273 1395 385.5 1456 c 128,-1,11
 498 1517 498 1517 649 1517 c 0,12,13
 796 1517 796 1517 907.5 1456 c 128,-1,14
 1019 1395 1019 1395 1094.5 1291 c 128,-1,15
 1170 1187 1170 1187 1208.5 1047 c 128,-1,16
 1247 907 1247 907 1247 750 c 0,17,18
 1247 645 1247 645 1230.5 547.5 c 128,-1,19
 1214 450 1214 450 1181 364.5 c 128,-1,20
 1148 279 1148 279 1098.5 209 c 128,-1,21
 1049 139 1049 139 982.5 88.5 c 128,-1,22
 916 38 916 38 832.5 10.5 c 128,-1,23
 749 -17 749 -17 649 -17 c 0,0,1
897 721 m 0,24,25
 897 783 897 783 893.5 848 c 128,-1,26
 890 913 890 913 880.5 974.5 c 128,-1,27
 871 1036 871 1036 853.5 1090.5 c 128,-1,28
 836 1145 836 1145 807.5 1186 c 128,-1,29
 779 1227 779 1227 738.5 1250.5 c 128,-1,30
 698 1274 698 1274 643 1274 c 0,31,32
 591 1274 591 1274 553 1252.5 c 128,-1,33
 515 1231 515 1231 488 1194.5 c 128,-1,34
 461 1158 461 1158 443.5 1109.5 c 128,-1,35
 426 1061 426 1061 416.5 1006.5 c 128,-1,36
 407 952 407 952 403.5 894.5 c 128,-1,37
 400 837 400 837 400 783 c 0,38,39
 400 720 400 720 403.5 654.5 c 128,-1,40
 407 589 407 589 417 527 c 128,-1,41
 427 465 427 465 444.5 410.5 c 128,-1,42
 462 356 462 356 490 315 c 128,-1,43
 518 274 518 274 558.5 250 c 128,-1,44
 599 226 599 226 654 226 c 0,45,46
 706 226 706 226 744 247.5 c 128,-1,47
 782 269 782 269 809 306.5 c 128,-1,48
 836 344 836 344 853 393 c 128,-1,49
 870 442 870 442 880 497 c 128,-1,50
 890 552 890 552 893.5 609.5 c 128,-1,51
 897 667 897 667 897 721 c 0,24,25
EndSplineSet
Validated: 1
EndChar

StartChar: P
Encoding: 80 80 49
Width: 1300
GlyphClass: 1
Flags: W
LayerCount: 2
Fore
SplineSet
494 0 m 1,0,-1
 162 0 l 1,1,-1
 162 1262 l 1,2,3
 158 1285 158 1285 153 1314 c 128,-1,4
 148 1343 148 1343 143 1373 c 128,-1,5
 138 1403 138 1403 133 1432 c 128,-1,6
 128 1461 128 1461 124 1484 c 1,7,8
 169 1491 169 1491 222 1497 c 128,-1,9
 275 1503 275 1503 328.5 1507.5 c 128,-1,10
 382 1512 382 1512 432 1514.5 c 128,-1,11
 482 1517 482 1517 520 1517 c 0,12,13
 701 1517 701 1517 832.5 1484.5 c 128,-1,14
 964 1452 964 1452 1049.5 1394 c 128,-1,15
 1135 1336 1135 1336 1176 1256 c 128,-1,16
 1217 1176 1217 1176 1217 1081 c 0,17,18
 1217 950 1217 950 1171.5 857 c 128,-1,19
 1126 764 1126 764 1035.5 704.5 c 128,-1,20
 945 645 945 645 809.5 616 c 128,-1,21
 674 587 674 587 494 583 c 1,22,-1
 494 0 l 1,0,-1
494 1121 m 1,23,-1
 494 813 l 1,24,25
 598 817 598 817 672 832.5 c 128,-1,26
 746 848 746 848 793 878.5 c 128,-1,27
 840 909 840 909 862 958 c 128,-1,28
 884 1007 884 1007 884 1078 c 0,29,30
 884 1132 884 1132 854 1172.5 c 128,-1,31
 824 1213 824 1213 777.5 1239.5 c 128,-1,32
 731 1266 731 1266 674 1279 c 128,-1,33
 617 1292 617 1292 563 1292 c 2,34,-1
 539 1292 l 2,35,36
 529 1292 529 1292 520 1291.5 c 128,-1,37
 511 1291 511 1291 501 1290.5 c 128,-1,38
 491 1290 491 1290 478 1289 c 1,39,-1
 494 1121 l 1,23,-1
EndSplineSet
Validated: 1
EndChar

StartChar: Q
Encoding: 81 81 50
Width: 1300
GlyphClass: 1
Flags: W
LayerCount: 2
Fore
SplineSet
1200 -180 m 1,0,1
 1104 -180 1104 -180 1033 -169.5 c 128,-1,2
 962 -159 962 -159 904.5 -129 c 128,-1,3
 847 -99 847 -99 798.5 -44 c 128,-1,4
 750 11 750 11 700 100 c 1,5,-1
 700 -11 l 1,6,7
 649 -17 649 -17 602 -17 c 0,8,9
 465 -17 465 -17 362 46.5 c 128,-1,10
 259 110 259 110 190 216.5 c 128,-1,11
 121 323 121 323 86 461.5 c 128,-1,12
 51 600 51 600 51 750 c 0,13,14
 51 907 51 907 88 1047 c 128,-1,15
 125 1187 125 1187 199.5 1291 c 128,-1,16
 274 1395 274 1395 386.5 1456 c 128,-1,17
 499 1517 499 1517 650 1517 c 0,18,19
 797 1517 797 1517 908.5 1461 c 128,-1,20
 1020 1405 1020 1405 1095.5 1306.5 c 128,-1,21
 1171 1208 1171 1208 1209.5 1073 c 128,-1,22
 1248 938 1248 938 1248 780 c 0,23,24
 1248 688 1248 688 1232 592.5 c 128,-1,25
 1216 497 1216 497 1184 410 c 128,-1,26
 1152 323 1152 323 1103.5 249.5 c 128,-1,27
 1055 176 1055 176 990 127 c 1,28,29
 1008 97 1008 97 1033 81 c 128,-1,30
 1058 65 1058 65 1086 58.5 c 128,-1,31
 1114 52 1114 52 1143.5 51 c 128,-1,32
 1173 50 1173 50 1200 50 c 1,33,-1
 1200 -180 l 1,0,1
393 783 m 0,34,35
 394 723 394 723 396 659.5 c 128,-1,36
 398 596 398 596 405.5 535.5 c 128,-1,37
 413 475 413 475 427.5 421 c 128,-1,38
 442 367 442 367 468 326.5 c 128,-1,39
 494 286 494 286 534 262.5 c 128,-1,40
 574 239 574 239 632 239 c 1,41,42
 620 261 620 261 601 298 c 2,43,-1
 563 374 l 2,44,45
 544 413 544 413 527 447.5 c 128,-1,46
 510 482 510 482 500 500 c 1,47,-1
 727 601 l 1,48,-1
 877 300 l 1,49,-1
 877 500 l 1,50,51
 887 548 887 548 896.5 609 c 128,-1,52
 906 670 906 670 906 751 c 0,53,54
 906 813 906 813 901 876 c 128,-1,55
 896 939 896 939 884.5 997.5 c 128,-1,56
 873 1056 873 1056 853.5 1107.5 c 128,-1,57
 834 1159 834 1159 805 1197 c 128,-1,58
 776 1235 776 1235 736 1257 c 128,-1,59
 696 1279 696 1279 644 1279 c 0,60,61
 595 1279 595 1279 557 1257.5 c 128,-1,62
 519 1236 519 1236 491 1199 c 128,-1,63
 463 1162 463 1162 444.5 1112.5 c 128,-1,64
 426 1063 426 1063 414.5 1008 c 128,-1,65
 403 953 403 953 398 895 c 128,-1,66
 393 837 393 837 393 783 c 0,34,35
EndSplineSet
Validated: 1
EndChar

StartChar: R
Encoding: 82 82 51
Width: 1300
GlyphClass: 1
Flags: W
LayerCount: 2
Fore
SplineSet
449 600 m 1,0,-1
 449 0 l 1,1,-1
 124 0 l 1,2,-1
 124 1262 l 1,3,-1
 86 1488 l 1,4,5
 176 1498 176 1498 275.5 1507.5 c 128,-1,6
 375 1517 375 1517 465 1517 c 0,7,8
 601 1517 601 1517 716.5 1488.5 c 128,-1,9
 832 1460 832 1460 916.5 1404.5 c 128,-1,10
 1001 1349 1001 1349 1048.5 1267.5 c 128,-1,11
 1096 1186 1096 1186 1096 1081 c 0,12,13
 1096 992 1096 992 1067.5 918.5 c 128,-1,14
 1039 845 1039 845 987.5 787 c 128,-1,15
 936 729 936 729 863 688 c 128,-1,16
 790 647 790 647 700 624 c 1,17,-1
 792 600 l 1,18,-1
 1200 0 l 1,19,-1
 835 0 l 1,20,-1
 449 600 l 1,0,-1
449 1121 m 1,21,-1
 449 800 l 1,22,-1
 485 800 l 2,23,24
 553 800 553 800 605.5 821.5 c 128,-1,25
 658 843 658 843 694 879.5 c 128,-1,26
 730 916 730 916 748.5 964.5 c 128,-1,27
 767 1013 767 1013 767 1066 c 0,28,29
 767 1136 767 1136 741 1181 c 128,-1,30
 715 1226 715 1226 674.5 1251.5 c 128,-1,31
 634 1277 634 1277 584.5 1286.5 c 128,-1,32
 535 1296 535 1296 489 1296 c 0,33,34
 473 1296 473 1296 459 1295.5 c 128,-1,35
 445 1295 445 1295 433 1294 c 1,36,-1
 449 1121 l 1,21,-1
EndSplineSet
Validated: 1
EndChar

StartChar: S
Encoding: 83 83 52
Width: 1300
GlyphClass: 1
Flags: W
LayerCount: 2
Fore
SplineSet
973 1178 m 1,0,1
 927 1205 927 1205 889.5 1223.5 c 128,-1,2
 852 1242 852 1242 820 1253 c 128,-1,3
 788 1264 788 1264 759.5 1269 c 128,-1,4
 731 1274 731 1274 703 1274 c 0,5,6
 666 1274 666 1274 629.5 1267 c 128,-1,7
 593 1260 593 1260 564 1243 c 128,-1,8
 535 1226 535 1226 517 1197 c 128,-1,9
 499 1168 499 1168 499 1125 c 0,10,11
 499 1084 499 1084 519.5 1054.5 c 128,-1,12
 540 1025 540 1025 573.5 1002 c 128,-1,13
 607 979 607 979 649.5 960 c 128,-1,14
 692 941 692 941 736 921 c 0,15,16
 811 886 811 886 888 845.5 c 128,-1,17
 965 805 965 805 1027 750 c 128,-1,18
 1089 695 1089 695 1128.5 621.5 c 128,-1,19
 1168 548 1168 548 1168 448 c 0,20,21
 1168 332 1168 332 1120 245 c 128,-1,22
 1072 158 1072 158 992.5 100 c 128,-1,23
 913 42 913 42 809.5 12.5 c 128,-1,24
 706 -17 706 -17 596 -17 c 0,25,26
 470 -17 470 -17 363.5 18.5 c 128,-1,27
 257 54 257 54 150 121 c 1,28,-1
 288 348 l 1,29,30
 315 330 315 330 352 310 c 128,-1,31
 389 290 389 290 430.5 273.5 c 128,-1,32
 472 257 472 257 514 246.5 c 128,-1,33
 556 236 556 236 594 236 c 0,34,35
 638 236 638 236 681 245.5 c 128,-1,36
 724 255 724 255 757.5 277.5 c 128,-1,37
 791 300 791 300 811.5 337 c 128,-1,38
 832 374 832 374 832 430 c 0,39,40
 832 484 832 484 807.5 523 c 128,-1,41
 783 562 783 562 743.5 591.5 c 128,-1,42
 704 621 704 621 654 645 c 128,-1,43
 604 669 604 669 553 693 c 0,44,45
 481 727 481 727 413 765 c 128,-1,46
 345 803 345 803 291.5 851 c 128,-1,47
 238 899 238 899 205.5 959 c 128,-1,48
 173 1019 173 1019 173 1097 c 0,49,50
 173 1198 173 1198 216 1276.5 c 128,-1,51
 259 1355 259 1355 330 1408.5 c 128,-1,52
 401 1462 401 1462 492 1489.5 c 128,-1,53
 583 1517 583 1517 679 1517 c 0,54,55
 797 1517 797 1517 904 1480.5 c 128,-1,56
 1011 1444 1011 1444 1123 1369 c 1,57,-1
 973 1178 l 1,0,1
EndSplineSet
Validated: 1
EndChar

StartChar: T
Encoding: 84 84 53
Width: 1300
GlyphClass: 1
Flags: W
LayerCount: 2
Fore
SplineSet
469 0 m 1,0,-1
 469 1272 l 1,1,-1
 66 1272 l 1,2,-1
 66 1500 l 1,3,-1
 1200 1500 l 1,4,-1
 1200 1272 l 1,5,-1
 802 1272 l 1,6,-1
 802 0 l 1,7,-1
 469 0 l 1,0,-1
EndSplineSet
Validated: 1
EndChar

StartChar: U
Encoding: 85 85 54
Width: 1300
GlyphClass: 1
Flags: W
LayerCount: 2
Fore
SplineSet
1160 1500 m 1,0,-1
 1160 534 l 2,1,2
 1160 395 1160 395 1123 291.5 c 128,-1,3
 1086 188 1086 188 1016 119.5 c 128,-1,4
 946 51 946 51 845.5 17 c 128,-1,5
 745 -17 745 -17 619 -17 c 0,6,7
 483 -17 483 -17 389 26 c 128,-1,8
 295 69 295 69 236.5 148 c 128,-1,9
 178 227 178 227 152 337.5 c 128,-1,10
 126 448 126 448 126 582 c 2,11,-1
 126 1263 l 1,12,-1
 92 1500 l 1,13,-1
 458 1520 l 1,14,-1
 458 564 l 2,15,16
 458 483 458 483 464.5 419 c 128,-1,17
 471 355 471 355 491.5 311 c 128,-1,18
 512 267 512 267 549.5 244 c 128,-1,19
 587 221 587 221 650 221 c 0,20,21
 700 221 700 221 734 239.5 c 128,-1,22
 768 258 768 258 789 295 c 128,-1,23
 810 332 810 332 819 387 c 128,-1,24
 828 442 828 442 828 516 c 2,25,-1
 828 1500 l 1,26,-1
 1160 1500 l 1,0,-1
EndSplineSet
Validated: 1
EndChar

StartChar: V
Encoding: 86 86 55
Width: 1300
GlyphClass: 1
Flags: W
LayerCount: 2
Fore
SplineSet
1281 1500 m 1,0,-1
 868 200 l 1,1,-1
 840 -17 l 1,2,-1
 488 0 l 1,3,-1
 15 1500 l 1,4,-1
 337 1520 l 1,5,-1
 590 700 l 1,6,-1
 643 260 l 1,7,-1
 713 700 l 1,8,-1
 961 1500 l 1,9,-1
 1281 1500 l 1,0,-1
EndSplineSet
Validated: 1
EndChar

StartChar: W
Encoding: 87 87 56
Width: 1300
GlyphClass: 1
Flags: W
LayerCount: 2
Fore
SplineSet
305 1520 m 1,0,-1
 418 959 l 1,1,-1
 426 400 l 1,2,-1
 436 400 l 1,3,-1
 479 701 l 1,4,-1
 530 1000 l 1,5,-1
 756 1000 l 1,6,-1
 813 701 l 1,7,-1
 865 400 l 1,8,-1
 875 400 l 1,9,-1
 873 957 l 1,10,-1
 975 1500 l 1,11,-1
 1266 1500 l 1,12,-1
 998 0 l 1,13,-1
 745 0 l 1,14,-1
 684 300 l 1,15,-1
 644 650 l 1,16,-1
 603 300 l 1,17,-1
 541 0 l 1,18,-1
 291 0 l 1,19,20
 255 237 255 237 220 443 c 128,-1,21
 185 649 185 649 151 832.5 c 128,-1,22
 117 1016 117 1016 84.5 1181 c 128,-1,23
 52 1346 52 1346 21 1500 c 1,24,-1
 305 1520 l 1,0,-1
EndSplineSet
Validated: 1
EndChar

StartChar: X
Encoding: 88 88 57
Width: 1300
GlyphClass: 1
Flags: W
LayerCount: 2
Fore
SplineSet
920 0 m 1,0,-1
 608 583 l 1,1,-1
 587 400 l 1,2,-1
 359 0 l 1,3,-1
 16 0 l 1,4,-1
 477 797 l 1,5,6
 430 878 430 878 75 1500 c 1,7,-1
 423 1520 l 1,8,-1
 717 995 l 1,9,-1
 748 1199 l 1,10,-1
 909 1500 l 1,11,-1
 1254 1500 l 1,12,-1
 854 800 l 1,13,-1
 1283 0 l 1,14,-1
 920 0 l 1,0,-1
EndSplineSet
Validated: 1
EndChar

StartChar: Y
Encoding: 89 89 58
Width: 1300
GlyphClass: 1
Flags: W
LayerCount: 2
Fore
SplineSet
571 1143 m 1,0,-1
 678 773 l 1,1,-1
 736 1143 l 1,2,-1
 918 1500 l 1,3,-1
 1253 1500 l 1,4,-1
 820 650 l 1,5,-1
 820 0 l 1,6,-1
 469 0 l 1,7,-1
 469 650 l 1,8,-1
 40 1500 l 1,9,-1
 379 1520 l 1,10,-1
 571 1143 l 1,0,-1
EndSplineSet
Validated: 1
EndChar

StartChar: Z
Encoding: 90 90 59
Width: 1300
GlyphClass: 1
Flags: W
LayerCount: 2
Fore
SplineSet
1156 228 m 1,0,-1
 1183 0 l 1,1,-1
 144 0 l 1,2,-1
 110 86 l 1,3,-1
 651 1187 l 1,4,-1
 789 1300 l 1,5,-1
 658 1272 l 1,6,-1
 200 1272 l 1,7,-1
 173 1500 l 1,8,-1
 1087 1500 l 1,9,-1
 1128 1442 l 1,10,-1
 581 314 l 1,11,-1
 447 200 l 1,12,-1
 580 228 l 1,13,-1
 1156 228 l 1,0,-1
EndSplineSet
Validated: 1
EndChar

StartChar: bracketleft
Encoding: 91 91 60
Width: 1300
GlyphClass: 1
Flags: W
LayerCount: 2
Fore
SplineSet
281 1288 m 1,0,-1
 255 1520 l 1,1,-1
 955 1520 l 1,2,-1
 955 1302 l 1,3,-1
 605 1302 l 1,4,-1
 620 1154 l 1,5,-1
 620 -31 l 1,6,-1
 605 -179 l 1,7,-1
 955 -179 l 1,8,-1
 955 -398 l 1,9,-1
 255 -398 l 1,10,-1
 281 -166 l 1,11,-1
 281 1288 l 1,0,-1
EndSplineSet
Validated: 1
EndChar

StartChar: backslash
Encoding: 92 92 61
Width: 1300
GlyphClass: 1
Flags: W
LayerCount: 2
Fore
SplineSet
93 1600 m 1,0,-1
 435 1600 l 1,1,-1
 1141 -100 l 1,2,-1
 788 -100 l 1,3,-1
 93 1600 l 1,0,-1
EndSplineSet
Validated: 1
EndChar

StartChar: bracketright
Encoding: 93 93 62
Width: 1300
GlyphClass: 1
Flags: W
LayerCount: 2
Fore
SplineSet
1041 -166 m 1,0,-1
 1067 -398 l 1,1,-1
 367 -398 l 1,2,-1
 367 -179 l 1,3,-1
 716 -179 l 1,4,-1
 701 -31 l 1,5,-1
 701 1154 l 1,6,-1
 716 1302 l 1,7,-1
 367 1302 l 1,8,-1
 367 1520 l 1,9,-1
 1067 1520 l 1,10,-1
 1041 1288 l 1,11,-1
 1041 -166 l 1,0,-1
EndSplineSet
Validated: 1
EndChar

StartChar: asciicircum
Encoding: 94 94 63
Width: 1300
GlyphClass: 1
Flags: W
LayerCount: 2
Fore
SplineSet
1250 866 m 1,0,-1
 950 866 l 1,1,-1
 650 1200 l 1,2,-1
 350 868 l 1,3,-1
 50 868 l 1,4,-1
 534 1500 l 1,5,-1
 743 1520 l 1,6,-1
 1250 866 l 1,0,-1
EndSplineSet
Validated: 1
EndChar

StartChar: underscore
Encoding: 95 95 64
Width: 1300
GlyphClass: 1
Flags: W
LayerCount: 2
Fore
SplineSet
100 -200 m 1,0,-1
 1200 -200 l 1,1,-1
 1200 -455 l 1,2,-1
 100 -455 l 1,3,-1
 100 -200 l 1,0,-1
EndSplineSet
Validated: 1
EndChar

StartChar: grave
Encoding: 96 96 65
Width: 1300
GlyphClass: 1
Flags: W
LayerCount: 2
Fore
SplineSet
900 1200 m 1,0,-1
 685 1200 l 1,1,-1
 400 1520 l 1,2,-1
 737 1500 l 1,3,-1
 900 1200 l 1,0,-1
EndSplineSet
Validated: 1
EndChar

StartChar: a
Encoding: 97 97 66
Width: 1300
GlyphClass: 1
Flags: W
LayerCount: 2
Fore
SplineSet
1135 0 m 1,0,-1
 795 0 l 1,1,-1
 795 100 l 1,2,-1
 711 5 l 1,3,4
 676 -6 676 -6 641.5 -11.5 c 128,-1,5
 607 -17 607 -17 577 -17 c 0,6,7
 494 -17 494 -17 410 7.5 c 128,-1,8
 326 32 326 32 258.5 79.5 c 128,-1,9
 191 127 191 127 148.5 197 c 128,-1,10
 106 267 106 267 106 358 c 0,11,12
 106 454 106 454 149 524 c 128,-1,13
 192 594 192 594 262.5 639.5 c 128,-1,14
 333 685 333 685 422 707 c 128,-1,15
 511 729 511 729 604 729 c 0,16,17
 661 729 661 729 708 725.5 c 128,-1,18
 755 722 755 722 795 715 c 1,19,20
 791 800 791 800 752 850 c 128,-1,21
 713 900 713 900 632 900 c 0,22,23
 588 900 588 900 543.5 895 c 128,-1,24
 499 890 499 890 458 881 c 128,-1,25
 417 872 417 872 381.5 861 c 128,-1,26
 346 850 346 850 319 838 c 1,27,-1
 225 1023 l 1,28,29
 271 1044 271 1044 313.5 1061.5 c 128,-1,30
 356 1079 356 1079 403.5 1091.5 c 128,-1,31
 451 1104 451 1104 508 1110.5 c 128,-1,32
 565 1117 565 1117 642 1117 c 0,33,34
 770 1117 770 1117 859.5 1085.5 c 128,-1,35
 949 1054 949 1054 1005 996.5 c 128,-1,36
 1061 939 1061 939 1086.5 858.5 c 128,-1,37
 1112 778 1112 778 1112 681 c 2,38,-1
 1112 200 l 1,39,-1
 1135 0 l 1,0,-1
795 500 m 1,40,41
 780 501 780 501 760 502 c 128,-1,42
 740 503 740 503 719 503.5 c 128,-1,43
 698 504 698 504 677.5 504.5 c 128,-1,44
 657 505 657 505 642 505 c 0,45,46
 604 505 604 505 566.5 498 c 128,-1,47
 529 491 529 491 500 474 c 128,-1,48
 471 457 471 457 453 429 c 128,-1,49
 435 401 435 401 435 359 c 0,50,51
 435 325 435 325 447.5 297.5 c 128,-1,52
 460 270 460 270 481 250 c 128,-1,53
 502 230 502 230 529 219 c 128,-1,54
 556 208 556 208 585 208 c 0,55,56
 642 208 642 208 694 233 c 128,-1,57
 746 258 746 258 795 300 c 1,58,-1
 795 500 l 1,40,41
EndSplineSet
Validated: 1
EndChar

StartChar: b
Encoding: 98 98 67
Width: 1300
GlyphClass: 1
Flags: W
LayerCount: 2
Fore
SplineSet
500 212 m 1,0,1
 529 207 529 207 562 203.5 c 128,-1,2
 595 200 595 200 625 200 c 0,3,4
 688 200 688 200 728.5 237.5 c 128,-1,5
 769 275 769 275 792.5 333.5 c 128,-1,6
 816 392 816 392 825.5 462.5 c 128,-1,7
 835 533 835 533 835 598 c 0,8,9
 835 680 835 680 823 737.5 c 128,-1,10
 811 795 811 795 791.5 831 c 128,-1,11
 772 867 772 867 745.5 883.5 c 128,-1,12
 719 900 719 900 691 900 c 0,13,14
 630 900 630 900 584 879 c 128,-1,15
 538 858 538 858 500 826 c 1,16,-1
 500 212 l 1,0,1
173 1398 m 1,17,-1
 151 1601 l 1,18,-1
 500 1632 l 1,19,-1
 500 974 l 1,20,-1
 597 1096 l 1,21,22
 626 1104 626 1104 658.5 1110.5 c 128,-1,23
 691 1117 691 1117 719 1117 c 0,24,25
 810 1117 810 1117 891 1082.5 c 128,-1,26
 972 1048 972 1048 1032 981.5 c 128,-1,27
 1092 915 1092 915 1127 817 c 128,-1,28
 1162 719 1162 719 1162 593 c 0,29,30
 1162 456 1162 456 1121 343.5 c 128,-1,31
 1080 231 1080 231 1007.5 151 c 128,-1,32
 935 71 935 71 834.5 27.5 c 128,-1,33
 734 -16 734 -16 616 -16 c 0,34,35
 553 -16 553 -16 487 -9.5 c 128,-1,36
 421 -3 421 -3 361.5 7 c 128,-1,37
 302 17 302 17 252.5 29.5 c 128,-1,38
 203 42 203 42 173 54 c 1,39,-1
 173 1398 l 1,17,-1
EndSplineSet
Validated: 1
EndChar

StartChar: c
Encoding: 99 99 68
Width: 1300
GlyphClass: 1
Flags: W
LayerCount: 2
Fore
SplineSet
968 772 m 1,0,1
 920 829 920 829 861.5 855 c 128,-1,2
 803 881 803 881 727 881 c 0,3,4
 666 881 666 881 613 854.5 c 128,-1,5
 560 828 560 828 520.5 783 c 128,-1,6
 481 738 481 738 458.5 678.5 c 128,-1,7
 436 619 436 619 436 553 c 0,8,9
 436 484 436 484 459.5 425.5 c 128,-1,10
 483 367 483 367 523 325 c 128,-1,11
 563 283 563 283 615.5 259.5 c 128,-1,12
 668 236 668 236 727 236 c 0,13,14
 779 236 779 236 821.5 245.5 c 128,-1,15
 864 255 864 255 897.5 271.5 c 128,-1,16
 931 288 931 288 956.5 309 c 128,-1,17
 982 330 982 330 1000 353 c 1,18,-1
 1124 137 l 1,19,20
 1106 121 1106 121 1070.5 95 c 128,-1,21
 1035 69 1035 69 982 44 c 128,-1,22
 929 19 929 19 857 1 c 128,-1,23
 785 -17 785 -17 694 -17 c 0,24,25
 561 -17 561 -17 452.5 31 c 128,-1,26
 344 79 344 79 267 159 c 128,-1,27
 190 239 190 239 148 344.5 c 128,-1,28
 106 450 106 450 106 565 c 0,29,30
 106 669 106 669 146.5 768.5 c 128,-1,31
 187 868 187 868 263.5 945.5 c 128,-1,32
 340 1023 340 1023 450 1070 c 128,-1,33
 560 1117 560 1117 698 1117 c 0,34,35
 833 1117 833 1117 942.5 1079.5 c 128,-1,36
 1052 1042 1052 1042 1130 957 c 1,37,-1
 968 772 l 1,0,1
EndSplineSet
Validated: 1
EndChar

StartChar: d
Encoding: 100 100 69
Width: 1300
GlyphClass: 1
Flags: W
LayerCount: 2
Fore
SplineSet
800 900 m 1,0,-1
 731 900 l 2,1,2
 665 900 665 900 616 869 c 128,-1,3
 567 838 567 838 535.5 785 c 128,-1,4
 504 732 504 732 488.5 662 c 128,-1,5
 473 592 473 592 473 515 c 0,6,7
 473 441 473 441 485 383 c 128,-1,8
 497 325 497 325 518 284 c 128,-1,9
 539 243 539 243 568.5 221.5 c 128,-1,10
 598 200 598 200 633 200 c 0,11,12
 669 200 669 200 696 210.5 c 128,-1,13
 723 221 723 221 743 237.5 c 128,-1,14
 763 254 763 254 777 275 c 128,-1,15
 791 296 791 296 800 316 c 1,16,-1
 800 900 l 1,0,-1
800 0 m 1,17,-1
 800 162 l 1,18,-1
 675 -10 l 1,19,20
 667 -12 667 -12 660 -13.5 c 128,-1,21
 653 -15 653 -15 643.5 -15.5 c 128,-1,22
 634 -16 634 -16 620.5 -16.5 c 128,-1,23
 607 -17 607 -17 586 -17 c 0,24,25
 494 -17 494 -17 414 23.5 c 128,-1,26
 334 64 334 64 275 137 c 128,-1,27
 216 210 216 210 182 309.5 c 128,-1,28
 148 409 148 409 148 528 c 256,29,30
 148 647 148 647 189 751.5 c 128,-1,31
 230 856 230 856 306 933.5 c 128,-1,32
 382 1011 382 1011 489.5 1055.5 c 128,-1,33
 597 1100 597 1100 730 1100 c 2,34,-1
 800 1100 l 1,35,-1
 800 1632 l 1,36,-1
 1126 1600 l 1,37,-1
 1126 209 l 1,38,-1
 1148 0 l 1,39,-1
 800 0 l 1,17,-1
EndSplineSet
Validated: 1
EndChar

StartChar: e
Encoding: 101 101 70
Width: 1300
GlyphClass: 1
Flags: W
LayerCount: 2
Fore
SplineSet
1148 158 m 1,0,1
 1108 121 1108 121 1062 89.5 c 128,-1,2
 1016 58 1016 58 960 34.5 c 128,-1,3
 904 11 904 11 836 -2.5 c 128,-1,4
 768 -16 768 -16 686 -16 c 0,5,6
 542 -16 542 -16 432.5 31 c 128,-1,7
 323 78 323 78 249 156.5 c 128,-1,8
 175 235 175 235 137.5 337 c 128,-1,9
 100 439 100 439 100 550 c 0,10,11
 100 621 100 621 117 690.5 c 128,-1,12
 134 760 134 760 167 822.5 c 128,-1,13
 200 885 200 885 247.5 939 c 128,-1,14
 295 993 295 993 356.5 1032 c 128,-1,15
 418 1071 418 1071 492.5 1093.5 c 128,-1,16
 567 1116 567 1116 653 1116 c 0,17,18
 773 1116 773 1116 867 1080.5 c 128,-1,19
 961 1045 961 1045 1026 981.5 c 128,-1,20
 1091 918 1091 918 1125 829 c 128,-1,21
 1159 740 1159 740 1159 632 c 0,22,23
 1159 605 1159 605 1155.5 561 c 128,-1,24
 1152 517 1152 517 1147 466 c 1,25,-1
 400 466 l 1,26,27
 402 412 402 412 430 363.5 c 128,-1,28
 458 315 458 315 501.5 279 c 128,-1,29
 545 243 545 243 598.5 221.5 c 128,-1,30
 652 200 652 200 706 200 c 0,31,32
 757 200 757 200 804.5 211 c 128,-1,33
 852 222 852 222 890.5 238 c 128,-1,34
 929 254 929 254 957.5 271 c 128,-1,35
 986 288 986 288 1000 300 c 1,36,-1
 1148 158 l 1,0,1
865 672 m 1,37,38
 865 718 865 718 851.5 759 c 128,-1,39
 838 800 838 800 812 831.5 c 128,-1,40
 786 863 786 863 747 881.5 c 128,-1,41
 708 900 708 900 657 900 c 256,42,43
 606 900 606 900 568 885 c 128,-1,44
 530 870 530 870 503 847.5 c 128,-1,45
 476 825 476 825 459 800 c 128,-1,46
 442 775 442 775 434 756 c 1,47,-1
 343 653 l 1,48,-1
 516 671 l 1,49,-1
 865 672 l 1,37,38
EndSplineSet
Validated: 1
EndChar

StartChar: f
Encoding: 102 102 71
Width: 1300
GlyphClass: 1
Flags: W
LayerCount: 2
Fore
SplineSet
100 1100 m 1,0,-1
 320 1100 l 1,1,-1
 320 1207 l 2,2,3
 320 1295 320 1295 357.5 1367 c 128,-1,4
 395 1439 395 1439 459.5 1491 c 128,-1,5
 524 1543 524 1543 610 1571.5 c 128,-1,6
 696 1600 696 1600 794 1600 c 0,7,8
 858 1600 858 1600 913.5 1589.5 c 128,-1,9
 969 1579 969 1579 1016 1562.5 c 128,-1,10
 1063 1546 1063 1546 1101.5 1526 c 128,-1,11
 1140 1506 1140 1506 1170 1486 c 1,12,-1
 1037 1300 l 1,13,14
 1022 1310 1022 1310 999.5 1323 c 128,-1,15
 977 1336 977 1336 949 1348 c 128,-1,16
 921 1360 921 1360 889.5 1368 c 128,-1,17
 858 1376 858 1376 824 1376 c 0,18,19
 795 1376 795 1376 763 1364.5 c 128,-1,20
 731 1353 731 1353 704 1330.5 c 128,-1,21
 677 1308 677 1308 659.5 1274.5 c 128,-1,22
 642 1241 642 1241 642 1198 c 2,23,-1
 642 1100 l 1,24,-1
 1063 1100 l 1,25,-1
 1036 876 l 1,26,-1
 647 876 l 1,27,-1
 647 0 l 1,28,-1
 320 0 l 1,29,-1
 320 876 l 1,30,-1
 100 876 l 1,31,-1
 100 1100 l 1,0,-1
EndSplineSet
Validated: 1
EndChar

StartChar: g
Encoding: 103 103 72
Width: 1300
GlyphClass: 1
Flags: W
LayerCount: 2
Fore
SplineSet
828 16 m 1,0,1
 796 2 796 2 747.5 -7.5 c 128,-1,2
 699 -17 699 -17 641 -17 c 0,3,4
 574 -17 574 -17 509.5 3 c 128,-1,5
 445 23 445 23 387.5 60 c 128,-1,6
 330 97 330 97 282 148.5 c 128,-1,7
 234 200 234 200 199 262.5 c 128,-1,8
 164 325 164 325 144.5 396.5 c 128,-1,9
 125 468 125 468 125 545 c 0,10,11
 125 662 125 662 164 766 c 128,-1,12
 203 870 203 870 276 948 c 128,-1,13
 349 1026 349 1026 452 1071.5 c 128,-1,14
 555 1117 555 1117 684 1117 c 0,15,16
 702 1117 702 1117 714 1116.5 c 128,-1,17
 726 1116 726 1116 736 1114 c 1,18,-1
 827 958 l 1,19,-1
 827 1120 l 1,20,-1
 1153 1100 l 1,21,-1
 1153 -41 l 2,22,23
 1153 -140 1153 -140 1115 -226.5 c 128,-1,24
 1077 -313 1077 -313 1007 -377.5 c 128,-1,25
 937 -442 937 -442 837.5 -479.5 c 128,-1,26
 738 -517 738 -517 614 -517 c 0,27,28
 549 -517 549 -517 494.5 -506.5 c 128,-1,29
 440 -496 440 -496 393 -476 c 128,-1,30
 346 -456 346 -456 305 -426.5 c 128,-1,31
 264 -397 264 -397 225 -359 c 1,32,-1
 369 -192 l 1,33,34
 385 -206 385 -206 411 -223.5 c 128,-1,35
 437 -241 437 -241 468.5 -256.5 c 128,-1,36
 500 -272 500 -272 535.5 -282.5 c 128,-1,37
 571 -293 571 -293 605 -293 c 0,38,39
 647 -293 647 -293 687.5 -272.5 c 128,-1,40
 728 -252 728 -252 759 -216 c 128,-1,41
 790 -180 790 -180 809 -131.5 c 128,-1,42
 828 -83 828 -83 828 -27 c 2,43,-1
 828 16 l 1,0,1
827 820 m 1,44,45
 799 852 799 852 761.5 876 c 128,-1,46
 724 900 724 900 679 900 c 0,47,48
 619 900 619 900 576 864 c 128,-1,49
 533 828 533 828 505.5 773.5 c 128,-1,50
 478 719 478 719 465 655 c 128,-1,51
 452 591 452 591 452 534 c 0,52,53
 452 463 452 463 470 402 c 128,-1,54
 488 341 488 341 517 296 c 128,-1,55
 546 251 546 251 582.5 225.5 c 128,-1,56
 619 200 619 200 656 200 c 0,57,58
 715 200 715 200 755 225 c 128,-1,59
 795 250 795 250 827 287 c 1,60,-1
 827 820 l 1,44,45
EndSplineSet
Validated: 1
EndChar

StartChar: h
Encoding: 104 104 73
Width: 1300
GlyphClass: 1
Flags: W
LayerCount: 2
Fore
SplineSet
461 0 m 1,0,-1
 144 0 l 1,1,-1
 144 1339 l 1,2,-1
 122 1568 l 1,3,-1
 461 1600 l 1,4,-1
 461 1000 l 1,5,-1
 538 1100 l 1,6,7
 583 1110 583 1110 634 1113 c 128,-1,8
 685 1116 685 1116 749 1116 c 0,9,10
 927 1116 927 1116 1019.5 1014 c 128,-1,11
 1112 912 1112 912 1112 718 c 2,12,-1
 1112 0 l 1,13,-1
 786 0 l 1,14,-1
 786 698 l 2,15,16
 786 750 786 750 774 787 c 128,-1,17
 762 824 762 824 743.5 847.5 c 128,-1,18
 725 871 725 871 701.5 881.5 c 128,-1,19
 678 892 678 892 656 892 c 0,20,21
 614 892 614 892 584 884.5 c 128,-1,22
 554 877 554 877 532 865 c 128,-1,23
 510 853 510 853 493.5 838 c 128,-1,24
 477 823 477 823 461 808 c 1,25,-1
 461 0 l 1,0,-1
EndSplineSet
Validated: 1
EndChar

StartChar: i
Encoding: 105 105 74
Width: 1300
GlyphClass: 1
Flags: W
LayerCount: 2
Fore
SplineSet
455 1501 m 1,0,-1
 792 1501 l 1,1,-1
 792 1240 l 1,2,-1
 455 1240 l 1,3,-1
 455 1501 l 1,0,-1
534 916 m 1,4,-1
 364 876 l 1,5,-1
 189 876 l 1,6,-1
 161 1100 l 1,7,-1
 791 1100 l 1,8,-1
 791 423 l 2,9,10
 791 382 791 382 801 347.5 c 128,-1,11
 811 313 811 313 829 288.5 c 128,-1,12
 847 264 847 264 872 250 c 128,-1,13
 897 236 897 236 927 236 c 0,14,15
 993 236 993 236 1043 258 c 128,-1,16
 1093 280 1093 280 1145 330 c 1,17,-1
 1204 98 l 1,18,19
 1190 87 1190 87 1169 68 c 128,-1,20
 1148 49 1148 49 1113.5 30 c 128,-1,21
 1079 11 1079 11 1029 -3 c 128,-1,22
 979 -17 979 -17 908 -17 c 0,23,24
 793 -17 793 -17 709.5 19 c 128,-1,25
 626 55 626 55 571.5 116.5 c 128,-1,26
 517 178 517 178 490.5 259.5 c 128,-1,27
 464 341 464 341 464 432 c 2,28,-1
 464 826 l 1,29,-1
 534 916 l 1,4,-1
EndSplineSet
Validated: 1
EndChar

StartChar: j
Encoding: 106 106 75
Width: 1300
GlyphClass: 1
Flags: W
LayerCount: 2
Fore
SplineSet
593 1501 m 1,0,-1
 930 1501 l 1,1,-1
 930 1240 l 1,2,-1
 593 1240 l 1,3,-1
 593 1501 l 1,0,-1
668 916 m 1,4,-1
 498 876 l 1,5,-1
 323 876 l 1,6,-1
 295 1100 l 1,7,-1
 925 1100 l 1,8,-1
 925 -68 l 2,9,10
 925 -159 925 -159 898.5 -240.5 c 128,-1,11
 872 -322 872 -322 817.5 -383.5 c 128,-1,12
 763 -445 763 -445 679.5 -481 c 128,-1,13
 596 -517 596 -517 481 -517 c 0,14,15
 410 -517 410 -517 360 -503 c 128,-1,16
 310 -489 310 -489 275.5 -470.5 c 128,-1,17
 241 -452 241 -452 219.5 -432.5 c 128,-1,18
 198 -413 198 -413 185 -402 c 1,19,-1
 244 -170 l 1,20,21
 296 -220 296 -220 346 -242 c 128,-1,22
 396 -264 396 -264 462 -264 c 0,23,24
 492 -264 492 -264 517 -250 c 128,-1,25
 542 -236 542 -236 560 -211.5 c 128,-1,26
 578 -187 578 -187 588 -152.5 c 128,-1,27
 598 -118 598 -118 598 -77 c 2,28,-1
 598 826 l 1,29,-1
 668 916 l 1,4,-1
EndSplineSet
Validated: 1
EndChar

StartChar: k
Encoding: 107 107 76
Width: 1300
GlyphClass: 1
Flags: W
LayerCount: 2
Fore
SplineSet
187 0 m 1,0,-1
 187 1397 l 1,1,-1
 165 1600 l 1,2,-1
 493 1631 l 1,3,-1
 493 769 l 1,4,-1
 758 1100 l 1,5,-1
 1099 1100 l 1,6,-1
 737 700 l 1,7,-1
 533 627 l 1,8,-1
 722 564 l 1,9,-1
 1200 0 l 1,10,-1
 852 0 l 1,11,-1
 493 458 l 1,12,-1
 493 0 l 1,13,-1
 187 0 l 1,0,-1
EndSplineSet
Validated: 1
EndChar

StartChar: l
Encoding: 108 108 77
Width: 1300
GlyphClass: 1
Flags: W
LayerCount: 2
Fore
SplineSet
493 1382 m 1,0,-1
 323 1342 l 1,1,-1
 147 1342 l 1,2,-1
 120 1566 l 1,3,-1
 740 1566 l 1,4,-1
 740 388 l 2,5,6
 740 337 740 337 750 302.5 c 128,-1,7
 760 268 760 268 776.5 247 c 128,-1,8
 793 226 793 226 814 217 c 128,-1,9
 835 208 835 208 856 208 c 0,10,11
 884 208 884 208 907.5 216.5 c 128,-1,12
 931 225 931 225 951 238 c 128,-1,13
 971 251 971 251 987.5 267.5 c 128,-1,14
 1004 284 1004 284 1017 300 c 1,15,-1
 1125 107 l 1,16,17
 1114 98 1114 98 1094 77.5 c 128,-1,18
 1074 57 1074 57 1040.5 36 c 128,-1,19
 1007 15 1007 15 957.5 -1 c 128,-1,20
 908 -17 908 -17 838 -17 c 0,21,22
 730 -17 730 -17 652 17 c 128,-1,23
 574 51 574 51 523 109 c 128,-1,24
 472 167 472 167 447.5 245 c 128,-1,25
 423 323 423 323 423 410 c 2,26,-1
 423 1292 l 1,27,-1
 493 1382 l 1,0,-1
EndSplineSet
Validated: 1
EndChar

StartChar: m
Encoding: 109 109 78
Width: 1300
GlyphClass: 1
Flags: W
LayerCount: 2
Fore
SplineSet
365 0 m 1,0,-1
 50 0 l 1,1,-1
 50 1100 l 1,2,-1
 365 1120 l 1,3,-1
 365 1000 l 1,4,-1
 442 1100 l 1,5,6
 452 1106 452 1106 477.5 1111.5 c 128,-1,7
 503 1117 503 1117 522 1117 c 0,8,9
 571 1117 571 1117 605.5 1113.5 c 128,-1,10
 640 1110 640 1110 666 1101 c 128,-1,11
 692 1092 692 1092 711.5 1077 c 128,-1,12
 731 1062 731 1062 750 1039 c 1,13,14
 769 1052 769 1052 795.5 1065.5 c 128,-1,15
 822 1079 822 1079 851.5 1090.5 c 128,-1,16
 881 1102 881 1102 912.5 1109.5 c 128,-1,17
 944 1117 944 1117 975 1117 c 0,18,19
 1072 1117 1072 1117 1128 1090 c 128,-1,20
 1184 1063 1184 1063 1213 1013.5 c 128,-1,21
 1242 964 1242 964 1250 893.5 c 128,-1,22
 1258 823 1258 823 1258 736 c 2,23,-1
 1258 0 l 1,24,-1
 943 0 l 1,25,-1
 943 727 l 2,26,27
 943 767 943 767 942 797 c 128,-1,28
 941 827 941 827 936.5 846.5 c 128,-1,29
 932 866 932 866 922.5 875.5 c 128,-1,30
 913 885 913 885 895 885 c 0,31,32
 878 885 878 885 862.5 878 c 128,-1,33
 847 871 847 871 834.5 859 c 128,-1,34
 822 847 822 847 813.5 831.5 c 128,-1,35
 805 816 805 816 803 798 c 2,36,-1
 803 778 l 2,37,38
 803 766 803 766 803.5 753.5 c 128,-1,39
 804 741 804 741 804 730 c 2,40,-1
 804 0 l 1,41,-1
 500 0 l 1,42,-1
 500 708 l 2,43,44
 500 793 500 793 491.5 839 c 128,-1,45
 483 885 483 885 452 885 c 0,46,47
 423 885 423 885 398.5 866 c 128,-1,48
 374 847 374 847 365 804 c 1,49,-1
 365 0 l 1,0,-1
EndSplineSet
Validated: 1
EndChar

StartChar: n
Encoding: 110 110 79
Width: 1300
GlyphClass: 1
Flags: W
LayerCount: 2
Fore
SplineSet
461 0 m 1,0,-1
 144 0 l 1,1,-1
 144 1100 l 1,2,-1
 461 1120 l 1,3,-1
 461 1000 l 1,4,-1
 538 1100 l 1,5,6
 576 1110 576 1110 619.5 1113.5 c 128,-1,7
 663 1117 663 1117 721 1117 c 0,8,9
 812 1117 812 1117 885 1090 c 128,-1,10
 958 1063 958 1063 1008.5 1013.5 c 128,-1,11
 1059 964 1059 964 1086 893.5 c 128,-1,12
 1113 823 1113 823 1113 736 c 2,13,-1
 1113 0 l 1,14,-1
 796 0 l 1,15,-1
 796 736 l 2,16,17
 796 777 796 777 783.5 806.5 c 128,-1,18
 771 836 771 836 751 855 c 128,-1,19
 731 874 731 874 705 883 c 128,-1,20
 679 892 679 892 651 892 c 0,21,22
 588 892 588 892 544.5 871.5 c 128,-1,23
 501 851 501 851 461 808 c 1,24,-1
 461 0 l 1,0,-1
EndSplineSet
Validated: 1
EndChar

StartChar: o
Encoding: 111 111 80
Width: 1300
GlyphClass: 1
Flags: W
LayerCount: 2
Fore
SplineSet
627 -17 m 0,0,1
 507 -17 507 -17 407 26.5 c 128,-1,2
 307 70 307 70 234.5 146.5 c 128,-1,3
 162 223 162 223 121.5 327 c 128,-1,4
 81 431 81 431 81 553 c 0,5,6
 81 674 81 674 120 778 c 128,-1,7
 159 882 159 882 230.5 958 c 128,-1,8
 302 1034 302 1034 403 1077.5 c 128,-1,9
 504 1121 504 1121 627 1117 c 1,10,11
 747 1121 747 1121 846 1077.5 c 128,-1,12
 945 1034 945 1034 1015.5 958 c 128,-1,13
 1086 882 1086 882 1125 778 c 128,-1,14
 1164 674 1164 674 1164 553 c 0,15,16
 1164 431 1164 431 1126.5 327 c 128,-1,17
 1089 223 1089 223 1019 146.5 c 128,-1,18
 949 70 949 70 850 26.5 c 128,-1,19
 751 -17 751 -17 627 -17 c 0,0,1
838 528 m 0,20,21
 838 596 838 596 826.5 662 c 128,-1,22
 815 728 815 728 789 780.5 c 128,-1,23
 763 833 763 833 722 865 c 128,-1,24
 681 897 681 897 623 897 c 0,25,26
 567 897 567 897 526.5 869.5 c 128,-1,27
 486 842 486 842 460 796 c 128,-1,28
 434 750 434 750 421 691.5 c 128,-1,29
 408 633 408 633 408 571 c 0,30,31
 408 502 408 502 421 436 c 128,-1,32
 434 370 434 370 461 318.5 c 128,-1,33
 488 267 488 267 530 235 c 128,-1,34
 572 203 572 203 631 203 c 0,35,36
 685 203 685 203 724.5 230.5 c 128,-1,37
 764 258 764 258 789 304 c 128,-1,38
 814 350 814 350 826 408 c 128,-1,39
 838 466 838 466 838 528 c 0,20,21
EndSplineSet
Validated: 33
EndChar

StartChar: p
Encoding: 112 112 81
Width: 1300
GlyphClass: 1
Flags: W
LayerCount: 2
Fore
SplineSet
476 200 m 1,0,-1
 554 200 l 2,1,2
 621 200 621 200 680.5 229.5 c 128,-1,3
 740 259 740 259 784 310 c 128,-1,4
 828 361 828 361 854 429.5 c 128,-1,5
 880 498 880 498 880 576 c 0,6,7
 880 657 880 657 863 718 c 128,-1,8
 846 779 846 779 817 819.5 c 128,-1,9
 788 860 788 860 748 880 c 128,-1,10
 708 900 708 900 663 900 c 0,11,12
 636 900 636 900 609.5 892 c 128,-1,13
 583 884 583 884 559 871.5 c 128,-1,14
 535 859 535 859 514 843 c 128,-1,15
 493 827 493 827 476 811 c 1,16,-1
 476 200 l 1,0,-1
150 -500 m 1,17,-1
 150 1100 l 1,18,-1
 476 1120 l 1,19,-1
 476 944 l 1,20,-1
 600 1110 l 1,21,22
 621 1113 621 1113 643.5 1115 c 128,-1,23
 666 1117 666 1117 690 1117 c 0,24,25
 783 1117 783 1117 870.5 1078 c 128,-1,26
 958 1039 958 1039 1026.5 966.5 c 128,-1,27
 1095 894 1095 894 1136.5 792 c 128,-1,28
 1178 690 1178 690 1178 564 c 0,29,30
 1178 441 1178 441 1129.5 337.5 c 128,-1,31
 1081 234 1081 234 995 159 c 128,-1,32
 909 84 909 84 791.5 42 c 128,-1,33
 674 0 674 0 537 0 c 2,34,-1
 476 0 l 1,35,-1
 476 -500 l 1,36,-1
 150 -500 l 1,17,-1
EndSplineSet
Validated: 1
EndChar

StartChar: q
Encoding: 113 113 82
Width: 1300
GlyphClass: 1
Flags: W
LayerCount: 2
Fore
SplineSet
819 891 m 1,0,1
 789 895 789 895 760.5 897.5 c 128,-1,2
 732 900 732 900 694 900 c 0,3,4
 631 900 631 900 583.5 865.5 c 128,-1,5
 536 831 536 831 503.5 777 c 128,-1,6
 471 723 471 723 454.5 656.5 c 128,-1,7
 438 590 438 590 438 526 c 0,8,9
 438 442 438 442 456 381 c 128,-1,10
 474 320 474 320 503.5 279.5 c 128,-1,11
 533 239 533 239 571 219.5 c 128,-1,12
 609 200 609 200 648 200 c 0,13,14
 684 200 684 200 710 205.5 c 128,-1,15
 736 211 736 211 755.5 221.5 c 128,-1,16
 775 232 775 232 789.5 246 c 128,-1,17
 804 260 804 260 819 278 c 1,18,-1
 819 891 l 1,0,1
819 136 m 1,19,-1
 702 -8 l 1,20,21
 654 -17 654 -17 610 -17 c 0,22,23
 518 -17 518 -17 429.5 20.5 c 128,-1,24
 341 58 341 58 271.5 128 c 128,-1,25
 202 198 202 198 159.5 299 c 128,-1,26
 117 400 117 400 117 526 c 0,27,28
 117 663 117 663 163 772.5 c 128,-1,29
 209 882 209 882 288.5 958.5 c 128,-1,30
 368 1035 368 1035 473.5 1076 c 128,-1,31
 579 1117 579 1117 698 1117 c 0,32,33
 762 1117 762 1117 830 1108 c 128,-1,34
 898 1099 898 1099 959.5 1086.5 c 128,-1,35
 1021 1074 1021 1074 1070 1060.5 c 128,-1,36
 1119 1047 1119 1047 1145 1038 c 1,37,-1
 1145 -500 l 1,38,-1
 819 -500 l 1,39,-1
 819 136 l 1,19,-1
EndSplineSet
Validated: 1
EndChar

StartChar: r
Encoding: 114 114 83
Width: 1300
GlyphClass: 1
Flags: W
LayerCount: 2
Fore
SplineSet
462 1000 m 1,0,-1
 539 1100 l 1,1,2
 593 1115 593 1115 643 1116 c 128,-1,3
 693 1117 693 1117 741 1117 c 0,4,5
 822 1117 822 1117 882 1108 c 128,-1,6
 942 1099 942 1099 985.5 1085.5 c 128,-1,7
 1029 1072 1029 1072 1057 1057.5 c 128,-1,8
 1085 1043 1085 1043 1102 1032 c 1,9,-1
 1152 735 l 1,10,-1
 872 700 l 1,11,-1
 823 876 l 1,12,-1
 783 882 l 2,13,14
 763 885 763 885 743 885 c 0,15,16
 646 885 646 885 577 849.5 c 128,-1,17
 508 814 508 814 462 750 c 1,18,-1
 462 0 l 1,19,-1
 145 0 l 1,20,-1
 145 1100 l 1,21,-1
 462 1120 l 1,22,-1
 462 1000 l 1,0,-1
EndSplineSet
Validated: 1
EndChar

StartChar: s
Encoding: 115 115 84
Width: 1300
GlyphClass: 1
Flags: W
LayerCount: 2
Fore
SplineSet
985 802 m 1,0,1
 957 820 957 820 926 837 c 128,-1,2
 895 854 895 854 859 867.5 c 128,-1,3
 823 881 823 881 782 889.5 c 128,-1,4
 741 898 741 898 694 898 c 0,5,6
 651 898 651 898 605.5 894 c 128,-1,7
 560 890 560 890 523 879.5 c 128,-1,8
 486 869 486 869 462 850.5 c 128,-1,9
 438 832 438 832 438 804 c 0,10,11
 438 778 438 778 465 759.5 c 128,-1,12
 492 741 492 741 533 727 c 128,-1,13
 574 713 574 713 622.5 703 c 128,-1,14
 671 693 671 693 715 684 c 0,15,16
 766 673 766 673 814 662 c 128,-1,17
 862 651 862 651 892 640 c 0,18,19
 942 620 942 620 986.5 591 c 128,-1,20
 1031 562 1031 562 1064.5 525.5 c 128,-1,21
 1098 489 1098 489 1117.5 446 c 128,-1,22
 1137 403 1137 403 1137 355 c 0,23,24
 1137 288 1137 288 1110.5 234.5 c 128,-1,25
 1084 181 1084 181 1038.5 140 c 128,-1,26
 993 99 993 99 933.5 69 c 128,-1,27
 874 39 874 39 807.5 20 c 128,-1,28
 741 1 741 1 672 -8 c 128,-1,29
 603 -17 603 -17 540 -17 c 0,30,31
 480 -17 480 -17 421 -8.5 c 128,-1,32
 362 0 362 0 308 15 c 128,-1,33
 254 30 254 30 207.5 50.5 c 128,-1,34
 161 71 161 71 127 95 c 1,35,-1
 225 305 l 1,36,37
 294 263 294 263 371.5 235.5 c 128,-1,38
 449 208 449 208 542 208 c 0,39,40
 565 208 565 208 595.5 210.5 c 128,-1,41
 626 213 626 213 658.5 219.5 c 128,-1,42
 691 226 691 226 723 236.5 c 128,-1,43
 755 247 755 247 780 263 c 128,-1,44
 805 279 805 279 820.5 301.5 c 128,-1,45
 836 324 836 324 836 354 c 0,46,47
 836 381 836 381 812 400.5 c 128,-1,48
 788 420 788 420 751 434 c 128,-1,49
 714 448 714 448 670 457.5 c 128,-1,50
 626 467 626 467 586 475 c 0,51,52
 557 481 557 481 527.5 487.5 c 128,-1,53
 498 494 498 494 471 501 c 128,-1,54
 444 508 444 508 421 515.5 c 128,-1,55
 398 523 398 523 382 531 c 1,56,-1
 383 531 l 1,57,58
 317 562 317 562 273.5 596.5 c 128,-1,59
 230 631 230 631 204.5 667.5 c 128,-1,60
 179 704 179 704 168.5 743 c 128,-1,61
 158 782 158 782 158 822 c 0,62,63
 158 898 158 898 202 953.5 c 128,-1,64
 246 1009 246 1009 319.5 1045.5 c 128,-1,65
 393 1082 393 1082 488.5 1099.5 c 128,-1,66
 584 1117 584 1117 688 1117 c 0,67,68
 744 1117 744 1117 800.5 1108.5 c 128,-1,69
 857 1100 857 1100 908 1086.5 c 128,-1,70
 959 1073 959 1073 1001 1056 c 128,-1,71
 1043 1039 1043 1039 1070 1022 c 1,72,-1
 985 802 l 1,0,1
EndSplineSet
Validated: 1
EndChar

StartChar: t
Encoding: 116 116 85
Width: 1300
GlyphClass: 1
Flags: W
LayerCount: 2
Fore
SplineSet
658 388 m 2,0,1
 658 337 658 337 660.5 302.5 c 128,-1,2
 663 268 663 268 671 247 c 128,-1,3
 679 226 679 226 693 217 c 128,-1,4
 707 208 707 208 731 208 c 0,5,6
 778 208 778 208 819 219.5 c 128,-1,7
 860 231 860 231 894.5 247.5 c 128,-1,8
 929 264 929 264 957 283 c 2,9,-1
 1007 316 l 1,10,-1
 1111 135 l 1,11,12
 1098 124 1098 124 1065.5 99 c 128,-1,13
 1033 74 1033 74 979 48 c 128,-1,14
 925 22 925 22 848.5 2.5 c 128,-1,15
 772 -17 772 -17 672 -17 c 0,16,17
 564 -17 564 -17 498.5 17 c 128,-1,18
 433 51 433 51 398.5 109 c 128,-1,19
 364 167 364 167 353 245 c 128,-1,20
 342 323 342 323 342 410 c 2,21,-1
 342 876 l 1,22,-1
 100 876 l 1,23,-1
 100 1100 l 1,24,-1
 342 1100 l 1,25,-1
 342 1310 l 1,26,-1
 654 1420 l 1,27,-1
 654 1100 l 1,28,-1
 1113 1100 l 1,29,-1
 1086 876 l 1,30,-1
 658 876 l 1,31,-1
 658 388 l 2,0,1
EndSplineSet
Validated: 1
EndChar

StartChar: u
Encoding: 117 117 86
Width: 1300
GlyphClass: 1
Flags: W
LayerCount: 2
Fore
SplineSet
816 1100 m 1,0,-1
 1133 1120 l 1,1,-1
 1133 0 l 1,2,-1
 816 0 l 1,3,-1
 816 100 l 1,4,-1
 735 0 l 1,5,6
 679 -17 679 -17 614 -17 c 0,7,8
 480 -17 480 -17 390 21 c 128,-1,9
 300 59 300 59 245.5 122.5 c 128,-1,10
 191 186 191 186 168 268 c 128,-1,11
 145 350 145 350 145 438 c 2,12,-1
 145 1100 l 1,13,-1
 461 1120 l 1,14,-1
 461 438 l 2,15,16
 461 386 461 386 469.5 344.5 c 128,-1,17
 478 303 478 303 499 273.5 c 128,-1,18
 520 244 520 244 554.5 228.5 c 128,-1,19
 589 213 589 213 640 213 c 0,20,21
 673 213 673 213 701 223 c 128,-1,22
 729 233 729 233 751.5 249 c 128,-1,23
 774 265 774 265 790 283 c 128,-1,24
 806 301 806 301 816 318 c 1,25,-1
 816 1100 l 1,0,-1
EndSplineSet
Validated: 1
EndChar

StartChar: v
Encoding: 118 118 87
Width: 1300
GlyphClass: 1
Flags: W
LayerCount: 2
Fore
SplineSet
583 700 m 1,0,-1
 657 300 l 1,1,-1
 729 700 l 1,2,-1
 860 1100 l 1,3,-1
 1173 1120 l 1,4,-1
 800 -17 l 1,5,-1
 484 0 l 1,6,-1
 133 1100 l 1,7,-1
 447 1120 l 1,8,-1
 583 700 l 1,0,-1
EndSplineSet
Validated: 1
EndChar

StartChar: w
Encoding: 119 119 88
Width: 1300
GlyphClass: 1
Flags: W
LayerCount: 2
Fore
SplineSet
809 600 m 1,0,-1
 860 300 l 1,1,-1
 870 300 l 1,2,-1
 859 700 l 1,3,-1
 932 1100 l 1,4,-1
 1225 1120 l 1,5,-1
 1006 0 l 1,6,-1
 740 0 l 1,7,-1
 641 400 l 1,8,-1
 625 600 l 1,9,-1
 609 400 l 1,10,-1
 513 0 l 1,11,-1
 248 0 l 1,12,-1
 34 1100 l 1,13,-1
 322 1120 l 1,14,-1
 394 700 l 1,15,-1
 390 300 l 1,16,-1
 400 300 l 1,17,-1
 443 600 l 1,18,-1
 508 900 l 1,19,-1
 743 900 l 1,20,-1
 809 600 l 1,0,-1
EndSplineSet
Validated: 1
EndChar

StartChar: x
Encoding: 120 120 89
Width: 1300
GlyphClass: 1
Flags: W
LayerCount: 2
Fore
SplineSet
698 272 m 1,0,-1
 632 474 l 1,1,-1
 564 272 l 1,2,-1
 396 0 l 1,3,-1
 57 0 l 1,4,-1
 468 585 l 1,5,-1
 112 1100 l 1,6,-1
 454 1120 l 1,7,-1
 595 900 l 1,8,-1
 657 700 l 1,9,-1
 717 900 l 1,10,-1
 856 1100 l 1,11,-1
 1212 1120 l 1,12,-1
 832 581 l 1,13,-1
 1240 0 l 1,14,-1
 879 0 l 1,15,-1
 698 272 l 1,0,-1
EndSplineSet
Validated: 1
EndChar

StartChar: y
Encoding: 121 121 90
Width: 1300
GlyphClass: 1
Flags: W
LayerCount: 2
Fore
SplineSet
571 670 m 1,0,-1
 648 200 l 1,1,-1
 727 670 l 1,2,-1
 890 1100 l 1,3,-1
 1210 1120 l 1,4,-1
 802 8 l 2,5,6
 782 -47 782 -47 758.5 -105 c 128,-1,7
 735 -163 735 -163 707 -217 c 128,-1,8
 679 -271 679 -271 646 -319 c 128,-1,9
 613 -367 613 -367 573 -402.5 c 128,-1,10
 533 -438 533 -438 486 -459 c 128,-1,11
 439 -480 439 -480 383 -480 c 0,12,13
 316 -480 316 -480 250.5 -452.5 c 128,-1,14
 185 -425 185 -425 127 -374 c 1,15,-1
 250 -194 l 1,16,17
 273 -209 273 -209 299 -221.5 c 128,-1,18
 325 -234 325 -234 352 -234 c 0,19,20
 395 -234 395 -234 429.5 -184.5 c 128,-1,21
 464 -135 464 -135 501 -47 c 1,22,-1
 82 1100 l 1,23,-1
 408 1120 l 1,24,-1
 571 670 l 1,0,-1
EndSplineSet
Validated: 1
EndChar

StartChar: z
Encoding: 122 122 91
Width: 1300
GlyphClass: 1
Flags: W
LayerCount: 2
Fore
SplineSet
715 200 m 1,0,-1
 1088 200 l 1,1,-1
 1115 0 l 1,2,-1
 212 0 l 1,3,-1
 179 85 l 1,4,-1
 579 757 l 1,5,-1
 790 925 l 1,6,-1
 539 900 l 1,7,-1
 265 900 l 1,8,-1
 238 1100 l 1,9,-1
 1034 1100 l 1,10,-1
 1066 1017 l 1,11,-1
 671 339 l 1,12,-1
 464 175 l 1,13,-1
 715 200 l 1,0,-1
EndSplineSet
Validated: 1
EndChar

StartChar: braceleft
Encoding: 123 123 92
Width: 1300
GlyphClass: 1
Flags: W
LayerCount: 2
Fore
SplineSet
1003 1260 m 1,0,1
 969 1280 969 1280 925.5 1292.5 c 128,-1,2
 882 1305 882 1305 847 1305 c 0,3,4
 817 1303 817 1303 799 1288.5 c 128,-1,5
 781 1274 781 1274 772 1248 c 128,-1,6
 763 1222 763 1222 760 1184.5 c 128,-1,7
 757 1147 757 1147 757 1099 c 2,8,-1
 757 864 l 2,9,10
 757 808 757 808 741.5 759 c 128,-1,11
 726 710 726 710 702 670.5 c 128,-1,12
 678 631 678 631 649 600.5 c 128,-1,13
 620 570 620 570 593 550 c 1,14,15
 620 530 620 530 649 499.5 c 128,-1,16
 678 469 678 469 702 429.5 c 128,-1,17
 726 390 726 390 741.5 341.5 c 128,-1,18
 757 293 757 293 757 238 c 2,19,-1
 757 -2 l 2,20,21
 757 -50 757 -50 760 -88 c 128,-1,22
 763 -126 763 -126 772 -153 c 128,-1,23
 781 -180 781 -180 799 -194 c 128,-1,24
 817 -208 817 -208 847 -208 c 0,25,26
 882 -208 882 -208 925.5 -195.5 c 128,-1,27
 969 -183 969 -183 1003 -163 c 1,28,-1
 1099 -348 l 1,29,30
 1066 -363 1066 -363 1035.5 -376 c 128,-1,31
 1005 -389 1005 -389 971 -399 c 128,-1,32
 937 -409 937 -409 896.5 -414.5 c 128,-1,33
 856 -420 856 -420 804 -420 c 0,34,35
 691 -420 691 -420 616 -388 c 128,-1,36
 541 -356 541 -356 496.5 -300 c 128,-1,37
 452 -244 452 -244 433.5 -167.5 c 128,-1,38
 415 -91 415 -91 415 -2 c 2,39,-1
 415 238 l 2,40,41
 415 328 415 328 399.5 380 c 128,-1,42
 384 432 384 432 338 442 c 2,43,-1
 200 462 l 1,44,-1
 200 640 l 1,45,-1
 338 660 l 1,46,47
 384 671 384 671 399.5 723.5 c 128,-1,48
 415 776 415 776 415 864 c 2,49,-1
 415 1099 l 2,50,51
 415 1188 415 1188 433.5 1264.5 c 128,-1,52
 452 1341 452 1341 497 1397 c 128,-1,53
 542 1453 542 1453 617 1485 c 128,-1,54
 692 1517 692 1517 805 1517 c 0,55,56
 857 1517 857 1517 897.5 1511.5 c 128,-1,57
 938 1506 938 1506 971.5 1496.5 c 128,-1,58
 1005 1487 1005 1487 1035.5 1474 c 128,-1,59
 1066 1461 1066 1461 1099 1445 c 1,60,-1
 1003 1260 l 1,0,1
EndSplineSet
Validated: 1
EndChar

StartChar: bar
Encoding: 124 124 93
Width: 1300
GlyphClass: 1
Flags: W
LayerCount: 2
Fore
SplineSet
766 1520 m 1,0,-1
 766 -380 l 1,1,-1
 434 -380 l 1,2,-1
 434 1500 l 1,3,-1
 766 1520 l 1,0,-1
EndSplineSet
Validated: 1
EndChar

StartChar: braceright
Encoding: 125 125 94
Width: 1300
GlyphClass: 1
Flags: W
LayerCount: 2
Fore
SplineSet
201 1445 m 1,0,1
 234 1461 234 1461 264.5 1474 c 128,-1,2
 295 1487 295 1487 329 1496.5 c 128,-1,3
 363 1506 363 1506 403.5 1511.5 c 128,-1,4
 444 1517 444 1517 496 1517 c 0,5,6
 609 1517 609 1517 684 1485 c 128,-1,7
 759 1453 759 1453 803.5 1397 c 128,-1,8
 848 1341 848 1341 866.5 1264.5 c 128,-1,9
 885 1188 885 1188 885 1099 c 2,10,-1
 885 864 l 2,11,12
 885 776 885 776 900.5 723.5 c 128,-1,13
 916 671 916 671 962 660 c 1,14,-1
 1100 640 l 1,15,-1
 1100 462 l 1,16,-1
 962 442 l 2,17,18
 916 432 916 432 900.5 379.5 c 128,-1,19
 885 327 885 327 885 238 c 2,20,-1
 885 -2 l 2,21,22
 885 -91 885 -91 866.5 -167.5 c 128,-1,23
 848 -244 848 -244 803.5 -300 c 128,-1,24
 759 -356 759 -356 684 -388 c 128,-1,25
 609 -420 609 -420 496 -420 c 0,26,27
 444 -420 444 -420 403.5 -414.5 c 128,-1,28
 363 -409 363 -409 329 -399.5 c 128,-1,29
 295 -390 295 -390 264.5 -376.5 c 128,-1,30
 234 -363 234 -363 201 -348 c 1,31,-1
 297 -163 l 1,32,33
 331 -183 331 -183 374.5 -195.5 c 128,-1,34
 418 -208 418 -208 453 -208 c 0,35,36
 483 -208 483 -208 501 -194 c 128,-1,37
 519 -180 519 -180 528 -153 c 128,-1,38
 537 -126 537 -126 540 -88 c 128,-1,39
 543 -50 543 -50 543 -2 c 2,40,-1
 543 238 l 2,41,42
 543 293 543 293 558.5 341.5 c 128,-1,43
 574 390 574 390 598 430 c 128,-1,44
 622 470 622 470 651 500 c 128,-1,45
 680 530 680 530 707 550 c 1,46,47
 680 570 680 570 651 600.5 c 128,-1,48
 622 631 622 631 598 670.5 c 128,-1,49
 574 710 574 710 558.5 759 c 128,-1,50
 543 808 543 808 543 864 c 2,51,-1
 543 1099 l 2,52,53
 543 1147 543 1147 540 1184.5 c 128,-1,54
 537 1222 537 1222 528 1248 c 128,-1,55
 519 1274 519 1274 501 1288.5 c 128,-1,56
 483 1303 483 1303 453 1305 c 0,57,58
 418 1305 418 1305 374.5 1292.5 c 128,-1,59
 331 1280 331 1280 297 1260 c 1,60,-1
 201 1445 l 1,0,1
EndSplineSet
Validated: 1
EndChar

StartChar: asciitilde
Encoding: 126 126 95
Width: 1300
GlyphClass: 1
Flags: W
LayerCount: 2
Fore
SplineSet
31 441 m 1,0,1
 37 508 37 508 63.5 578 c 128,-1,2
 90 648 90 648 139.5 705 c 128,-1,3
 189 762 189 762 264.5 798.5 c 128,-1,4
 340 835 340 835 444 835 c 0,5,6
 498 835 498 835 538 825 c 128,-1,7
 578 815 578 815 609.5 800.5 c 128,-1,8
 641 786 641 786 666 769 c 128,-1,9
 691 752 691 752 715.5 737.5 c 128,-1,10
 740 723 740 723 766.5 713 c 128,-1,11
 793 703 793 703 827 703 c 0,12,13
 896 703 896 703 938.5 741 c 128,-1,14
 981 779 981 779 991 838 c 1,15,-1
 1266 802 l 1,16,17
 1261 729 1261 729 1238.5 657 c 128,-1,18
 1216 585 1216 585 1169 528 c 128,-1,19
 1122 471 1122 471 1047 435.5 c 128,-1,20
 972 400 972 400 862 400 c 0,21,22
 812 400 812 400 775 410 c 128,-1,23
 738 420 738 420 708.5 434.5 c 128,-1,24
 679 449 679 449 654.5 466 c 128,-1,25
 630 483 630 483 604 497.5 c 128,-1,26
 578 512 578 512 549 522 c 128,-1,27
 520 532 520 532 481 532 c 0,28,29
 452 532 452 532 427.5 522 c 128,-1,30
 403 512 403 512 383.5 495.5 c 128,-1,31
 364 479 364 479 350.5 457 c 128,-1,32
 337 435 337 435 331 410 c 1,33,-1
 31 441 l 1,0,1
EndSplineSet
Validated: 1
EndChar

StartChar: exclamdown
Encoding: 161 161 97
Width: 1300
GlyphClass: 1
Flags: W
LayerCount: 2
Fore
SplineSet
352 -400 m 1,0,-1
 352 691 l 1,1,-1
 652 656 l 1,2,-1
 652 -400 l 1,3,-1
 352 -400 l 1,0,-1
338 951 m 0,4,5
 338 984 338 984 351 1014.5 c 128,-1,6
 364 1045 364 1045 386 1067.5 c 128,-1,7
 408 1090 408 1090 438 1103.5 c 128,-1,8
 468 1117 468 1117 502 1117 c 256,9,10
 536 1117 536 1117 565.5 1103.5 c 128,-1,11
 595 1090 595 1090 617 1067.5 c 128,-1,12
 639 1045 639 1045 651.5 1014.5 c 128,-1,13
 664 984 664 984 664 951 c 0,14,15
 664 917 664 917 651 887.5 c 128,-1,16
 638 858 638 858 616 835.5 c 128,-1,17
 594 813 594 813 564.5 800 c 128,-1,18
 535 787 535 787 501 787 c 256,19,20
 467 787 467 787 437.5 800 c 128,-1,21
 408 813 408 813 386 835.5 c 128,-1,22
 364 858 364 858 351 887.5 c 128,-1,23
 338 917 338 917 338 951 c 0,4,5
EndSplineSet
Validated: 1
EndChar

StartChar: cent
Encoding: 162 162 98
Width: 1300
GlyphClass: 1
Flags: W
LayerCount: 2
Fore
SplineSet
989 814 m 1,0,1
 965 837 965 837 943 852 c 128,-1,2
 921 867 921 867 901 877 c 1,3,-1
 901 223 l 1,4,5
 967 249 967 249 1023 288 c 1,6,-1
 1135 93 l 1,7,8
 1084 58 1084 58 1025.5 32.5 c 128,-1,9
 967 7 967 7 901 -5 c 1,10,-1
 901 -190 l 1,11,-1
 611 -190 l 1,12,-1
 611 6 l 1,13,14
 518 34 518 34 448 90.5 c 128,-1,15
 378 147 378 147 331 222.5 c 128,-1,16
 284 298 284 298 260.5 388.5 c 128,-1,17
 237 479 237 479 237 575 c 0,18,19
 237 662 237 662 259.5 744.5 c 128,-1,20
 282 827 282 827 328.5 896.5 c 128,-1,21
 375 966 375 966 445 1017.5 c 128,-1,22
 515 1069 515 1069 611 1095 c 1,23,-1
 611 1302 l 1,24,-1
 901 1340 l 1,25,-1
 901 1105 l 1,26,27
 968 1090 968 1090 1026.5 1055.5 c 128,-1,28
 1085 1021 1085 1021 1140 961 c 1,29,-1
 989 814 l 1,0,1
521 563 m 0,30,31
 521 436 521 436 556.5 353.5 c 128,-1,32
 592 271 592 271 659 232 c 1,33,-1
 659 873 l 1,34,35
 594 840 594 840 557.5 764.5 c 128,-1,36
 521 689 521 689 521 563 c 0,30,31
EndSplineSet
Validated: 1
EndChar

StartChar: sterling
Encoding: 163 163 99
Width: 1300
GlyphClass: 1
Flags: W
LayerCount: 2
Fore
SplineSet
779 216 m 1,0,-1
 1100 216 l 1,1,-1
 1100 0 l 1,2,-1
 151 0 l 1,3,-1
 180 216 l 1,4,-1
 313 216 l 2,5,6
 315 218 315 218 318 224.5 c 128,-1,7
 321 231 321 231 326 249 c 0,8,9
 334 277 334 277 355 378 c 128,-1,10
 376 479 376 479 403 665 c 1,11,-1
 275 665 l 1,12,-1
 275 883 l 1,13,-1
 434 883 l 1,14,-1
 472 1150 l 2,15,16
 484 1229 484 1229 509 1296.5 c 128,-1,17
 534 1364 534 1364 578 1413 c 128,-1,18
 622 1462 622 1462 688 1489.5 c 128,-1,19
 754 1517 754 1517 847 1517 c 0,20,21
 901 1517 901 1517 943.5 1510.5 c 128,-1,22
 986 1504 986 1504 1023 1489.5 c 128,-1,23
 1060 1475 1060 1475 1094.5 1451.5 c 128,-1,24
 1129 1428 1129 1428 1167 1395 c 1,25,-1
 1037 1228 l 1,26,27
 987 1273 987 1273 954 1288 c 128,-1,28
 921 1303 921 1303 891 1303 c 0,29,30
 868 1303 868 1303 851.5 1289.5 c 128,-1,31
 835 1276 835 1276 823.5 1251.5 c 128,-1,32
 812 1227 812 1227 804.5 1192.5 c 128,-1,33
 797 1158 797 1158 791 1116 c 2,34,-1
 758 883 l 1,35,-1
 953 883 l 1,36,-1
 926 665 l 1,37,-1
 728 665 l 1,38,39
 720 601 720 601 714.5 556 c 128,-1,40
 709 511 709 511 703 474.5 c 128,-1,41
 697 438 697 438 690 404.5 c 128,-1,42
 683 371 683 371 673 331 c 1,43,-1
 531 157 l 1,44,-1
 779 216 l 1,0,-1
EndSplineSet
Validated: 1
EndChar

StartChar: yen
Encoding: 165 165 100
Width: 1300
GlyphClass: 1
Flags: W
LayerCount: 2
Fore
SplineSet
160 589 m 1,0,-1
 469 589 l 1,1,-1
 469 650 l 1,2,-1
 443 700 l 1,3,-1
 160 700 l 1,4,-1
 160 889 l 1,5,-1
 347 889 l 1,6,-1
 40 1500 l 1,7,-1
 379 1520 l 1,8,-1
 571 1143 l 1,9,-1
 678 773 l 1,10,-1
 736 1143 l 1,11,-1
 918 1500 l 1,12,-1
 1253 1500 l 1,13,-1
 942 889 l 1,14,-1
 1160 889 l 1,15,-1
 1160 700 l 1,16,-1
 845 700 l 1,17,-1
 820 650 l 1,18,-1
 820 589 l 1,19,-1
 1160 589 l 1,20,-1
 1160 400 l 1,21,-1
 820 400 l 1,22,-1
 820 0 l 1,23,-1
 469 0 l 1,24,-1
 469 400 l 1,25,-1
 160 400 l 1,26,-1
 160 589 l 1,0,-1
EndSplineSet
Validated: 1
EndChar

StartChar: section
Encoding: 167 167 101
Width: 1300
GlyphClass: 1
Flags: W
LayerCount: 2
Fore
SplineSet
888 1249 m 1,0,1
 846 1272 846 1272 813 1285.5 c 128,-1,2
 780 1299 780 1299 752 1306.5 c 128,-1,3
 724 1314 724 1314 701 1316 c 128,-1,4
 678 1318 678 1318 657 1318 c 0,5,6
 626 1318 626 1318 598 1310.5 c 128,-1,7
 570 1303 570 1303 548.5 1286 c 128,-1,8
 527 1269 527 1269 514.5 1241.5 c 128,-1,9
 502 1214 502 1214 502 1174 c 0,10,11
 502 1135 502 1135 517.5 1105 c 128,-1,12
 533 1075 533 1075 558.5 1050 c 128,-1,13
 584 1025 584 1025 617.5 1002.5 c 128,-1,14
 651 980 651 980 687 958 c 0,15,16
 747 921 747 921 807 880 c 128,-1,17
 867 839 867 839 915.5 788 c 128,-1,18
 964 737 964 737 994.5 673.5 c 128,-1,19
 1025 610 1025 610 1025 527 c 0,20,21
 1025 479 1025 479 1010.5 433.5 c 128,-1,22
 996 388 996 388 970 350 c 128,-1,23
 944 312 944 312 909 282 c 128,-1,24
 874 252 874 252 833 234 c 1,25,26
 870 205 870 205 901.5 173 c 128,-1,27
 933 141 933 141 956 106 c 128,-1,28
 979 71 979 71 992.5 33 c 128,-1,29
 1006 -5 1006 -5 1006 -46 c 0,30,31
 1006 -128 1006 -128 975.5 -193.5 c 128,-1,32
 945 -259 945 -259 886.5 -305 c 128,-1,33
 828 -351 828 -351 743.5 -375.5 c 128,-1,34
 659 -400 659 -400 551 -400 c 0,35,36
 504 -400 504 -400 460 -395 c 128,-1,37
 416 -390 416 -390 372.5 -378 c 128,-1,38
 329 -366 329 -366 286 -347 c 128,-1,39
 243 -328 243 -328 197 -299 c 1,40,-1
 303 -129 l 1,41,42
 345 -152 345 -152 378 -166 c 128,-1,43
 411 -180 411 -180 439 -187.5 c 128,-1,44
 467 -195 467 -195 490 -197.5 c 128,-1,45
 513 -200 513 -200 534 -200 c 0,46,47
 565 -200 565 -200 593 -192 c 128,-1,48
 621 -184 621 -184 642 -166.5 c 128,-1,49
 663 -149 663 -149 675.5 -121 c 128,-1,50
 688 -93 688 -93 688 -54 c 256,51,52
 688 -15 688 -15 673 15 c 128,-1,53
 658 45 658 45 632.5 70.5 c 128,-1,54
 607 96 607 96 573.5 118 c 128,-1,55
 540 140 540 140 504 163 c 0,56,57
 444 200 444 200 384 240.5 c 128,-1,58
 324 281 324 281 275.5 332 c 128,-1,59
 227 383 227 383 196.5 446.5 c 128,-1,60
 166 510 166 510 166 593 c 0,61,62
 166 645 166 645 181 689 c 128,-1,63
 196 733 196 733 222 769 c 128,-1,64
 248 805 248 805 282.5 833.5 c 128,-1,65
 317 862 317 862 357 885 c 1,66,67
 320 915 320 915 288.5 947 c 128,-1,68
 257 979 257 979 234 1014 c 128,-1,69
 211 1049 211 1049 198 1087 c 128,-1,70
 185 1125 185 1125 185 1166 c 0,71,72
 185 1248 185 1248 215.5 1313 c 128,-1,73
 246 1378 246 1378 304.5 1423.5 c 128,-1,74
 363 1469 363 1469 447.5 1493 c 128,-1,75
 532 1517 532 1517 640 1517 c 0,76,77
 686 1517 686 1517 730 1512.5 c 128,-1,78
 774 1508 774 1508 817 1496.5 c 128,-1,79
 860 1485 860 1485 903.5 1466 c 128,-1,80
 947 1447 947 1447 993 1419 c 1,81,-1
 888 1249 l 1,0,1
548 747 m 1,82,-1
 536 737 l 2,83,84
 525 728 525 728 513 714.5 c 128,-1,85
 501 701 501 701 491.5 683.5 c 128,-1,86
 482 666 482 666 475.5 644 c 128,-1,87
 469 622 469 622 469 595 c 0,88,89
 469 561 469 561 482.5 532 c 128,-1,90
 496 503 496 503 517.5 477.5 c 128,-1,91
 539 452 539 452 566 429.5 c 128,-1,92
 593 407 593 407 621 387 c 2,93,-1
 643 372 l 1,94,-1
 655 383 l 2,95,96
 666 392 666 392 678 405.5 c 128,-1,97
 690 419 690 419 699.5 437 c 128,-1,98
 709 455 709 455 715.5 477 c 128,-1,99
 722 499 722 499 722 525 c 0,100,101
 722 558 722 558 708.5 587 c 128,-1,102
 695 616 695 616 673.5 641.5 c 128,-1,103
 652 667 652 667 625 689 c 128,-1,104
 598 711 598 711 571 731 c 2,105,-1
 548 747 l 1,82,-1
EndSplineSet
Validated: 1
EndChar

StartChar: dieresis
Encoding: 168 168 102
Width: 1300
GlyphClass: 1
Flags: W
LayerCount: 2
Fore
SplineSet
262 1566 m 1,0,-1
 538 1566 l 1,1,-1
 538 1300 l 1,2,-1
 262 1300 l 1,3,-1
 262 1566 l 1,0,-1
662 1566 m 1,4,-1
 938 1566 l 1,5,-1
 938 1300 l 1,6,-1
 662 1300 l 1,7,-1
 662 1566 l 1,4,-1
EndSplineSet
Validated: 1
EndChar

StartChar: copyright
Encoding: 169 169 103
Width: 1300
GlyphClass: 1
Flags: W
LayerCount: 2
Fore
SplineSet
650 1517 m 256,0,1
 747 1517 747 1517 832.5 1480 c 128,-1,2
 918 1443 918 1443 982 1379 c 128,-1,3
 1046 1315 1046 1315 1083 1229.5 c 128,-1,4
 1120 1144 1120 1144 1120 1047 c 0,5,6
 1120 949 1120 949 1083 863.5 c 128,-1,7
 1046 778 1046 778 982 714.5 c 128,-1,8
 918 651 918 651 832.5 614 c 128,-1,9
 747 577 747 577 650 577 c 256,10,11
 553 577 553 577 467.5 614 c 128,-1,12
 382 651 382 651 318 714.5 c 128,-1,13
 254 778 254 778 217 863.5 c 128,-1,14
 180 949 180 949 180 1047 c 0,15,16
 180 1144 180 1144 217 1229.5 c 128,-1,17
 254 1315 254 1315 318 1379 c 128,-1,18
 382 1443 382 1443 467.5 1480 c 128,-1,19
 553 1517 553 1517 650 1517 c 256,0,1
650 701 m 0,20,21
 720 701 720 701 782.5 728.5 c 128,-1,22
 845 756 845 756 892.5 803 c 128,-1,23
 940 850 940 850 968 913 c 128,-1,24
 996 976 996 976 996 1047 c 0,25,26
 996 1119 996 1119 969 1182 c 128,-1,27
 942 1245 942 1245 895 1292 c 128,-1,28
 848 1339 848 1339 785 1366 c 128,-1,29
 722 1393 722 1393 650 1393 c 256,30,31
 578 1393 578 1393 515 1366 c 128,-1,32
 452 1339 452 1339 405 1292 c 128,-1,33
 358 1245 358 1245 331 1182 c 128,-1,34
 304 1119 304 1119 304 1047 c 0,35,36
 304 977 304 977 331.5 914.5 c 128,-1,37
 359 852 359 852 406 804.5 c 128,-1,38
 453 757 453 757 516 729 c 128,-1,39
 579 701 579 701 650 701 c 0,20,21
785 1165 m 1,40,41
 754 1191 754 1191 729.5 1197.5 c 128,-1,42
 705 1204 705 1204 681 1204 c 0,43,44
 652 1204 652 1204 631.5 1191.5 c 128,-1,45
 611 1179 611 1179 598 1158 c 128,-1,46
 585 1137 585 1137 579.5 1109.5 c 128,-1,47
 574 1082 574 1082 574 1052 c 0,48,49
 574 1021 574 1021 579.5 991.5 c 128,-1,50
 585 962 585 962 598 939.5 c 128,-1,51
 611 917 611 917 632.5 903 c 128,-1,52
 654 889 654 889 686 889 c 0,53,54
 712 889 712 889 744 900.5 c 128,-1,55
 776 912 776 912 802 929 c 1,56,-1
 858 841 l 1,57,58
 821 818 821 818 777 804.5 c 128,-1,59
 733 791 733 791 679 791 c 0,60,61
 612 791 612 791 561.5 813.5 c 128,-1,62
 511 836 511 836 477 873 c 128,-1,63
 443 910 443 910 426 958 c 128,-1,64
 409 1006 409 1006 409 1058 c 0,65,66
 409 1105 409 1105 425.5 1149 c 128,-1,67
 442 1193 442 1193 475.5 1227 c 128,-1,68
 509 1261 509 1261 560.5 1281.5 c 128,-1,69
 612 1302 612 1302 682 1302 c 0,70,71
 736 1302 736 1302 779 1285.5 c 128,-1,72
 822 1269 822 1269 860 1231 c 1,73,-1
 785 1165 l 1,40,41
EndSplineSet
Validated: 1
EndChar

StartChar: ordfeminine
Encoding: 170 170 104
Width: 1300
GlyphClass: 1
Flags: W
LayerCount: 2
Fore
SplineSet
612 959 m 1,0,-1
 442 959 l 1,1,-1
 442 1009 l 1,2,-1
 400 961 l 1,3,4
 383 956 383 956 365.5 953 c 128,-1,5
 348 950 348 950 333 950 c 0,6,7
 292 950 292 950 250 962.5 c 128,-1,8
 208 975 208 975 174 998.5 c 128,-1,9
 140 1022 140 1022 119 1057 c 128,-1,10
 98 1092 98 1092 98 1138 c 0,11,12
 98 1186 98 1186 119.5 1221 c 128,-1,13
 141 1256 141 1256 176 1278.5 c 128,-1,14
 211 1301 211 1301 255.5 1312 c 128,-1,15
 300 1323 300 1323 347 1323 c 0,16,17
 375 1323 375 1323 398.5 1321.5 c 128,-1,18
 422 1320 422 1320 442 1316 c 1,19,20
 440 1359 440 1359 420.5 1384 c 128,-1,21
 401 1409 401 1409 361 1409 c 0,22,23
 339 1409 339 1409 316.5 1406.5 c 128,-1,24
 294 1404 294 1404 273.5 1399.5 c 128,-1,25
 253 1395 253 1395 235.5 1389.5 c 128,-1,26
 218 1384 218 1384 204 1378 c 1,27,-1
 157 1470 l 1,28,29
 180 1481 180 1481 201.5 1489.5 c 128,-1,30
 223 1498 223 1498 246.5 1504.5 c 128,-1,31
 270 1511 270 1511 298.5 1514 c 128,-1,32
 327 1517 327 1517 366 1517 c 0,33,34
 430 1517 430 1517 474.5 1501.5 c 128,-1,35
 519 1486 519 1486 547 1457 c 128,-1,36
 575 1428 575 1428 588 1388 c 128,-1,37
 601 1348 601 1348 601 1299 c 2,38,-1
 601 1059 l 1,39,-1
 612 959 l 1,0,-1
159 810 m 1,40,-1
 601 810 l 1,41,-1
 601 690 l 1,42,-1
 159 690 l 1,43,-1
 159 810 l 1,40,-1
442 1209 m 1,44,45
 435 1209 435 1209 425 1209.5 c 128,-1,46
 415 1210 415 1210 404.5 1210.5 c 128,-1,47
 394 1211 394 1211 383 1211 c 2,48,-1
 366 1211 l 2,49,50
 347 1211 347 1211 328 1207.5 c 128,-1,51
 309 1204 309 1204 294.5 1195.5 c 128,-1,52
 280 1187 280 1187 271 1173 c 128,-1,53
 262 1159 262 1159 262 1138 c 0,54,55
 262 1121 262 1121 268.5 1107.5 c 128,-1,56
 275 1094 275 1094 285.5 1084 c 128,-1,57
 296 1074 296 1074 309.5 1068.5 c 128,-1,58
 323 1063 323 1063 337 1063 c 0,59,60
 366 1063 366 1063 392 1075.5 c 128,-1,61
 418 1088 418 1088 442 1109 c 1,62,-1
 442 1209 l 1,44,45
EndSplineSet
Validated: 1
EndChar

StartChar: guillemotleft
Encoding: 171 171 105
Width: 1300
GlyphClass: 1
Flags: W
LayerCount: 2
Fore
SplineSet
584 1106 m 1,0,-1
 673 880 l 1,1,-1
 342 583 l 1,2,-1
 266 550 l 1,3,-1
 341 517 l 1,4,-1
 675 224 l 1,5,-1
 581 -13 l 1,6,-1
 26 476 l 1,7,-1
 26 620 l 1,8,-1
 584 1106 l 1,0,-1
1084 1106 m 1,9,-1
 1173 880 l 1,10,-1
 842 583 l 1,11,-1
 766 550 l 1,12,-1
 841 517 l 1,13,-1
 1175 224 l 1,14,-1
 1081 -13 l 1,15,-1
 526 476 l 1,16,-1
 526 620 l 1,17,-1
 1084 1106 l 1,9,-1
EndSplineSet
Validated: 1
EndChar

StartChar: logicalnot
Encoding: 172 172 106
Width: 1300
GlyphClass: 1
Flags: W
LayerCount: 2
Fore
SplineSet
1261 827 m 1,0,-1
 1242 586 l 1,1,-1
 1242 258 l 1,2,-1
 900 258 l 1,3,-1
 900 459 l 1,4,-1
 912 600 l 1,5,-1
 62 600 l 1,6,-1
 62 827 l 1,7,-1
 1261 827 l 1,0,-1
EndSplineSet
Validated: 1
EndChar

StartChar: registered
Encoding: 174 174 107
Width: 1300
GlyphClass: 1
Flags: W
LayerCount: 2
Fore
SplineSet
650 1517 m 256,0,1
 747 1517 747 1517 832.5 1480 c 128,-1,2
 918 1443 918 1443 982 1379 c 128,-1,3
 1046 1315 1046 1315 1083 1229.5 c 128,-1,4
 1120 1144 1120 1144 1120 1047 c 0,5,6
 1120 949 1120 949 1083 863.5 c 128,-1,7
 1046 778 1046 778 982 714.5 c 128,-1,8
 918 651 918 651 832.5 614 c 128,-1,9
 747 577 747 577 650 577 c 256,10,11
 553 577 553 577 467.5 614 c 128,-1,12
 382 651 382 651 318 714.5 c 128,-1,13
 254 778 254 778 217 863.5 c 128,-1,14
 180 949 180 949 180 1047 c 0,15,16
 180 1144 180 1144 217 1229.5 c 128,-1,17
 254 1315 254 1315 318 1379 c 128,-1,18
 382 1443 382 1443 467.5 1480 c 128,-1,19
 553 1517 553 1517 650 1517 c 256,0,1
650 701 m 0,20,21
 720 701 720 701 782.5 728.5 c 128,-1,22
 845 756 845 756 892.5 803 c 128,-1,23
 940 850 940 850 968 913 c 128,-1,24
 996 976 996 976 996 1047 c 0,25,26
 996 1119 996 1119 969 1182 c 128,-1,27
 942 1245 942 1245 895 1292 c 128,-1,28
 848 1339 848 1339 785 1366 c 128,-1,29
 722 1393 722 1393 650 1393 c 256,30,31
 578 1393 578 1393 515 1366 c 128,-1,32
 452 1339 452 1339 405 1292 c 128,-1,33
 358 1245 358 1245 331 1182 c 128,-1,34
 304 1119 304 1119 304 1047 c 0,35,36
 304 977 304 977 331.5 914.5 c 128,-1,37
 359 852 359 852 406 804.5 c 128,-1,38
 453 757 453 757 516 729 c 128,-1,39
 579 701 579 701 650 701 c 0,20,21
622 987 m 2,40,41
 618 991 618 991 613.5 992 c 128,-1,42
 609 993 609 993 607 993 c 1,43,-1
 607 800 l 1,44,-1
 494 800 l 1,45,-1
 494 1218 l 1,46,-1
 482 1291 l 1,47,48
 496 1292 496 1292 514.5 1294 c 128,-1,49
 533 1296 533 1296 552 1297 c 128,-1,50
 571 1298 571 1298 589 1299 c 128,-1,51
 607 1300 607 1300 621 1300 c 0,52,53
 709 1300 709 1300 763 1264 c 128,-1,54
 817 1228 817 1228 817 1158 c 0,55,56
 817 1122 817 1122 806 1096.5 c 128,-1,57
 795 1071 795 1071 777 1053 c 128,-1,58
 759 1035 759 1035 735 1023 c 128,-1,59
 711 1011 711 1011 685 1004 c 1,60,-1
 730 993 l 1,61,-1
 869 800 l 1,62,-1
 752 800 l 1,63,-1
 622 987 l 2,40,41
607 1174 m 1,64,-1
 607 1065 l 1,65,-1
 627 1065 l 2,66,67
 670 1065 670 1065 690.5 1091.5 c 128,-1,68
 711 1118 711 1118 711 1153 c 0,69,70
 711 1176 711 1176 703.5 1191.5 c 128,-1,71
 696 1207 696 1207 684 1216 c 128,-1,72
 672 1225 672 1225 657.5 1228.5 c 128,-1,73
 643 1232 643 1232 628 1232 c 2,74,-1
 611 1232 l 2,75,76
 607 1232 607 1232 601 1231 c 1,77,-1
 607 1174 l 1,64,-1
EndSplineSet
Validated: 1
EndChar

StartChar: macron
Encoding: 175 175 108
Width: 1300
GlyphClass: 1
Flags: W
LayerCount: 2
Fore
SplineSet
300 1500 m 1,0,-1
 1000 1500 l 1,1,-1
 1000 1282 l 1,2,-1
 300 1282 l 1,3,-1
 300 1500 l 1,0,-1
EndSplineSet
Validated: 1
EndChar

StartChar: degree
Encoding: 176 176 109
Width: 1300
GlyphClass: 1
Flags: W
LayerCount: 2
Fore
SplineSet
500 1517 m 0,0,1
 561 1517 561 1517 615 1496 c 128,-1,2
 669 1475 669 1475 709.5 1438 c 128,-1,3
 750 1401 750 1401 773 1352 c 128,-1,4
 796 1303 796 1303 796 1247 c 256,5,6
 796 1191 796 1191 773 1142 c 128,-1,7
 750 1093 750 1093 709.5 1056.5 c 128,-1,8
 669 1020 669 1020 615 998.5 c 128,-1,9
 561 977 561 977 500 977 c 0,10,11
 438 977 438 977 384.5 998.5 c 128,-1,12
 331 1020 331 1020 290.5 1056.5 c 128,-1,13
 250 1093 250 1093 227 1142 c 128,-1,14
 204 1191 204 1191 204 1247 c 256,15,16
 204 1303 204 1303 227 1352 c 128,-1,17
 250 1401 250 1401 290.5 1438 c 128,-1,18
 331 1475 331 1475 384.5 1496 c 128,-1,19
 438 1517 438 1517 500 1517 c 0,0,1
500 1145 m 256,20,21
 523 1145 523 1145 543.5 1153 c 128,-1,22
 564 1161 564 1161 579 1175 c 128,-1,23
 594 1189 594 1189 603 1207.5 c 128,-1,24
 612 1226 612 1226 612 1247 c 256,25,26
 612 1268 612 1268 603 1286.5 c 128,-1,27
 594 1305 594 1305 579 1319 c 128,-1,28
 564 1333 564 1333 543.5 1341 c 128,-1,29
 523 1349 523 1349 500 1349 c 256,30,31
 477 1349 477 1349 456.5 1341 c 128,-1,32
 436 1333 436 1333 421 1319 c 128,-1,33
 406 1305 406 1305 397 1286.5 c 128,-1,34
 388 1268 388 1268 388 1247 c 256,35,36
 388 1226 388 1226 397 1207.5 c 128,-1,37
 406 1189 406 1189 421 1175 c 128,-1,38
 436 1161 436 1161 456.5 1153 c 128,-1,39
 477 1145 477 1145 500 1145 c 256,20,21
EndSplineSet
Validated: 1
EndChar

StartChar: plusminus
Encoding: 177 177 110
Width: 1300
GlyphClass: 1
Flags: W
LayerCount: 2
Fore
SplineSet
179 862 m 1,0,-1
 539 862 l 1,1,-1
 539 1196 l 1,2,-1
 759 1196 l 1,3,-1
 759 862 l 1,4,-1
 1119 862 l 1,5,-1
 1119 702 l 1,6,-1
 759 702 l 1,7,-1
 759 382 l 1,8,-1
 539 382 l 1,9,-1
 539 702 l 1,10,-1
 179 702 l 1,11,-1
 179 862 l 1,0,-1
200 290 m 1,12,-1
 1100 290 l 1,13,-1
 1100 88 l 1,14,-1
 200 88 l 1,15,-1
 200 290 l 1,12,-1
EndSplineSet
Validated: 1
EndChar

StartChar: acute
Encoding: 180 180 111
Width: 1300
GlyphClass: 1
Flags: W
LayerCount: 2
Fore
SplineSet
563 1500 m 1,0,-1
 900 1520 l 1,1,-1
 615 1200 l 1,2,-1
 400 1200 l 1,3,-1
 563 1500 l 1,0,-1
EndSplineSet
Validated: 1
EndChar

StartChar: mu
Encoding: 181 181 112
Width: 1300
GlyphClass: 1
Flags: W
LayerCount: 2
Fore
SplineSet
1269 51 m 1,0,1
 1254 37 1254 37 1237 25 c 128,-1,2
 1220 13 1220 13 1195 3.5 c 128,-1,3
 1170 -6 1170 -6 1136.5 -11.5 c 128,-1,4
 1103 -17 1103 -17 1055 -17 c 0,5,6
 1021 -17 1021 -17 988 -5 c 128,-1,7
 955 7 955 7 926 32 c 128,-1,8
 897 57 897 57 872.5 96 c 128,-1,9
 848 135 848 135 832 190 c 1,10,-1
 785 72 l 1,11,12
 767 56 767 56 743.5 40 c 128,-1,13
 720 24 720 24 690 11.5 c 128,-1,14
 660 -1 660 -1 624 -9 c 128,-1,15
 588 -17 588 -17 545 -17 c 0,16,17
 525 -17 525 -17 496 -12 c 128,-1,18
 467 -7 467 -7 437.5 1.5 c 128,-1,19
 408 10 408 10 383 20 c 128,-1,20
 358 30 358 30 346 40 c 1,21,-1
 411 -166 l 1,22,-1
 411 -500 l 1,23,-1
 100 -500 l 1,24,-1
 100 1093 l 1,25,-1
 411 1125 l 1,26,-1
 411 362 l 2,27,28
 411 324 411 324 423.5 293.5 c 128,-1,29
 436 263 436 263 456.5 242 c 128,-1,30
 477 221 477 221 502.5 210 c 128,-1,31
 528 199 528 199 555 199 c 0,32,33
 598 199 598 199 634.5 219.5 c 128,-1,34
 671 240 671 240 700 268 c 1,35,-1
 700 1093 l 1,36,-1
 1011 1125 l 1,37,-1
 1011 365 l 2,38,39
 1011 273 1011 273 1030 236 c 128,-1,40
 1049 199 1049 199 1084 199 c 0,41,42
 1111 199 1111 199 1128 204.5 c 128,-1,43
 1145 210 1145 210 1170 223 c 1,44,-1
 1269 51 l 1,0,1
EndSplineSet
Validated: 1
EndChar

StartChar: paragraph
Encoding: 182 182 113
Width: 1300
GlyphClass: 1
Flags: W
LayerCount: 2
Fore
SplineSet
933 1298 m 1,0,-1
 799 1298 l 1,1,-1
 799 -400 l 1,2,-1
 530 -400 l 1,3,-1
 530 604 l 1,4,5
 453 614 453 614 378.5 643 c 128,-1,6
 304 672 304 672 245.5 724.5 c 128,-1,7
 187 777 187 777 151 857 c 128,-1,8
 115 937 115 937 115 1050 c 0,9,10
 115 1137 115 1137 137 1204.5 c 128,-1,11
 159 1272 159 1272 197 1322 c 128,-1,12
 235 1372 235 1372 286 1406 c 128,-1,13
 337 1440 337 1440 394 1461 c 128,-1,14
 451 1482 451 1482 511.5 1491 c 128,-1,15
 572 1500 572 1500 630 1500 c 2,16,-1
 1200 1500 l 1,17,-1
 1200 -400 l 1,18,-1
 933 -400 l 1,19,-1
 933 1298 l 1,0,-1
EndSplineSet
Validated: 1
EndChar

StartChar: periodcentered
Encoding: 183 183 114
Width: 1300
VWidth: 2461
GlyphClass: 1
Flags: W
LayerCount: 2
Fore
SplineSet
283.875 683.349609375 m 256,0,1
 283.875 738.700195312 283.875 738.700195312 304.799804688 787.299804688 c 128,-1,2
 325.724609375 835.900390625 325.724609375 835.900390625 362.174804688 872.349609375 c 128,-1,3
 398.625 908.799804688 398.625 908.799804688 446.549804688 929.724609375 c 128,-1,4
 494.474609375 950.650390625 494.474609375 950.650390625 549.825195312 950.650390625 c 256,5,6
 605.174804688 950.650390625 605.174804688 950.650390625 653.775390625 929.724609375 c 128,-1,7
 702.375 908.799804688 702.375 908.799804688 738.825195312 872.349609375 c 128,-1,8
 775.275390625 835.900390625 775.275390625 835.900390625 796.200195312 787.299804688 c 128,-1,9
 817.125 738.700195312 817.125 738.700195312 817.125 683.349609375 c 256,10,11
 817.125 628 817.125 628 796.200195312 578.724609375 c 128,-1,12
 775.275390625 529.450195312 775.275390625 529.450195312 739.5 493 c 128,-1,13
 703.724609375 456.549804688 703.724609375 456.549804688 655.125 434.950195312 c 128,-1,14
 606.525390625 413.349609375 606.525390625 413.349609375 552.525390625 413.349609375 c 0,15,16
 497.174804688 413.349609375 497.174804688 413.349609375 447.900390625 434.950195312 c 128,-1,17
 398.625 456.549804688 398.625 456.549804688 362.174804688 493 c 128,-1,18
 325.724609375 529.450195312 325.724609375 529.450195312 304.799804688 578.724609375 c 128,-1,19
 283.875 628 283.875 628 283.875 683.349609375 c 256,0,1
EndSplineSet
Validated: 524289
EndChar

StartChar: cedilla
Encoding: 184 184 115
Width: 1300
GlyphClass: 1
Flags: W
LayerCount: 2
Fore
SplineSet
884 0 m 1,0,1
 911 -20 911 -20 933 -46 c 0,2,3
 952 -69 952 -69 967.5 -100.5 c 128,-1,4
 983 -132 983 -132 983 -171 c 0,5,6
 983 -221 983 -221 959.5 -264 c 128,-1,7
 936 -307 936 -307 896 -338.5 c 128,-1,8
 856 -370 856 -370 804 -388.5 c 128,-1,9
 752 -407 752 -407 695 -407 c 0,10,11
 635 -407 635 -407 577.5 -389 c 128,-1,12
 520 -371 520 -371 472 -349 c 0,13,14
 417 -323 417 -323 366 -290 c 1,15,-1
 481 -131 l 1,16,17
 513 -151 513 -151 545 -166 c 0,18,19
 571 -179 571 -179 600.5 -189.5 c 128,-1,20
 630 -200 630 -200 652 -200 c 0,21,22
 675 -200 675 -200 695.5 -187.5 c 128,-1,23
 716 -175 716 -175 716 -147 c 0,24,25
 716 -126 716 -126 704 -102.5 c 128,-1,26
 692 -79 692 -79 676 -58 c 128,-1,27
 660 -37 660 -37 644.5 -21.5 c 128,-1,28
 629 -6 629 -6 622 0 c 1,29,-1
 884 0 l 1,0,1
EndSplineSet
Validated: 1
EndChar

StartChar: ordmasculine
Encoding: 186 186 116
Width: 1300
GlyphClass: 1
Flags: W
LayerCount: 2
Fore
SplineSet
179 810 m 1,0,-1
 621 810 l 1,1,-1
 621 690 l 1,2,-1
 179 690 l 1,3,-1
 179 810 l 1,0,-1
402 950 m 0,4,5
 342 950 342 950 292 972 c 128,-1,6
 242 994 242 994 206 1032 c 128,-1,7
 170 1070 170 1070 149.5 1122 c 128,-1,8
 129 1174 129 1174 129 1235 c 256,9,10
 129 1296 129 1296 148.5 1348 c 128,-1,11
 168 1400 168 1400 204 1438 c 128,-1,12
 240 1476 240 1476 290.5 1497.5 c 128,-1,13
 341 1519 341 1519 402 1517 c 0,14,15
 462 1519 462 1519 511.5 1497.5 c 128,-1,16
 561 1476 561 1476 596.5 1438 c 128,-1,17
 632 1400 632 1400 651.5 1348 c 128,-1,18
 671 1296 671 1296 671 1235 c 256,19,20
 671 1174 671 1174 652 1122 c 128,-1,21
 633 1070 633 1070 598 1032 c 128,-1,22
 563 994 563 994 513.5 972 c 128,-1,23
 464 950 464 950 402 950 c 0,4,5
508 1223 m 0,24,25
 508 1257 508 1257 502 1290 c 128,-1,26
 496 1323 496 1323 483 1349 c 128,-1,27
 470 1375 470 1375 449.5 1391 c 128,-1,28
 429 1407 429 1407 400 1407 c 0,29,30
 372 1407 372 1407 352 1393.5 c 128,-1,31
 332 1380 332 1380 319 1357 c 128,-1,32
 306 1334 306 1334 299.5 1304.5 c 128,-1,33
 293 1275 293 1275 293 1244 c 0,34,35
 293 1210 293 1210 299.5 1177 c 128,-1,36
 306 1144 306 1144 319.5 1118 c 128,-1,37
 333 1092 333 1092 354 1076 c 128,-1,38
 375 1060 375 1060 404 1060 c 0,39,40
 431 1060 431 1060 451 1074 c 128,-1,41
 471 1088 471 1088 483.5 1111 c 128,-1,42
 496 1134 496 1134 502 1163 c 128,-1,43
 508 1192 508 1192 508 1223 c 0,24,25
EndSplineSet
Validated: 33
EndChar

StartChar: guillemotright
Encoding: 187 187 117
Width: 1300
GlyphClass: 1
Flags: W
LayerCount: 2
Fore
SplineSet
777 619 m 1,0,-1
 777 476 l 1,1,-1
 221 -13 l 1,2,-1
 127 224 l 1,3,-1
 461 517 l 1,4,-1
 535 550 l 1,5,-1
 460 582 l 1,6,-1
 129 880 l 1,7,-1
 218 1106 l 1,8,-1
 777 619 l 1,0,-1
1277 619 m 1,9,-1
 1277 476 l 1,10,-1
 721 -13 l 1,11,-1
 627 224 l 1,12,-1
 961 517 l 1,13,-1
 1035 550 l 1,14,-1
 960 582 l 1,15,-1
 629 880 l 1,16,-1
 718 1106 l 1,17,-1
 1277 619 l 1,9,-1
EndSplineSet
Validated: 1
EndChar

StartChar: questiondown
Encoding: 191 191 118
Width: 1300
GlyphClass: 1
Flags: W
LayerCount: 2
Fore
SplineSet
96 -24 m 0,0,1
 96 36 96 36 116 85.5 c 128,-1,2
 136 135 136 135 168.5 177.5 c 128,-1,3
 201 220 201 220 242.5 258.5 c 128,-1,4
 284 297 284 297 327 335 c 0,5,6
 356 360 356 360 385.5 391.5 c 128,-1,7
 415 423 415 423 438.5 463 c 128,-1,8
 462 503 462 503 476.5 553 c 128,-1,9
 491 603 491 603 491 666 c 1,10,-1
 802 701 l 1,11,12
 801 614 801 614 788.5 538 c 128,-1,13
 776 462 776 462 747 395.5 c 128,-1,14
 718 329 718 329 671 270 c 128,-1,15
 624 211 624 211 553 158 c 0,16,17
 531 139 531 139 510 119 c 128,-1,18
 489 99 489 99 473 76.5 c 128,-1,19
 457 54 457 54 447 27.5 c 128,-1,20
 437 1 437 1 437 -32 c 0,21,22
 437 -72 437 -72 451.5 -100.5 c 128,-1,23
 466 -129 466 -129 490.5 -147.5 c 128,-1,24
 515 -166 515 -166 547 -174.5 c 128,-1,25
 579 -183 579 -183 613 -183 c 0,26,27
 639 -183 639 -183 677 -174.5 c 128,-1,28
 715 -166 715 -166 757 -146.5 c 128,-1,29
 799 -127 799 -127 841.5 -95 c 128,-1,30
 884 -63 884 -63 918 -17 c 1,31,-1
 1100 -168 l 1,32,33
 1043 -244 1043 -244 978.5 -292.5 c 128,-1,34
 914 -341 914 -341 847 -368.5 c 128,-1,35
 780 -396 780 -396 714 -406.5 c 128,-1,36
 648 -417 648 -417 589 -417 c 0,37,38
 494 -417 494 -417 405 -393.5 c 128,-1,39
 316 -370 316 -370 247.5 -321.5 c 128,-1,40
 179 -273 179 -273 137.5 -199 c 128,-1,41
 96 -125 96 -125 96 -24 c 0,0,1
798 951 m 0,42,43
 798 917 798 917 785 887.5 c 128,-1,44
 772 858 772 858 750 835.5 c 128,-1,45
 728 813 728 813 698.5 800 c 128,-1,46
 669 787 669 787 635 787 c 256,47,48
 601 787 601 787 571.5 800 c 128,-1,49
 542 813 542 813 520 835.5 c 128,-1,50
 498 858 498 858 485 887.5 c 128,-1,51
 472 917 472 917 472 951 c 0,52,53
 472 984 472 984 484.5 1014.5 c 128,-1,54
 497 1045 497 1045 519 1067.5 c 128,-1,55
 541 1090 541 1090 570.5 1103.5 c 128,-1,56
 600 1117 600 1117 634 1117 c 256,57,58
 668 1117 668 1117 698 1103.5 c 128,-1,59
 728 1090 728 1090 750 1067.5 c 128,-1,60
 772 1045 772 1045 785 1014.5 c 128,-1,61
 798 984 798 984 798 951 c 0,42,43
EndSplineSet
Validated: 1
EndChar

StartChar: Agrave
Encoding: 192 192 119
Width: 1300
GlyphClass: 1
Flags: W
LayerCount: 2
Fore
SplineSet
50 0 m 1,0,-1
 405 1284 l 1,1,-1
 441 1500 l 1,2,-1
 819 1520 l 1,3,-1
 1250 0 l 1,4,-1
 916 0 l 1,5,-1
 812 427 l 1,6,-1
 470 427 l 1,7,-1
 369 0 l 1,8,-1
 50 0 l 1,0,-1
643 1331 m 1,9,-1
 604 990 l 1,10,-1
 529 646 l 1,11,-1
 753 646 l 1,12,-1
 681 990 l 1,13,-1
 643 1331 l 1,9,-1
800 1600 m 1,14,-1
 585 1600 l 1,15,-1
 300 1920 l 1,16,-1
 637 1900 l 1,17,-1
 800 1600 l 1,14,-1
EndSplineSet
Validated: 1
EndChar

StartChar: Aacute
Encoding: 193 193 120
Width: 1300
GlyphClass: 1
Flags: W
LayerCount: 2
Fore
SplineSet
50 0 m 1,0,-1
 405 1284 l 1,1,-1
 441 1500 l 1,2,-1
 819 1520 l 1,3,-1
 1250 0 l 1,4,-1
 916 0 l 1,5,-1
 812 427 l 1,6,-1
 470 427 l 1,7,-1
 369 0 l 1,8,-1
 50 0 l 1,0,-1
643 1331 m 1,9,-1
 604 990 l 1,10,-1
 529 646 l 1,11,-1
 753 646 l 1,12,-1
 681 990 l 1,13,-1
 643 1331 l 1,9,-1
663 1900 m 1,14,-1
 1000 1920 l 1,15,-1
 715 1600 l 1,16,-1
 500 1600 l 1,17,-1
 663 1900 l 1,14,-1
EndSplineSet
Validated: 1
EndChar

StartChar: Acircumflex
Encoding: 194 194 121
Width: 1300
GlyphClass: 1
Flags: W
LayerCount: 2
Fore
SplineSet
50 0 m 1,0,-1
 405 1284 l 1,1,-1
 441 1500 l 1,2,-1
 819 1520 l 1,3,-1
 1250 0 l 1,4,-1
 916 0 l 1,5,-1
 812 427 l 1,6,-1
 470 427 l 1,7,-1
 369 0 l 1,8,-1
 50 0 l 1,0,-1
643 1331 m 1,9,-1
 604 990 l 1,10,-1
 529 646 l 1,11,-1
 753 646 l 1,12,-1
 681 990 l 1,13,-1
 643 1331 l 1,9,-1
958 1620 m 1,14,-1
 738 1620 l 1,15,-1
 668 1723 l 1,16,-1
 638 1850 l 1,17,-1
 608 1723 l 1,18,-1
 527 1620 l 1,19,-1
 288 1620 l 1,20,-1
 483 1900 l 1,21,-1
 773 1920 l 1,22,-1
 958 1620 l 1,14,-1
EndSplineSet
Validated: 1
EndChar

StartChar: Atilde
Encoding: 195 195 122
Width: 1300
GlyphClass: 1
Flags: W
LayerCount: 2
Fore
SplineSet
50 0 m 1,0,-1
 405 1284 l 1,1,-1
 441 1500 l 1,2,-1
 819 1520 l 1,3,-1
 1250 0 l 1,4,-1
 916 0 l 1,5,-1
 812 427 l 1,6,-1
 470 427 l 1,7,-1
 369 0 l 1,8,-1
 50 0 l 1,0,-1
643 1331 m 1,9,-1
 604 990 l 1,10,-1
 529 646 l 1,11,-1
 753 646 l 1,12,-1
 681 990 l 1,13,-1
 643 1331 l 1,9,-1
255 1627 m 1,14,15
 259 1667 259 1667 275 1712.5 c 128,-1,16
 291 1758 291 1758 321 1796 c 128,-1,17
 351 1834 351 1834 397 1859 c 128,-1,18
 443 1884 443 1884 506 1884 c 0,19,20
 555 1884 555 1884 588.5 1871.5 c 128,-1,21
 622 1859 622 1859 649 1844 c 128,-1,22
 676 1829 676 1829 700.5 1816.5 c 128,-1,23
 725 1804 725 1804 756 1804 c 0,24,25
 777 1804 777 1804 791 1811 c 128,-1,26
 805 1818 805 1818 814.5 1830 c 128,-1,27
 824 1842 824 1842 829 1858 c 128,-1,28
 834 1874 834 1874 837 1892 c 1,29,-1
 1004 1882 l 1,30,31
 1001 1838 1001 1838 987 1791.5 c 128,-1,32
 973 1745 973 1745 944.5 1707 c 128,-1,33
 916 1669 916 1669 871 1644.5 c 128,-1,34
 826 1620 826 1620 759 1620 c 0,35,36
 713 1620 713 1620 681.5 1632.5 c 128,-1,37
 650 1645 650 1645 624 1660 c 128,-1,38
 598 1675 598 1675 571.5 1687.5 c 128,-1,39
 545 1700 545 1700 510 1700 c 0,40,41
 492 1700 492 1700 480 1693 c 128,-1,42
 468 1686 468 1686 459.5 1675 c 128,-1,43
 451 1664 451 1664 446 1649.5 c 128,-1,44
 441 1635 441 1635 437 1620 c 1,45,-1
 255 1627 l 1,14,15
EndSplineSet
Validated: 1
EndChar

StartChar: Adieresis
Encoding: 196 196 123
Width: 1300
GlyphClass: 1
Flags: W
LayerCount: 2
Fore
SplineSet
50 0 m 1,0,-1
 405 1284 l 1,1,-1
 441 1500 l 1,2,-1
 819 1520 l 1,3,-1
 1250 0 l 1,4,-1
 916 0 l 1,5,-1
 812 427 l 1,6,-1
 470 427 l 1,7,-1
 369 0 l 1,8,-1
 50 0 l 1,0,-1
643 1331 m 1,9,-1
 604 990 l 1,10,-1
 529 646 l 1,11,-1
 753 646 l 1,12,-1
 681 990 l 1,13,-1
 643 1331 l 1,9,-1
304 1866 m 1,14,-1
 580 1866 l 1,15,-1
 580 1600 l 1,16,-1
 304 1600 l 1,17,-1
 304 1866 l 1,14,-1
704 1866 m 1,18,-1
 980 1866 l 1,19,-1
 980 1600 l 1,20,-1
 704 1600 l 1,21,-1
 704 1866 l 1,18,-1
EndSplineSet
Validated: 1
EndChar

StartChar: Aring
Encoding: 197 197 124
Width: 1300
GlyphClass: 1
Flags: W
LayerCount: 2
Fore
SplineSet
644 1927 m 256,0,1
 703 1927 703 1927 754.5 1904.5 c 128,-1,2
 806 1882 806 1882 844.5 1843.5 c 128,-1,3
 883 1805 883 1805 905.5 1753 c 128,-1,4
 928 1701 928 1701 928 1642 c 256,5,6
 928 1583 928 1583 906 1530.5 c 128,-1,7
 884 1478 884 1478 846 1438 c 2,8,-1
 843 1435 l 1,9,-1
 1250 0 l 1,10,-1
 916 0 l 1,11,-1
 812 427 l 1,12,-1
 470 427 l 1,13,-1
 369 0 l 1,14,-1
 50 0 l 1,15,-1
 405 1284 l 1,16,-1
 432 1449 l 1,17,18
 401 1485 401 1485 381 1530 c 0,19,20
 358 1583 358 1583 358 1642 c 256,21,22
 358 1701 358 1701 380.5 1753 c 128,-1,23
 403 1805 403 1805 442 1843.5 c 128,-1,24
 481 1882 481 1882 533 1904.5 c 128,-1,25
 585 1927 585 1927 644 1927 c 256,0,1
643 1331 m 1,26,-1
 604 990 l 1,27,-1
 529 646 l 1,28,-1
 753 646 l 1,29,-1
 681 990 l 1,30,-1
 643 1331 l 1,26,-1
645 1542 m 256,31,32
 665 1542 665 1542 682.5 1550 c 128,-1,33
 700 1558 700 1558 713 1571.5 c 128,-1,34
 726 1585 726 1585 733.5 1603 c 128,-1,35
 741 1621 741 1621 741 1641 c 256,36,37
 741 1661 741 1661 733.5 1678.5 c 128,-1,38
 726 1696 726 1696 713 1709.5 c 128,-1,39
 700 1723 700 1723 682 1730.5 c 128,-1,40
 664 1738 664 1738 644 1738 c 256,41,42
 624 1738 624 1738 606 1730.5 c 128,-1,43
 588 1723 588 1723 575 1709.5 c 128,-1,44
 562 1696 562 1696 554.5 1678.5 c 128,-1,45
 547 1661 547 1661 547 1641 c 256,46,47
 547 1621 547 1621 554.5 1603 c 128,-1,48
 562 1585 562 1585 575.5 1571.5 c 128,-1,49
 589 1558 589 1558 607 1550 c 128,-1,50
 625 1542 625 1542 645 1542 c 256,31,32
EndSplineSet
Validated: 1
EndChar

StartChar: AE
Encoding: 198 198 125
Width: 1300
GlyphClass: 1
Flags: W
LayerCount: 2
Fore
SplineSet
1300 228 m 1,0,-1
 1273 0 l 1,1,-1
 583 0 l 1,2,-1
 601 231 l 1,3,-1
 601 427 l 1,4,-1
 430 427 l 1,5,6
 395 324 395 324 357 213 c 128,-1,7
 319 102 319 102 284 0 c 1,8,-1
 0 0 l 1,9,-1
 445 1284 l 1,10,-1
 491 1500 l 1,11,-1
 1263 1500 l 1,12,-1
 1263 1272 l 1,13,-1
 871 1272 l 1,14,15
 876 1237 876 1237 880 1202 c 128,-1,16
 884 1167 884 1167 887 1133 c 2,17,-1
 887 916 l 1,18,-1
 1196 916 l 1,19,-1
 1196 703 l 1,20,-1
 887 703 l 1,21,-1
 887 360 l 1,22,-1
 880 228 l 1,23,-1
 1300 228 l 1,0,-1
601 1200 m 1,24,-1
 543 851 l 1,25,-1
 478 599 l 1,26,-1
 601 599 l 1,27,-1
 601 1200 l 1,24,-1
EndSplineSet
Validated: 1
EndChar

StartChar: Ccedilla
Encoding: 199 199 126
Width: 1300
GlyphClass: 1
Flags: W
LayerCount: 2
Fore
SplineSet
1210 133 m 1,0,1
 1108 52 1108 52 996 17 c 0,2,3
 944 1 944 1 888 -7 c 1,4,5
 909 -24 909 -24 927 -46 c 0,6,7
 946 -69 946 -69 961.5 -100.5 c 128,-1,8
 977 -132 977 -132 977 -171 c 0,9,10
 977 -221 977 -221 953.5 -264 c 128,-1,11
 930 -307 930 -307 890 -338.5 c 128,-1,12
 850 -370 850 -370 798 -388.5 c 128,-1,13
 746 -407 746 -407 689 -407 c 0,14,15
 629 -407 629 -407 571.5 -389 c 128,-1,16
 514 -371 514 -371 466 -349 c 0,17,18
 411 -323 411 -323 360 -290 c 1,19,-1
 475 -131 l 1,20,21
 507 -151 507 -151 539 -166 c 0,22,23
 565 -179 565 -179 594.5 -189.5 c 128,-1,24
 624 -200 624 -200 646 -200 c 0,25,26
 669 -200 669 -200 689.5 -187.5 c 128,-1,27
 710 -175 710 -175 710 -147 c 0,28,29
 710 -126 710 -126 698 -102.5 c 128,-1,30
 686 -79 686 -79 670 -58 c 128,-1,31
 654 -37 654 -37 638 -21 c 0,32,33
 627 -10 627 -10 621 -4 c 1,34,35
 543 11 543 11 476 45 c 0,36,37
 353 108 353 108 267 215 c 128,-1,38
 181 322 181 322 135.5 465 c 128,-1,39
 90 608 90 608 90 769 c 0,40,41
 90 870 90 870 107 964.5 c 128,-1,42
 124 1059 124 1059 159 1142.5 c 128,-1,43
 194 1226 194 1226 248 1294.5 c 128,-1,44
 302 1363 302 1363 376.5 1412.5 c 128,-1,45
 451 1462 451 1462 546 1489.5 c 128,-1,46
 641 1517 641 1517 758 1517 c 0,47,48
 888 1517 888 1517 1005 1473 c 128,-1,49
 1122 1429 1122 1429 1210 1344 c 1,50,-1
 1062 1160 l 1,51,52
 1029 1182 1029 1182 992.5 1202 c 128,-1,53
 956 1222 956 1222 919 1237 c 128,-1,54
 882 1252 882 1252 845 1261 c 128,-1,55
 808 1270 808 1270 774 1270 c 0,56,57
 679 1270 679 1270 615 1231 c 128,-1,58
 551 1192 551 1192 512 1124.5 c 128,-1,59
 473 1057 473 1057 456.5 966 c 128,-1,60
 440 875 440 875 440 772 c 0,61,62
 440 711 440 711 448.5 647.5 c 128,-1,63
 457 584 457 584 474.5 524 c 128,-1,64
 492 464 492 464 519.5 411 c 128,-1,65
 547 358 547 358 584.5 318.5 c 128,-1,66
 622 279 622 279 670 256 c 128,-1,67
 718 233 718 233 778 233 c 0,68,69
 812 233 812 233 845 238.5 c 128,-1,70
 878 244 878 244 914.5 256.5 c 128,-1,71
 951 269 951 269 994 289.5 c 128,-1,72
 1037 310 1037 310 1091 340 c 1,73,-1
 1210 133 l 1,0,1
EndSplineSet
Validated: 1
EndChar

StartChar: Egrave
Encoding: 200 200 127
Width: 1300
GlyphClass: 1
Flags: W
LayerCount: 2
Fore
SplineSet
1137 228 m 1,0,-1
 1110 0 l 1,1,-1
 150 0 l 1,2,-1
 167 231 l 1,3,-1
 167 1263 l 1,4,-1
 132 1500 l 1,5,-1
 1100 1500 l 1,6,-1
 1100 1272 l 1,7,-1
 503 1272 l 1,8,-1
 518 1134 l 1,9,-1
 518 916 l 1,10,-1
 1034 916 l 1,11,-1
 1034 703 l 1,12,-1
 518 703 l 1,13,-1
 518 360 l 1,14,-1
 510 228 l 1,15,-1
 1137 228 l 1,0,-1
800 1600 m 1,16,-1
 585 1600 l 1,17,-1
 300 1920 l 1,18,-1
 637 1900 l 1,19,-1
 800 1600 l 1,16,-1
EndSplineSet
Validated: 1
EndChar

StartChar: Eacute
Encoding: 201 201 128
Width: 1300
GlyphClass: 1
Flags: W
LayerCount: 2
Fore
SplineSet
1137 228 m 1,0,-1
 1110 0 l 1,1,-1
 150 0 l 1,2,-1
 167 231 l 1,3,-1
 167 1263 l 1,4,-1
 132 1500 l 1,5,-1
 1100 1500 l 1,6,-1
 1100 1272 l 1,7,-1
 503 1272 l 1,8,-1
 518 1134 l 1,9,-1
 518 916 l 1,10,-1
 1034 916 l 1,11,-1
 1034 703 l 1,12,-1
 518 703 l 1,13,-1
 518 360 l 1,14,-1
 510 228 l 1,15,-1
 1137 228 l 1,0,-1
648 1900 m 1,16,-1
 985 1920 l 1,17,-1
 700 1600 l 1,18,-1
 485 1600 l 1,19,-1
 648 1900 l 1,16,-1
EndSplineSet
Validated: 1
EndChar

StartChar: Ecircumflex
Encoding: 202 202 129
Width: 1300
GlyphClass: 1
Flags: W
LayerCount: 2
Fore
SplineSet
1137 228 m 1,0,-1
 1110 0 l 1,1,-1
 150 0 l 1,2,-1
 167 231 l 1,3,-1
 167 1263 l 1,4,-1
 132 1500 l 1,5,-1
 1100 1500 l 1,6,-1
 1100 1272 l 1,7,-1
 503 1272 l 1,8,-1
 518 1134 l 1,9,-1
 518 916 l 1,10,-1
 1034 916 l 1,11,-1
 1034 703 l 1,12,-1
 518 703 l 1,13,-1
 518 360 l 1,14,-1
 510 228 l 1,15,-1
 1137 228 l 1,0,-1
970 1620 m 1,16,-1
 750 1620 l 1,17,-1
 680 1723 l 1,18,-1
 650 1850 l 1,19,-1
 620 1723 l 1,20,-1
 539 1620 l 1,21,-1
 300 1620 l 1,22,-1
 495 1900 l 1,23,-1
 785 1920 l 1,24,-1
 970 1620 l 1,16,-1
EndSplineSet
Validated: 1
EndChar

StartChar: Edieresis
Encoding: 203 203 130
Width: 1300
GlyphClass: 1
Flags: W
LayerCount: 2
Fore
SplineSet
1137 228 m 1,0,-1
 1110 0 l 1,1,-1
 150 0 l 1,2,-1
 167 231 l 1,3,-1
 167 1263 l 1,4,-1
 132 1500 l 1,5,-1
 1100 1500 l 1,6,-1
 1100 1272 l 1,7,-1
 503 1272 l 1,8,-1
 518 1134 l 1,9,-1
 518 916 l 1,10,-1
 1034 916 l 1,11,-1
 1034 703 l 1,12,-1
 518 703 l 1,13,-1
 518 360 l 1,14,-1
 510 228 l 1,15,-1
 1137 228 l 1,0,-1
312 1866 m 1,16,-1
 588 1866 l 1,17,-1
 588 1600 l 1,18,-1
 312 1600 l 1,19,-1
 312 1866 l 1,16,-1
712 1866 m 1,20,-1
 988 1866 l 1,21,-1
 988 1600 l 1,22,-1
 712 1600 l 1,23,-1
 712 1866 l 1,20,-1
EndSplineSet
Validated: 1
EndChar

StartChar: Igrave
Encoding: 204 204 131
Width: 1300
GlyphClass: 1
Flags: W
LayerCount: 2
Fore
SplineSet
189 1500 m 1,0,-1
 1067 1500 l 1,1,-1
 1067 1272 l 1,2,-1
 794 1272 l 1,3,-1
 794 228 l 1,4,-1
 1095 228 l 1,5,-1
 1060 0 l 1,6,-1
 182 0 l 1,7,-1
 182 228 l 1,8,-1
 460 228 l 1,9,-1
 460 1272 l 1,10,-1
 154 1272 l 1,11,-1
 189 1500 l 1,0,-1
795 1600 m 1,12,-1
 580 1600 l 1,13,-1
 295 1920 l 1,14,-1
 632 1900 l 1,15,-1
 795 1600 l 1,12,-1
EndSplineSet
Validated: 1
EndChar

StartChar: Iacute
Encoding: 205 205 132
Width: 1300
GlyphClass: 1
Flags: W
LayerCount: 2
Fore
SplineSet
189 1500 m 1,0,-1
 1067 1500 l 1,1,-1
 1067 1272 l 1,2,-1
 794 1272 l 1,3,-1
 794 228 l 1,4,-1
 1095 228 l 1,5,-1
 1060 0 l 1,6,-1
 182 0 l 1,7,-1
 182 228 l 1,8,-1
 460 228 l 1,9,-1
 460 1272 l 1,10,-1
 154 1272 l 1,11,-1
 189 1500 l 1,0,-1
626 1900 m 1,12,-1
 963 1920 l 1,13,-1
 678 1600 l 1,14,-1
 463 1600 l 1,15,-1
 626 1900 l 1,12,-1
EndSplineSet
Validated: 1
EndChar

StartChar: Icircumflex
Encoding: 206 206 133
Width: 1300
GlyphClass: 1
Flags: W
LayerCount: 2
Fore
SplineSet
189 1500 m 1,0,-1
 1067 1500 l 1,1,-1
 1067 1272 l 1,2,-1
 794 1272 l 1,3,-1
 794 228 l 1,4,-1
 1095 228 l 1,5,-1
 1060 0 l 1,6,-1
 182 0 l 1,7,-1
 182 228 l 1,8,-1
 460 228 l 1,9,-1
 460 1272 l 1,10,-1
 154 1272 l 1,11,-1
 189 1500 l 1,0,-1
955 1624 m 1,12,-1
 735 1624 l 1,13,-1
 665 1727 l 1,14,-1
 635 1854 l 1,15,-1
 605 1727 l 1,16,-1
 524 1624 l 1,17,-1
 285 1624 l 1,18,-1
 480 1904 l 1,19,-1
 770 1924 l 1,20,-1
 955 1624 l 1,12,-1
EndSplineSet
Validated: 1
EndChar

StartChar: Idieresis
Encoding: 207 207 134
Width: 1300
GlyphClass: 1
Flags: W
LayerCount: 2
Fore
SplineSet
189 1500 m 1,0,-1
 1067 1500 l 1,1,-1
 1067 1272 l 1,2,-1
 794 1272 l 1,3,-1
 794 228 l 1,4,-1
 1095 228 l 1,5,-1
 1060 0 l 1,6,-1
 182 0 l 1,7,-1
 182 228 l 1,8,-1
 460 228 l 1,9,-1
 460 1272 l 1,10,-1
 154 1272 l 1,11,-1
 189 1500 l 1,0,-1
291 1966 m 1,12,-1
 567 1966 l 1,13,-1
 567 1700 l 1,14,-1
 291 1700 l 1,15,-1
 291 1966 l 1,12,-1
691 1966 m 1,16,-1
 967 1966 l 1,17,-1
 967 1700 l 1,18,-1
 691 1700 l 1,19,-1
 691 1966 l 1,16,-1
EndSplineSet
Validated: 1
EndChar

StartChar: Ntilde
Encoding: 209 209 135
Width: 1300
GlyphClass: 1
Flags: W
LayerCount: 2
Fore
SplineSet
884 0 m 1,0,-1
 400 950 l 1,1,-1
 390 950 l 1,2,-1
 452 649 l 1,3,-1
 452 0 l 1,4,-1
 129 0 l 1,5,-1
 129 1263 l 1,6,-1
 96 1500 l 1,7,-1
 422 1520 l 1,8,-1
 900 600 l 1,9,-1
 910 600 l 1,10,-1
 851 852 l 1,11,-1
 851 1500 l 1,12,-1
 1173 1520 l 1,13,-1
 1173 0 l 1,14,-1
 884 0 l 1,0,-1
274 1627 m 1,15,16
 278 1667 278 1667 294 1712.5 c 128,-1,17
 310 1758 310 1758 340 1796 c 128,-1,18
 370 1834 370 1834 416 1859 c 128,-1,19
 462 1884 462 1884 525 1884 c 0,20,21
 574 1884 574 1884 607.5 1871.5 c 128,-1,22
 641 1859 641 1859 668 1844 c 128,-1,23
 695 1829 695 1829 719.5 1816.5 c 128,-1,24
 744 1804 744 1804 775 1804 c 0,25,26
 796 1804 796 1804 810 1811 c 128,-1,27
 824 1818 824 1818 833.5 1830 c 128,-1,28
 843 1842 843 1842 848 1858 c 128,-1,29
 853 1874 853 1874 856 1892 c 1,30,-1
 1023 1882 l 1,31,32
 1020 1838 1020 1838 1006 1791.5 c 128,-1,33
 992 1745 992 1745 963.5 1707 c 128,-1,34
 935 1669 935 1669 890 1644.5 c 128,-1,35
 845 1620 845 1620 778 1620 c 0,36,37
 732 1620 732 1620 700.5 1632.5 c 128,-1,38
 669 1645 669 1645 643 1660 c 128,-1,39
 617 1675 617 1675 590.5 1687.5 c 128,-1,40
 564 1700 564 1700 529 1700 c 0,41,42
 511 1700 511 1700 499 1693 c 128,-1,43
 487 1686 487 1686 478.5 1675 c 128,-1,44
 470 1664 470 1664 465 1649.5 c 128,-1,45
 460 1635 460 1635 456 1620 c 1,46,-1
 274 1627 l 1,15,16
EndSplineSet
Validated: 1
EndChar

StartChar: Ograve
Encoding: 210 210 136
Width: 1300
GlyphClass: 1
Flags: W
LayerCount: 2
Fore
SplineSet
623 -17 m 0,0,1
 525 -17 525 -17 442.5 10.5 c 128,-1,2
 360 38 360 38 293.5 88.5 c 128,-1,3
 227 139 227 139 176.5 209 c 128,-1,4
 126 279 126 279 92 364.5 c 128,-1,5
 58 450 58 450 41 547.5 c 128,-1,6
 24 645 24 645 24 750 c 0,7,8
 24 907 24 907 61 1047 c 128,-1,9
 98 1187 98 1187 172.5 1291 c 128,-1,10
 247 1395 247 1395 359.5 1456 c 128,-1,11
 472 1517 472 1517 623 1517 c 0,12,13
 770 1517 770 1517 881.5 1456 c 128,-1,14
 993 1395 993 1395 1068.5 1291 c 128,-1,15
 1144 1187 1144 1187 1182.5 1047 c 128,-1,16
 1221 907 1221 907 1221 750 c 0,17,18
 1221 645 1221 645 1204.5 547.5 c 128,-1,19
 1188 450 1188 450 1155 364.5 c 128,-1,20
 1122 279 1122 279 1072.5 209 c 128,-1,21
 1023 139 1023 139 956.5 88.5 c 128,-1,22
 890 38 890 38 806.5 10.5 c 128,-1,23
 723 -17 723 -17 623 -17 c 0,0,1
871 721 m 0,24,25
 871 783 871 783 867.5 848 c 128,-1,26
 864 913 864 913 854.5 974.5 c 128,-1,27
 845 1036 845 1036 827.5 1090.5 c 128,-1,28
 810 1145 810 1145 781.5 1186 c 128,-1,29
 753 1227 753 1227 712.5 1250.5 c 128,-1,30
 672 1274 672 1274 617 1274 c 0,31,32
 565 1274 565 1274 527 1252.5 c 128,-1,33
 489 1231 489 1231 462 1194.5 c 128,-1,34
 435 1158 435 1158 417.5 1109.5 c 128,-1,35
 400 1061 400 1061 390.5 1006.5 c 128,-1,36
 381 952 381 952 377.5 894.5 c 128,-1,37
 374 837 374 837 374 783 c 0,38,39
 374 720 374 720 377.5 654.5 c 128,-1,40
 381 589 381 589 391 527 c 128,-1,41
 401 465 401 465 418.5 410.5 c 128,-1,42
 436 356 436 356 464 315 c 128,-1,43
 492 274 492 274 532.5 250 c 128,-1,44
 573 226 573 226 628 226 c 0,45,46
 680 226 680 226 718 247.5 c 128,-1,47
 756 269 756 269 783 306.5 c 128,-1,48
 810 344 810 344 827 393 c 128,-1,49
 844 442 844 442 854 497 c 128,-1,50
 864 552 864 552 867.5 609.5 c 128,-1,51
 871 667 871 667 871 721 c 0,24,25
800 1600 m 1,52,-1
 585 1600 l 1,53,-1
 300 1920 l 1,54,-1
 637 1900 l 1,55,-1
 800 1600 l 1,52,-1
EndSplineSet
Validated: 1
EndChar

StartChar: Oacute
Encoding: 211 211 137
Width: 1300
GlyphClass: 1
Flags: W
LayerCount: 2
Fore
SplineSet
623 -17 m 0,0,1
 525 -17 525 -17 442.5 10.5 c 128,-1,2
 360 38 360 38 293.5 88.5 c 128,-1,3
 227 139 227 139 176.5 209 c 128,-1,4
 126 279 126 279 92 364.5 c 128,-1,5
 58 450 58 450 41 547.5 c 128,-1,6
 24 645 24 645 24 750 c 0,7,8
 24 907 24 907 61 1047 c 128,-1,9
 98 1187 98 1187 172.5 1291 c 128,-1,10
 247 1395 247 1395 359.5 1456 c 128,-1,11
 472 1517 472 1517 623 1517 c 0,12,13
 770 1517 770 1517 881.5 1456 c 128,-1,14
 993 1395 993 1395 1068.5 1291 c 128,-1,15
 1144 1187 1144 1187 1182.5 1047 c 128,-1,16
 1221 907 1221 907 1221 750 c 0,17,18
 1221 645 1221 645 1204.5 547.5 c 128,-1,19
 1188 450 1188 450 1155 364.5 c 128,-1,20
 1122 279 1122 279 1072.5 209 c 128,-1,21
 1023 139 1023 139 956.5 88.5 c 128,-1,22
 890 38 890 38 806.5 10.5 c 128,-1,23
 723 -17 723 -17 623 -17 c 0,0,1
871 721 m 0,24,25
 871 783 871 783 867.5 848 c 128,-1,26
 864 913 864 913 854.5 974.5 c 128,-1,27
 845 1036 845 1036 827.5 1090.5 c 128,-1,28
 810 1145 810 1145 781.5 1186 c 128,-1,29
 753 1227 753 1227 712.5 1250.5 c 128,-1,30
 672 1274 672 1274 617 1274 c 0,31,32
 565 1274 565 1274 527 1252.5 c 128,-1,33
 489 1231 489 1231 462 1194.5 c 128,-1,34
 435 1158 435 1158 417.5 1109.5 c 128,-1,35
 400 1061 400 1061 390.5 1006.5 c 128,-1,36
 381 952 381 952 377.5 894.5 c 128,-1,37
 374 837 374 837 374 783 c 0,38,39
 374 720 374 720 377.5 654.5 c 128,-1,40
 381 589 381 589 391 527 c 128,-1,41
 401 465 401 465 418.5 410.5 c 128,-1,42
 436 356 436 356 464 315 c 128,-1,43
 492 274 492 274 532.5 250 c 128,-1,44
 573 226 573 226 628 226 c 0,45,46
 680 226 680 226 718 247.5 c 128,-1,47
 756 269 756 269 783 306.5 c 128,-1,48
 810 344 810 344 827 393 c 128,-1,49
 844 442 844 442 854 497 c 128,-1,50
 864 552 864 552 867.5 609.5 c 128,-1,51
 871 667 871 667 871 721 c 0,24,25
563 1900 m 1,52,-1
 900 1920 l 1,53,-1
 615 1600 l 1,54,-1
 400 1600 l 1,55,-1
 563 1900 l 1,52,-1
EndSplineSet
Validated: 1
EndChar

StartChar: Ocircumflex
Encoding: 212 212 138
Width: 1300
GlyphClass: 1
Flags: W
LayerCount: 2
Fore
SplineSet
622 -17 m 0,0,1
 524 -17 524 -17 441.5 10.5 c 128,-1,2
 359 38 359 38 292.5 88.5 c 128,-1,3
 226 139 226 139 175.5 209 c 128,-1,4
 125 279 125 279 91 364.5 c 128,-1,5
 57 450 57 450 40 547.5 c 128,-1,6
 23 645 23 645 23 750 c 0,7,8
 23 907 23 907 60 1047 c 128,-1,9
 97 1187 97 1187 171.5 1291 c 128,-1,10
 246 1395 246 1395 358.5 1456 c 128,-1,11
 471 1517 471 1517 622 1517 c 0,12,13
 769 1517 769 1517 880.5 1456 c 128,-1,14
 992 1395 992 1395 1067.5 1291 c 128,-1,15
 1143 1187 1143 1187 1181.5 1047 c 128,-1,16
 1220 907 1220 907 1220 750 c 0,17,18
 1220 645 1220 645 1203.5 547.5 c 128,-1,19
 1187 450 1187 450 1154 364.5 c 128,-1,20
 1121 279 1121 279 1071.5 209 c 128,-1,21
 1022 139 1022 139 955.5 88.5 c 128,-1,22
 889 38 889 38 805.5 10.5 c 128,-1,23
 722 -17 722 -17 622 -17 c 0,0,1
870 721 m 0,24,25
 870 783 870 783 866.5 848 c 128,-1,26
 863 913 863 913 853.5 974.5 c 128,-1,27
 844 1036 844 1036 826.5 1090.5 c 128,-1,28
 809 1145 809 1145 780.5 1186 c 128,-1,29
 752 1227 752 1227 711.5 1250.5 c 128,-1,30
 671 1274 671 1274 616 1274 c 0,31,32
 564 1274 564 1274 526 1252.5 c 128,-1,33
 488 1231 488 1231 461 1194.5 c 128,-1,34
 434 1158 434 1158 416.5 1109.5 c 128,-1,35
 399 1061 399 1061 389.5 1006.5 c 128,-1,36
 380 952 380 952 376.5 894.5 c 128,-1,37
 373 837 373 837 373 783 c 0,38,39
 373 720 373 720 376.5 654.5 c 128,-1,40
 380 589 380 589 390 527 c 128,-1,41
 400 465 400 465 417.5 410.5 c 128,-1,42
 435 356 435 356 463 315 c 128,-1,43
 491 274 491 274 531.5 250 c 128,-1,44
 572 226 572 226 627 226 c 0,45,46
 679 226 679 226 717 247.5 c 128,-1,47
 755 269 755 269 782 306.5 c 128,-1,48
 809 344 809 344 826 393 c 128,-1,49
 843 442 843 442 853 497 c 128,-1,50
 863 552 863 552 866.5 609.5 c 128,-1,51
 870 667 870 667 870 721 c 0,24,25
952 1620 m 1,52,-1
 732 1620 l 1,53,-1
 662 1723 l 1,54,-1
 632 1850 l 1,55,-1
 602 1723 l 1,56,-1
 521 1620 l 1,57,-1
 282 1620 l 1,58,-1
 477 1900 l 1,59,-1
 767 1920 l 1,60,-1
 952 1620 l 1,52,-1
EndSplineSet
Validated: 1
EndChar

StartChar: Otilde
Encoding: 213 213 139
Width: 1300
GlyphClass: 1
Flags: W
LayerCount: 2
Fore
SplineSet
623 -17 m 0,0,1
 525 -17 525 -17 442.5 10.5 c 128,-1,2
 360 38 360 38 293.5 88.5 c 128,-1,3
 227 139 227 139 176.5 209 c 128,-1,4
 126 279 126 279 92 364.5 c 128,-1,5
 58 450 58 450 41 547.5 c 128,-1,6
 24 645 24 645 24 750 c 0,7,8
 24 907 24 907 61 1047 c 128,-1,9
 98 1187 98 1187 172.5 1291 c 128,-1,10
 247 1395 247 1395 359.5 1456 c 128,-1,11
 472 1517 472 1517 623 1517 c 0,12,13
 770 1517 770 1517 881.5 1456 c 128,-1,14
 993 1395 993 1395 1068.5 1291 c 128,-1,15
 1144 1187 1144 1187 1182.5 1047 c 128,-1,16
 1221 907 1221 907 1221 750 c 0,17,18
 1221 645 1221 645 1204.5 547.5 c 128,-1,19
 1188 450 1188 450 1155 364.5 c 128,-1,20
 1122 279 1122 279 1072.5 209 c 128,-1,21
 1023 139 1023 139 956.5 88.5 c 128,-1,22
 890 38 890 38 806.5 10.5 c 128,-1,23
 723 -17 723 -17 623 -17 c 0,0,1
871 721 m 0,24,25
 871 783 871 783 867.5 848 c 128,-1,26
 864 913 864 913 854.5 974.5 c 128,-1,27
 845 1036 845 1036 827.5 1090.5 c 128,-1,28
 810 1145 810 1145 781.5 1186 c 128,-1,29
 753 1227 753 1227 712.5 1250.5 c 128,-1,30
 672 1274 672 1274 617 1274 c 0,31,32
 565 1274 565 1274 527 1252.5 c 128,-1,33
 489 1231 489 1231 462 1194.5 c 128,-1,34
 435 1158 435 1158 417.5 1109.5 c 128,-1,35
 400 1061 400 1061 390.5 1006.5 c 128,-1,36
 381 952 381 952 377.5 894.5 c 128,-1,37
 374 837 374 837 374 783 c 0,38,39
 374 720 374 720 377.5 654.5 c 128,-1,40
 381 589 381 589 391 527 c 128,-1,41
 401 465 401 465 418.5 410.5 c 128,-1,42
 436 356 436 356 464 315 c 128,-1,43
 492 274 492 274 532.5 250 c 128,-1,44
 573 226 573 226 628 226 c 0,45,46
 680 226 680 226 718 247.5 c 128,-1,47
 756 269 756 269 783 306.5 c 128,-1,48
 810 344 810 344 827 393 c 128,-1,49
 844 442 844 442 854 497 c 128,-1,50
 864 552 864 552 867.5 609.5 c 128,-1,51
 871 667 871 667 871 721 c 0,24,25
225 1627 m 1,52,53
 229 1667 229 1667 245 1712.5 c 128,-1,54
 261 1758 261 1758 291 1796 c 128,-1,55
 321 1834 321 1834 367 1859 c 128,-1,56
 413 1884 413 1884 476 1884 c 0,57,58
 525 1884 525 1884 558.5 1871.5 c 128,-1,59
 592 1859 592 1859 619 1844 c 128,-1,60
 646 1829 646 1829 670.5 1816.5 c 128,-1,61
 695 1804 695 1804 726 1804 c 0,62,63
 747 1804 747 1804 761 1811 c 128,-1,64
 775 1818 775 1818 784.5 1830 c 128,-1,65
 794 1842 794 1842 799 1858 c 128,-1,66
 804 1874 804 1874 807 1892 c 1,67,-1
 974 1882 l 1,68,69
 971 1838 971 1838 957 1791.5 c 128,-1,70
 943 1745 943 1745 914.5 1707 c 128,-1,71
 886 1669 886 1669 841 1644.5 c 128,-1,72
 796 1620 796 1620 729 1620 c 0,73,74
 683 1620 683 1620 651.5 1632.5 c 128,-1,75
 620 1645 620 1645 594 1660 c 128,-1,76
 568 1675 568 1675 541.5 1687.5 c 128,-1,77
 515 1700 515 1700 480 1700 c 0,78,79
 462 1700 462 1700 450 1693 c 128,-1,80
 438 1686 438 1686 429.5 1675 c 128,-1,81
 421 1664 421 1664 416 1649.5 c 128,-1,82
 411 1635 411 1635 407 1620 c 1,83,-1
 225 1627 l 1,52,53
EndSplineSet
Validated: 1
EndChar

StartChar: Odieresis
Encoding: 214 214 140
Width: 1300
GlyphClass: 1
Flags: W
LayerCount: 2
Fore
SplineSet
623 -17 m 0,0,1
 525 -17 525 -17 442.5 10.5 c 128,-1,2
 360 38 360 38 293.5 88.5 c 128,-1,3
 227 139 227 139 176.5 209 c 128,-1,4
 126 279 126 279 92 364.5 c 128,-1,5
 58 450 58 450 41 547.5 c 128,-1,6
 24 645 24 645 24 750 c 0,7,8
 24 907 24 907 61 1047 c 128,-1,9
 98 1187 98 1187 172.5 1291 c 128,-1,10
 247 1395 247 1395 359.5 1456 c 128,-1,11
 472 1517 472 1517 623 1517 c 0,12,13
 770 1517 770 1517 881.5 1456 c 128,-1,14
 993 1395 993 1395 1068.5 1291 c 128,-1,15
 1144 1187 1144 1187 1182.5 1047 c 128,-1,16
 1221 907 1221 907 1221 750 c 0,17,18
 1221 645 1221 645 1204.5 547.5 c 128,-1,19
 1188 450 1188 450 1155 364.5 c 128,-1,20
 1122 279 1122 279 1072.5 209 c 128,-1,21
 1023 139 1023 139 956.5 88.5 c 128,-1,22
 890 38 890 38 806.5 10.5 c 128,-1,23
 723 -17 723 -17 623 -17 c 0,0,1
871 721 m 0,24,25
 871 783 871 783 867.5 848 c 128,-1,26
 864 913 864 913 854.5 974.5 c 128,-1,27
 845 1036 845 1036 827.5 1090.5 c 128,-1,28
 810 1145 810 1145 781.5 1186 c 128,-1,29
 753 1227 753 1227 712.5 1250.5 c 128,-1,30
 672 1274 672 1274 617 1274 c 0,31,32
 565 1274 565 1274 527 1252.5 c 128,-1,33
 489 1231 489 1231 462 1194.5 c 128,-1,34
 435 1158 435 1158 417.5 1109.5 c 128,-1,35
 400 1061 400 1061 390.5 1006.5 c 128,-1,36
 381 952 381 952 377.5 894.5 c 128,-1,37
 374 837 374 837 374 783 c 0,38,39
 374 720 374 720 377.5 654.5 c 128,-1,40
 381 589 381 589 391 527 c 128,-1,41
 401 465 401 465 418.5 410.5 c 128,-1,42
 436 356 436 356 464 315 c 128,-1,43
 492 274 492 274 532.5 250 c 128,-1,44
 573 226 573 226 628 226 c 0,45,46
 680 226 680 226 718 247.5 c 128,-1,47
 756 269 756 269 783 306.5 c 128,-1,48
 810 344 810 344 827 393 c 128,-1,49
 844 442 844 442 854 497 c 128,-1,50
 864 552 864 552 867.5 609.5 c 128,-1,51
 871 667 871 667 871 721 c 0,24,25
282 1866 m 1,52,-1
 558 1866 l 1,53,-1
 558 1600 l 1,54,-1
 282 1600 l 1,55,-1
 282 1866 l 1,52,-1
682 1866 m 1,56,-1
 958 1866 l 1,57,-1
 958 1600 l 1,58,-1
 682 1600 l 1,59,-1
 682 1866 l 1,56,-1
EndSplineSet
Validated: 1
EndChar

StartChar: Oslash
Encoding: 216 216 141
Width: 1300
GlyphClass: 1
Flags: W
LayerCount: 2
Fore
SplineSet
649 -17 m 0,0,1
 551 -17 551 -17 468 10 c 0,2,3
 432 22 432 22 400 38 c 1,4,-1
 331 -100 l 1,5,-1
 121 -100 l 1,6,-1
 248 152 l 1,7,8
 224 179 224 179 202 209 c 0,9,10
 152 279 152 279 118 364.5 c 128,-1,11
 84 450 84 450 67 547.5 c 128,-1,12
 50 645 50 645 50 750 c 0,13,14
 50 907 50 907 87 1047 c 128,-1,15
 124 1187 124 1187 198.5 1291 c 128,-1,16
 273 1395 273 1395 385.5 1456 c 128,-1,17
 498 1517 498 1517 649 1517 c 0,18,19
 796 1517 796 1517 907 1456 c 1,20,-1
 980 1600 l 1,21,-1
 1180 1600 l 1,22,-1
 1051 1343 l 1,23,24
 1074 1318 1074 1318 1094 1291 c 0,25,26
 1170 1187 1170 1187 1208.5 1047 c 128,-1,27
 1247 907 1247 907 1247 750 c 0,28,29
 1247 645 1247 645 1230.5 547.5 c 128,-1,30
 1214 450 1214 450 1181 364.5 c 128,-1,31
 1148 279 1148 279 1098.5 209 c 128,-1,32
 1049 139 1049 139 982.5 88.5 c 128,-1,33
 916 38 916 38 832.5 10.5 c 128,-1,34
 749 -17 749 -17 649 -17 c 0,0,1
738 1250 m 0,35,36
 698 1274 698 1274 643 1274 c 0,37,38
 591 1274 591 1274 553 1252.5 c 128,-1,39
 515 1231 515 1231 488 1194.5 c 128,-1,40
 461 1158 461 1158 443.5 1109.5 c 128,-1,41
 426 1061 426 1061 416.5 1006.5 c 128,-1,42
 407 952 407 952 403.5 894.5 c 128,-1,43
 400 837 400 837 400 783 c 0,44,45
 400 720 400 720 403.5 654.5 c 128,-1,46
 407 589 407 589 417 527 c 0,47,48
 419 511 419 511 422 496 c 1,49,-1
 785 1214 l 1,50,51
 764 1235 764 1235 738 1250 c 0,35,36
897 721 m 0,52,53
 897 783 897 783 893.5 848 c 128,-1,54
 890 913 890 913 880 974 c 0,55,56
 879 984 879 984 877 994 c 1,57,-1
 520 279 l 1,58,59
 537 262 537 262 558 250 c 0,60,61
 599 226 599 226 654 226 c 0,62,63
 706 226 706 226 744 247.5 c 128,-1,64
 782 269 782 269 809 306.5 c 128,-1,65
 836 344 836 344 853 393 c 128,-1,66
 870 442 870 442 880 497 c 128,-1,67
 890 552 890 552 893.5 609.5 c 128,-1,68
 897 667 897 667 897 721 c 0,52,53
EndSplineSet
Validated: 1
EndChar

StartChar: Ugrave
Encoding: 217 217 142
Width: 1300
GlyphClass: 1
Flags: W
LayerCount: 2
Fore
SplineSet
1160 1500 m 1,0,-1
 1160 534 l 2,1,2
 1160 395 1160 395 1123 291.5 c 128,-1,3
 1086 188 1086 188 1016 119.5 c 128,-1,4
 946 51 946 51 845.5 17 c 128,-1,5
 745 -17 745 -17 619 -17 c 0,6,7
 483 -17 483 -17 389 26 c 128,-1,8
 295 69 295 69 236.5 148 c 128,-1,9
 178 227 178 227 152 337.5 c 128,-1,10
 126 448 126 448 126 582 c 2,11,-1
 126 1263 l 1,12,-1
 92 1500 l 1,13,-1
 458 1520 l 1,14,-1
 458 564 l 2,15,16
 458 483 458 483 464.5 419 c 128,-1,17
 471 355 471 355 491.5 311 c 128,-1,18
 512 267 512 267 549.5 244 c 128,-1,19
 587 221 587 221 650 221 c 0,20,21
 700 221 700 221 734 239.5 c 128,-1,22
 768 258 768 258 789 295 c 128,-1,23
 810 332 810 332 819 387 c 128,-1,24
 828 442 828 442 828 516 c 2,25,-1
 828 1500 l 1,26,-1
 1160 1500 l 1,0,-1
800 1600 m 1,27,-1
 585 1600 l 1,28,-1
 300 1920 l 1,29,-1
 637 1900 l 1,30,-1
 800 1600 l 1,27,-1
EndSplineSet
Validated: 1
EndChar

StartChar: Uacute
Encoding: 218 218 143
Width: 1300
GlyphClass: 1
Flags: W
LayerCount: 2
Fore
SplineSet
1160 1500 m 1,0,-1
 1160 534 l 2,1,2
 1160 395 1160 395 1123 291.5 c 128,-1,3
 1086 188 1086 188 1016 119.5 c 128,-1,4
 946 51 946 51 845.5 17 c 128,-1,5
 745 -17 745 -17 619 -17 c 0,6,7
 483 -17 483 -17 389 26 c 128,-1,8
 295 69 295 69 236.5 148 c 128,-1,9
 178 227 178 227 152 337.5 c 128,-1,10
 126 448 126 448 126 582 c 2,11,-1
 126 1263 l 1,12,-1
 92 1500 l 1,13,-1
 458 1520 l 1,14,-1
 458 564 l 2,15,16
 458 483 458 483 464.5 419 c 128,-1,17
 471 355 471 355 491.5 311 c 128,-1,18
 512 267 512 267 549.5 244 c 128,-1,19
 587 221 587 221 650 221 c 0,20,21
 700 221 700 221 734 239.5 c 128,-1,22
 768 258 768 258 789 295 c 128,-1,23
 810 332 810 332 819 387 c 128,-1,24
 828 442 828 442 828 516 c 2,25,-1
 828 1500 l 1,26,-1
 1160 1500 l 1,0,-1
663 1900 m 1,27,-1
 1000 1920 l 1,28,-1
 715 1600 l 1,29,-1
 500 1600 l 1,30,-1
 663 1900 l 1,27,-1
EndSplineSet
Validated: 1
EndChar

StartChar: Ucircumflex
Encoding: 219 219 144
Width: 1300
GlyphClass: 1
Flags: W
LayerCount: 2
Fore
SplineSet
1160 1500 m 1,0,-1
 1160 534 l 2,1,2
 1160 395 1160 395 1123 291.5 c 128,-1,3
 1086 188 1086 188 1016 119.5 c 128,-1,4
 946 51 946 51 845.5 17 c 128,-1,5
 745 -17 745 -17 619 -17 c 0,6,7
 483 -17 483 -17 389 26 c 128,-1,8
 295 69 295 69 236.5 148 c 128,-1,9
 178 227 178 227 152 337.5 c 128,-1,10
 126 448 126 448 126 582 c 2,11,-1
 126 1263 l 1,12,-1
 92 1500 l 1,13,-1
 458 1520 l 1,14,-1
 458 564 l 2,15,16
 458 483 458 483 464.5 419 c 128,-1,17
 471 355 471 355 491.5 311 c 128,-1,18
 512 267 512 267 549.5 244 c 128,-1,19
 587 221 587 221 650 221 c 0,20,21
 700 221 700 221 734 239.5 c 128,-1,22
 768 258 768 258 789 295 c 128,-1,23
 810 332 810 332 819 387 c 128,-1,24
 828 442 828 442 828 516 c 2,25,-1
 828 1500 l 1,26,-1
 1160 1500 l 1,0,-1
969 1620 m 1,27,-1
 749 1620 l 1,28,-1
 679 1723 l 1,29,-1
 649 1850 l 1,30,-1
 619 1723 l 1,31,-1
 538 1620 l 1,32,-1
 299 1620 l 1,33,-1
 494 1900 l 1,34,-1
 784 1920 l 1,35,-1
 969 1620 l 1,27,-1
EndSplineSet
Validated: 1
EndChar

StartChar: Udieresis
Encoding: 220 220 145
Width: 1300
GlyphClass: 1
Flags: W
LayerCount: 2
Fore
SplineSet
1160 1500 m 1,0,-1
 1160 534 l 2,1,2
 1160 395 1160 395 1123 291.5 c 128,-1,3
 1086 188 1086 188 1016 119.5 c 128,-1,4
 946 51 946 51 845.5 17 c 128,-1,5
 745 -17 745 -17 619 -17 c 0,6,7
 483 -17 483 -17 389 26 c 128,-1,8
 295 69 295 69 236.5 148 c 128,-1,9
 178 227 178 227 152 337.5 c 128,-1,10
 126 448 126 448 126 582 c 2,11,-1
 126 1263 l 1,12,-1
 92 1500 l 1,13,-1
 458 1520 l 1,14,-1
 458 564 l 2,15,16
 458 483 458 483 464.5 419 c 128,-1,17
 471 355 471 355 491.5 311 c 128,-1,18
 512 267 512 267 549.5 244 c 128,-1,19
 587 221 587 221 650 221 c 0,20,21
 700 221 700 221 734 239.5 c 128,-1,22
 768 258 768 258 789 295 c 128,-1,23
 810 332 810 332 819 387 c 128,-1,24
 828 442 828 442 828 516 c 2,25,-1
 828 1500 l 1,26,-1
 1160 1500 l 1,0,-1
311 1866 m 1,27,-1
 587 1866 l 1,28,-1
 587 1600 l 1,29,-1
 311 1600 l 1,30,-1
 311 1866 l 1,27,-1
711 1866 m 1,31,-1
 987 1866 l 1,32,-1
 987 1600 l 1,33,-1
 711 1600 l 1,34,-1
 711 1866 l 1,31,-1
EndSplineSet
Validated: 1
EndChar

StartChar: germandbls
Encoding: 223 223 146
Width: 1300
GlyphClass: 1
Flags: W
LayerCount: 2
Fore
SplineSet
470 -17 m 1,0,-1
 127 0 l 1,1,-1
 127 1073 l 2,2,3
 127 1176 127 1176 162.5 1254 c 128,-1,4
 198 1332 198 1332 262.5 1384.5 c 128,-1,5
 327 1437 327 1437 416 1463 c 128,-1,6
 505 1489 505 1489 613 1489 c 0,7,8
 844 1489 844 1489 954 1373 c 0,9,10
 979 1346 979 1346 1000 1319.5 c 128,-1,11
 1021 1293 1021 1293 1036 1263.5 c 128,-1,12
 1051 1234 1051 1234 1059.5 1200.5 c 128,-1,13
 1068 1167 1068 1167 1068 1127 c 0,14,15
 1068 1074 1068 1074 1053 1027 c 128,-1,16
 1038 980 1038 980 1010.5 940 c 128,-1,17
 983 900 983 900 944.5 867.5 c 128,-1,18
 906 835 906 835 859 811 c 1,19,20
 922 790 922 790 977.5 759 c 128,-1,21
 1033 728 1033 728 1074 686 c 128,-1,22
 1115 644 1115 644 1138.5 589.5 c 128,-1,23
 1162 535 1162 535 1162 466 c 0,24,25
 1162 380 1162 380 1138 312 c 128,-1,26
 1114 244 1114 244 1073 192 c 128,-1,27
 1032 140 1032 140 977.5 103.5 c 128,-1,28
 923 67 923 67 860.5 44 c 128,-1,29
 798 21 798 21 731.5 10.5 c 128,-1,30
 665 0 665 0 601 0 c 1,31,-1
 520 224 l 1,32,33
 666 227 666 227 746 283 c 128,-1,34
 826 339 826 339 826 457 c 0,35,36
 826 516 826 516 809 558.5 c 128,-1,37
 792 601 792 601 761 628 c 128,-1,38
 730 655 730 655 688 668 c 128,-1,39
 646 681 646 681 595 681 c 1,40,-1
 500 902 l 1,41,42
 554 907 554 907 598.5 921.5 c 128,-1,43
 643 936 643 936 674.5 961 c 128,-1,44
 706 986 706 986 723 1022 c 128,-1,45
 740 1058 740 1058 740 1107 c 0,46,47
 740 1142 740 1142 729 1173 c 128,-1,48
 718 1204 718 1204 700 1227 c 128,-1,49
 682 1250 682 1250 658.5 1263 c 128,-1,50
 635 1276 635 1276 610 1276 c 0,51,52
 539 1276 539 1276 504.5 1239.5 c 128,-1,53
 470 1203 470 1203 470 1119 c 2,54,-1
 470 -17 l 1,0,-1
EndSplineSet
Validated: 1
EndChar

StartChar: agrave
Encoding: 224 224 147
Width: 1300
GlyphClass: 1
Flags: W
LayerCount: 2
Fore
SplineSet
1135 0 m 1,0,-1
 795 0 l 1,1,-1
 795 100 l 1,2,-1
 711 5 l 1,3,4
 676 -6 676 -6 641.5 -11.5 c 128,-1,5
 607 -17 607 -17 577 -17 c 0,6,7
 494 -17 494 -17 410 7.5 c 128,-1,8
 326 32 326 32 258.5 79.5 c 128,-1,9
 191 127 191 127 148.5 197 c 128,-1,10
 106 267 106 267 106 358 c 0,11,12
 106 454 106 454 149 524 c 128,-1,13
 192 594 192 594 262.5 639.5 c 128,-1,14
 333 685 333 685 422 707 c 128,-1,15
 511 729 511 729 604 729 c 0,16,17
 661 729 661 729 708 725.5 c 128,-1,18
 755 722 755 722 795 715 c 1,19,20
 791 800 791 800 752 850 c 128,-1,21
 713 900 713 900 632 900 c 0,22,23
 588 900 588 900 543.5 895 c 128,-1,24
 499 890 499 890 458 881 c 128,-1,25
 417 872 417 872 381.5 861 c 128,-1,26
 346 850 346 850 319 838 c 1,27,-1
 225 1023 l 1,28,29
 271 1044 271 1044 313.5 1061.5 c 128,-1,30
 356 1079 356 1079 403.5 1091.5 c 128,-1,31
 451 1104 451 1104 508 1110.5 c 128,-1,32
 565 1117 565 1117 642 1117 c 0,33,34
 770 1117 770 1117 859.5 1085.5 c 128,-1,35
 949 1054 949 1054 1005 996.5 c 128,-1,36
 1061 939 1061 939 1086.5 858.5 c 128,-1,37
 1112 778 1112 778 1112 681 c 2,38,-1
 1112 200 l 1,39,-1
 1135 0 l 1,0,-1
795 500 m 1,40,41
 780 501 780 501 760 502 c 128,-1,42
 740 503 740 503 719 503.5 c 128,-1,43
 698 504 698 504 677.5 504.5 c 128,-1,44
 657 505 657 505 642 505 c 0,45,46
 604 505 604 505 566.5 498 c 128,-1,47
 529 491 529 491 500 474 c 128,-1,48
 471 457 471 457 453 429 c 128,-1,49
 435 401 435 401 435 359 c 0,50,51
 435 325 435 325 447.5 297.5 c 128,-1,52
 460 270 460 270 481 250 c 128,-1,53
 502 230 502 230 529 219 c 128,-1,54
 556 208 556 208 585 208 c 0,55,56
 642 208 642 208 694 233 c 128,-1,57
 746 258 746 258 795 300 c 1,58,-1
 795 500 l 1,40,41
863 1200 m 1,59,-1
 648 1200 l 1,60,-1
 363 1520 l 1,61,-1
 700 1500 l 1,62,-1
 863 1200 l 1,59,-1
EndSplineSet
Validated: 1
EndChar

StartChar: aacute
Encoding: 225 225 148
Width: 1300
GlyphClass: 1
Flags: W
LayerCount: 2
Fore
SplineSet
1135 0 m 1,0,-1
 795 0 l 1,1,-1
 795 100 l 1,2,-1
 711 5 l 1,3,4
 676 -6 676 -6 641.5 -11.5 c 128,-1,5
 607 -17 607 -17 577 -17 c 0,6,7
 494 -17 494 -17 410 7.5 c 128,-1,8
 326 32 326 32 258.5 79.5 c 128,-1,9
 191 127 191 127 148.5 197 c 128,-1,10
 106 267 106 267 106 358 c 0,11,12
 106 454 106 454 149 524 c 128,-1,13
 192 594 192 594 262.5 639.5 c 128,-1,14
 333 685 333 685 422 707 c 128,-1,15
 511 729 511 729 604 729 c 0,16,17
 661 729 661 729 708 725.5 c 128,-1,18
 755 722 755 722 795 715 c 1,19,20
 791 800 791 800 752 850 c 128,-1,21
 713 900 713 900 632 900 c 0,22,23
 588 900 588 900 543.5 895 c 128,-1,24
 499 890 499 890 458 881 c 128,-1,25
 417 872 417 872 381.5 861 c 128,-1,26
 346 850 346 850 319 838 c 1,27,-1
 225 1023 l 1,28,29
 271 1044 271 1044 313.5 1061.5 c 128,-1,30
 356 1079 356 1079 403.5 1091.5 c 128,-1,31
 451 1104 451 1104 508 1110.5 c 128,-1,32
 565 1117 565 1117 642 1117 c 0,33,34
 770 1117 770 1117 859.5 1085.5 c 128,-1,35
 949 1054 949 1054 1005 996.5 c 128,-1,36
 1061 939 1061 939 1086.5 858.5 c 128,-1,37
 1112 778 1112 778 1112 681 c 2,38,-1
 1112 200 l 1,39,-1
 1135 0 l 1,0,-1
795 500 m 1,40,41
 780 501 780 501 760 502 c 128,-1,42
 740 503 740 503 719 503.5 c 128,-1,43
 698 504 698 504 677.5 504.5 c 128,-1,44
 657 505 657 505 642 505 c 0,45,46
 604 505 604 505 566.5 498 c 128,-1,47
 529 491 529 491 500 474 c 128,-1,48
 471 457 471 457 453 429 c 128,-1,49
 435 401 435 401 435 359 c 0,50,51
 435 325 435 325 447.5 297.5 c 128,-1,52
 460 270 460 270 481 250 c 128,-1,53
 502 230 502 230 529 219 c 128,-1,54
 556 208 556 208 585 208 c 0,55,56
 642 208 642 208 694 233 c 128,-1,57
 746 258 746 258 795 300 c 1,58,-1
 795 500 l 1,40,41
663 1500 m 1,59,-1
 1000 1520 l 1,60,-1
 715 1200 l 1,61,-1
 500 1200 l 1,62,-1
 663 1500 l 1,59,-1
EndSplineSet
Validated: 1
EndChar

StartChar: acircumflex
Encoding: 226 226 149
Width: 1300
GlyphClass: 1
Flags: W
LayerCount: 2
Fore
SplineSet
1135 0 m 1,0,-1
 795 0 l 1,1,-1
 795 100 l 1,2,-1
 711 5 l 1,3,4
 676 -6 676 -6 641.5 -11.5 c 128,-1,5
 607 -17 607 -17 577 -17 c 0,6,7
 494 -17 494 -17 410 7.5 c 128,-1,8
 326 32 326 32 258.5 79.5 c 128,-1,9
 191 127 191 127 148.5 197 c 128,-1,10
 106 267 106 267 106 358 c 0,11,12
 106 454 106 454 149 524 c 128,-1,13
 192 594 192 594 262.5 639.5 c 128,-1,14
 333 685 333 685 422 707 c 128,-1,15
 511 729 511 729 604 729 c 0,16,17
 661 729 661 729 708 725.5 c 128,-1,18
 755 722 755 722 795 715 c 1,19,20
 791 800 791 800 752 850 c 128,-1,21
 713 900 713 900 632 900 c 0,22,23
 588 900 588 900 543.5 895 c 128,-1,24
 499 890 499 890 458 881 c 128,-1,25
 417 872 417 872 381.5 861 c 128,-1,26
 346 850 346 850 319 838 c 1,27,-1
 225 1023 l 1,28,29
 271 1044 271 1044 313.5 1061.5 c 128,-1,30
 356 1079 356 1079 403.5 1091.5 c 128,-1,31
 451 1104 451 1104 508 1110.5 c 128,-1,32
 565 1117 565 1117 642 1117 c 0,33,34
 770 1117 770 1117 859.5 1085.5 c 128,-1,35
 949 1054 949 1054 1005 996.5 c 128,-1,36
 1061 939 1061 939 1086.5 858.5 c 128,-1,37
 1112 778 1112 778 1112 681 c 2,38,-1
 1112 200 l 1,39,-1
 1135 0 l 1,0,-1
795 500 m 1,40,41
 780 501 780 501 760 502 c 128,-1,42
 740 503 740 503 719 503.5 c 128,-1,43
 698 504 698 504 677.5 504.5 c 128,-1,44
 657 505 657 505 642 505 c 0,45,46
 604 505 604 505 566.5 498 c 128,-1,47
 529 491 529 491 500 474 c 128,-1,48
 471 457 471 457 453 429 c 128,-1,49
 435 401 435 401 435 359 c 0,50,51
 435 325 435 325 447.5 297.5 c 128,-1,52
 460 270 460 270 481 250 c 128,-1,53
 502 230 502 230 529 219 c 128,-1,54
 556 208 556 208 585 208 c 0,55,56
 642 208 642 208 694 233 c 128,-1,57
 746 258 746 258 795 300 c 1,58,-1
 795 500 l 1,40,41
1020 1220 m 1,59,-1
 800 1220 l 1,60,-1
 730 1323 l 1,61,-1
 700 1450 l 1,62,-1
 670 1323 l 1,63,-1
 589 1220 l 1,64,-1
 350 1220 l 1,65,-1
 545 1500 l 1,66,-1
 835 1520 l 1,67,-1
 1020 1220 l 1,59,-1
EndSplineSet
Validated: 1
EndChar

StartChar: atilde
Encoding: 227 227 150
Width: 1300
GlyphClass: 1
Flags: W
LayerCount: 2
Fore
SplineSet
1135 0 m 1,0,-1
 795 0 l 1,1,-1
 795 100 l 1,2,-1
 711 5 l 1,3,4
 676 -6 676 -6 641.5 -11.5 c 128,-1,5
 607 -17 607 -17 577 -17 c 0,6,7
 494 -17 494 -17 410 7.5 c 128,-1,8
 326 32 326 32 258.5 79.5 c 128,-1,9
 191 127 191 127 148.5 197 c 128,-1,10
 106 267 106 267 106 358 c 0,11,12
 106 454 106 454 149 524 c 128,-1,13
 192 594 192 594 262.5 639.5 c 128,-1,14
 333 685 333 685 422 707 c 128,-1,15
 511 729 511 729 604 729 c 0,16,17
 661 729 661 729 708 725.5 c 128,-1,18
 755 722 755 722 795 715 c 1,19,20
 791 800 791 800 752 850 c 128,-1,21
 713 900 713 900 632 900 c 0,22,23
 588 900 588 900 543.5 895 c 128,-1,24
 499 890 499 890 458 881 c 128,-1,25
 417 872 417 872 381.5 861 c 128,-1,26
 346 850 346 850 319 838 c 1,27,-1
 225 1023 l 1,28,29
 271 1044 271 1044 313.5 1061.5 c 128,-1,30
 356 1079 356 1079 403.5 1091.5 c 128,-1,31
 451 1104 451 1104 508 1110.5 c 128,-1,32
 565 1117 565 1117 642 1117 c 0,33,34
 770 1117 770 1117 859.5 1085.5 c 128,-1,35
 949 1054 949 1054 1005 996.5 c 128,-1,36
 1061 939 1061 939 1086.5 858.5 c 128,-1,37
 1112 778 1112 778 1112 681 c 2,38,-1
 1112 200 l 1,39,-1
 1135 0 l 1,0,-1
795 500 m 1,40,41
 780 501 780 501 760 502 c 128,-1,42
 740 503 740 503 719 503.5 c 128,-1,43
 698 504 698 504 677.5 504.5 c 128,-1,44
 657 505 657 505 642 505 c 0,45,46
 604 505 604 505 566.5 498 c 128,-1,47
 529 491 529 491 500 474 c 128,-1,48
 471 457 471 457 453 429 c 128,-1,49
 435 401 435 401 435 359 c 0,50,51
 435 325 435 325 447.5 297.5 c 128,-1,52
 460 270 460 270 481 250 c 128,-1,53
 502 230 502 230 529 219 c 128,-1,54
 556 208 556 208 585 208 c 0,55,56
 642 208 642 208 694 233 c 128,-1,57
 746 258 746 258 795 300 c 1,58,-1
 795 500 l 1,40,41
276 1247 m 1,59,60
 280 1287 280 1287 296 1332.5 c 128,-1,61
 312 1378 312 1378 342 1416 c 128,-1,62
 372 1454 372 1454 418 1479 c 128,-1,63
 464 1504 464 1504 527 1504 c 0,64,65
 576 1504 576 1504 609.5 1491.5 c 128,-1,66
 643 1479 643 1479 670 1464 c 128,-1,67
 697 1449 697 1449 721.5 1436.5 c 128,-1,68
 746 1424 746 1424 777 1424 c 0,69,70
 798 1424 798 1424 812 1431 c 128,-1,71
 826 1438 826 1438 835.5 1450 c 128,-1,72
 845 1462 845 1462 850 1478 c 128,-1,73
 855 1494 855 1494 858 1512 c 1,74,-1
 1025 1502 l 1,75,76
 1022 1458 1022 1458 1008 1411.5 c 128,-1,77
 994 1365 994 1365 965.5 1327 c 128,-1,78
 937 1289 937 1289 892 1264.5 c 128,-1,79
 847 1240 847 1240 780 1240 c 0,80,81
 734 1240 734 1240 702.5 1252.5 c 128,-1,82
 671 1265 671 1265 645 1280 c 128,-1,83
 619 1295 619 1295 592.5 1307.5 c 128,-1,84
 566 1320 566 1320 531 1320 c 0,85,86
 513 1320 513 1320 501 1313 c 128,-1,87
 489 1306 489 1306 480.5 1295 c 128,-1,88
 472 1284 472 1284 467 1269.5 c 128,-1,89
 462 1255 462 1255 458 1240 c 1,90,-1
 276 1247 l 1,59,60
EndSplineSet
Validated: 1
EndChar

StartChar: adieresis
Encoding: 228 228 151
Width: 1300
GlyphClass: 1
Flags: W
LayerCount: 2
Fore
SplineSet
1135 0 m 1,0,-1
 795 0 l 1,1,-1
 795 100 l 1,2,-1
 711 5 l 1,3,4
 676 -6 676 -6 641.5 -11.5 c 128,-1,5
 607 -17 607 -17 577 -17 c 0,6,7
 494 -17 494 -17 410 7.5 c 128,-1,8
 326 32 326 32 258.5 79.5 c 128,-1,9
 191 127 191 127 148.5 197 c 128,-1,10
 106 267 106 267 106 358 c 0,11,12
 106 454 106 454 149 524 c 128,-1,13
 192 594 192 594 262.5 639.5 c 128,-1,14
 333 685 333 685 422 707 c 128,-1,15
 511 729 511 729 604 729 c 0,16,17
 661 729 661 729 708 725.5 c 128,-1,18
 755 722 755 722 795 715 c 1,19,20
 791 800 791 800 752 850 c 128,-1,21
 713 900 713 900 632 900 c 0,22,23
 588 900 588 900 543.5 895 c 128,-1,24
 499 890 499 890 458 881 c 128,-1,25
 417 872 417 872 381.5 861 c 128,-1,26
 346 850 346 850 319 838 c 1,27,-1
 225 1023 l 1,28,29
 271 1044 271 1044 313.5 1061.5 c 128,-1,30
 356 1079 356 1079 403.5 1091.5 c 128,-1,31
 451 1104 451 1104 508 1110.5 c 128,-1,32
 565 1117 565 1117 642 1117 c 0,33,34
 770 1117 770 1117 859.5 1085.5 c 128,-1,35
 949 1054 949 1054 1005 996.5 c 128,-1,36
 1061 939 1061 939 1086.5 858.5 c 128,-1,37
 1112 778 1112 778 1112 681 c 2,38,-1
 1112 200 l 1,39,-1
 1135 0 l 1,0,-1
795 500 m 1,40,41
 780 501 780 501 760 502 c 128,-1,42
 740 503 740 503 719 503.5 c 128,-1,43
 698 504 698 504 677.5 504.5 c 128,-1,44
 657 505 657 505 642 505 c 0,45,46
 604 505 604 505 566.5 498 c 128,-1,47
 529 491 529 491 500 474 c 128,-1,48
 471 457 471 457 453 429 c 128,-1,49
 435 401 435 401 435 359 c 0,50,51
 435 325 435 325 447.5 297.5 c 128,-1,52
 460 270 460 270 481 250 c 128,-1,53
 502 230 502 230 529 219 c 128,-1,54
 556 208 556 208 585 208 c 0,55,56
 642 208 642 208 694 233 c 128,-1,57
 746 258 746 258 795 300 c 1,58,-1
 795 500 l 1,40,41
324 1566 m 1,59,-1
 600 1566 l 1,60,-1
 600 1300 l 1,61,-1
 324 1300 l 1,62,-1
 324 1566 l 1,59,-1
724 1566 m 1,63,-1
 1000 1566 l 1,64,-1
 1000 1300 l 1,65,-1
 724 1300 l 1,66,-1
 724 1566 l 1,63,-1
EndSplineSet
Validated: 1
EndChar

StartChar: aring
Encoding: 229 229 152
Width: 1300
GlyphClass: 1
Flags: W
LayerCount: 2
Fore
SplineSet
650 1682 m 256,0,1
 709 1682 709 1682 760.5 1659.5 c 128,-1,2
 812 1637 812 1637 850.5 1598.5 c 128,-1,3
 889 1560 889 1560 911.5 1508 c 128,-1,4
 934 1456 934 1456 934 1397 c 256,5,6
 934 1338 934 1338 912 1285.5 c 128,-1,7
 890 1233 890 1233 852 1193.5 c 128,-1,8
 814 1154 814 1154 762 1131 c 0,9,10
 738 1120 738 1120 712 1114 c 1,11,12
 795 1108 795 1108 859 1085 c 0,13,14
 949 1054 949 1054 1005 996.5 c 128,-1,15
 1061 939 1061 939 1086.5 858.5 c 128,-1,16
 1112 778 1112 778 1112 681 c 2,17,-1
 1112 200 l 1,18,-1
 1135 0 l 1,19,-1
 795 0 l 1,20,-1
 795 100 l 1,21,-1
 711 5 l 1,22,23
 676 -6 676 -6 641.5 -11.5 c 128,-1,24
 607 -17 607 -17 577 -17 c 0,25,26
 494 -17 494 -17 410 7.5 c 128,-1,27
 326 32 326 32 258.5 79.5 c 128,-1,28
 191 127 191 127 148.5 197 c 128,-1,29
 106 267 106 267 106 358 c 0,30,31
 106 454 106 454 149 524 c 128,-1,32
 192 594 192 594 262.5 639.5 c 128,-1,33
 333 685 333 685 422 707 c 128,-1,34
 511 729 511 729 604 729 c 0,35,36
 661 729 661 729 708 725.5 c 128,-1,37
 755 722 755 722 795 715 c 1,38,39
 791 800 791 800 752 850 c 128,-1,40
 713 900 713 900 632 900 c 0,41,42
 588 900 588 900 543.5 895 c 128,-1,43
 499 890 499 890 458 881 c 128,-1,44
 417 872 417 872 381.5 861 c 128,-1,45
 346 850 346 850 319 838 c 1,46,-1
 225 1023 l 1,47,48
 271 1044 271 1044 313.5 1061.5 c 128,-1,49
 356 1079 356 1079 403.5 1091.5 c 128,-1,50
 451 1104 451 1104 508 1110 c 0,51,52
 542 1114 542 1114 583 1116 c 1,53,54
 561 1122 561 1122 540 1131 c 0,55,56
 488 1154 488 1154 449 1193.5 c 128,-1,57
 410 1233 410 1233 387 1285.5 c 128,-1,58
 364 1338 364 1338 364 1397 c 256,59,60
 364 1456 364 1456 386.5 1508 c 128,-1,61
 409 1560 409 1560 448 1598.5 c 128,-1,62
 487 1637 487 1637 539 1659.5 c 128,-1,63
 591 1682 591 1682 650 1682 c 256,0,1
795 500 m 1,64,65
 780 501 780 501 760 502 c 128,-1,66
 740 503 740 503 719 503.5 c 128,-1,67
 698 504 698 504 677.5 504.5 c 128,-1,68
 657 505 657 505 642 505 c 0,69,70
 604 505 604 505 566.5 498 c 128,-1,71
 529 491 529 491 500 474 c 128,-1,72
 471 457 471 457 453 429 c 128,-1,73
 435 401 435 401 435 359 c 0,74,75
 435 325 435 325 447.5 297.5 c 128,-1,76
 460 270 460 270 481 250 c 128,-1,77
 502 230 502 230 529 219 c 128,-1,78
 556 208 556 208 585 208 c 0,79,80
 642 208 642 208 694 233 c 128,-1,81
 746 258 746 258 795 300 c 1,82,-1
 795 500 l 1,64,65
651 1297 m 256,83,84
 671 1297 671 1297 688.5 1305 c 128,-1,85
 706 1313 706 1313 719 1326.5 c 128,-1,86
 732 1340 732 1340 739.5 1358 c 128,-1,87
 747 1376 747 1376 747 1396 c 256,88,89
 747 1416 747 1416 739.5 1433.5 c 128,-1,90
 732 1451 732 1451 719 1464.5 c 128,-1,91
 706 1478 706 1478 688 1485.5 c 128,-1,92
 670 1493 670 1493 650 1493 c 256,93,94
 630 1493 630 1493 612 1485.5 c 128,-1,95
 594 1478 594 1478 581 1464.5 c 128,-1,96
 568 1451 568 1451 560.5 1433.5 c 128,-1,97
 553 1416 553 1416 553 1396 c 256,98,99
 553 1376 553 1376 560.5 1358 c 128,-1,100
 568 1340 568 1340 581.5 1326.5 c 128,-1,101
 595 1313 595 1313 613 1305 c 128,-1,102
 631 1297 631 1297 651 1297 c 256,83,84
EndSplineSet
Validated: 1
EndChar

StartChar: ae
Encoding: 230 230 153
Width: 1300
GlyphClass: 1
Flags: W
LayerCount: 2
Fore
SplineSet
659 87 m 1,0,1
 621 42 621 42 556.5 12.5 c 128,-1,2
 492 -17 492 -17 397 -17 c 0,3,4
 310 -17 310 -17 240 7.5 c 128,-1,5
 170 32 170 32 121 79.5 c 128,-1,6
 72 127 72 127 45.5 197 c 128,-1,7
 19 267 19 267 19 358 c 0,8,9
 19 454 19 454 44.5 525 c 128,-1,10
 70 596 70 596 117 643 c 128,-1,11
 164 690 164 690 230.5 713 c 128,-1,12
 297 736 297 736 378 736 c 2,13,-1
 415 736 l 2,14,15
 432 736 432 736 448 734 c 1,16,17
 448 771 448 771 447 800 c 128,-1,18
 446 829 446 829 440 849.5 c 128,-1,19
 434 870 434 870 421.5 881 c 128,-1,20
 409 892 409 892 386 892 c 0,21,22
 348 892 348 892 315 883.5 c 128,-1,23
 282 875 282 875 256 864 c 0,24,25
 226 852 226 852 200 836 c 1,26,-1
 100 1025 l 1,27,28
 145 1051 145 1051 201 1071 c 0,29,30
 249 1088 249 1088 315 1102.5 c 128,-1,31
 381 1117 381 1117 462 1117 c 0,32,33
 525 1117 525 1117 573.5 1098 c 128,-1,34
 622 1079 622 1079 654 1051 c 1,35,36
 694 1080 694 1080 751.5 1098.5 c 128,-1,37
 809 1117 809 1117 886 1117 c 0,38,39
 969 1117 969 1117 1031 1100 c 128,-1,40
 1093 1083 1093 1083 1137 1052.5 c 128,-1,41
 1181 1022 1181 1022 1210 981 c 128,-1,42
 1239 940 1239 940 1255.5 891.5 c 128,-1,43
 1272 843 1272 843 1278.5 789.5 c 128,-1,44
 1285 736 1285 736 1285 681 c 0,45,46
 1285 651 1285 651 1281.5 620 c 128,-1,47
 1278 589 1278 589 1273 560.5 c 128,-1,48
 1268 532 1268 532 1262 507.5 c 128,-1,49
 1256 483 1256 483 1250 466 c 1,50,-1
 800 466 l 1,51,52
 800 422 800 422 802.5 375 c 128,-1,53
 805 328 805 328 819 289 c 128,-1,54
 833 250 833 250 863.5 225 c 128,-1,55
 894 200 894 200 950 200 c 0,56,57
 978 200 978 200 1001 210.5 c 128,-1,58
 1024 221 1024 221 1043 236.5 c 128,-1,59
 1062 252 1062 252 1076 269 c 128,-1,60
 1090 286 1090 286 1100 299 c 1,61,-1
 1266 161 l 1,62,63
 1236 125 1236 125 1208 92.5 c 128,-1,64
 1180 60 1180 60 1143 35.5 c 128,-1,65
 1106 11 1106 11 1054 -3 c 128,-1,66
 1002 -17 1002 -17 924 -17 c 0,67,68
 848 -17 848 -17 778.5 11 c 128,-1,69
 709 39 709 39 659 87 c 1,0,1
710 681 m 1,70,-1
 1020 681 l 1,71,-1
 1020 768 l 2,72,73
 1020 786 1020 786 1014.5 807.5 c 128,-1,74
 1009 829 1009 829 996 847.5 c 128,-1,75
 983 866 983 866 962 879 c 128,-1,76
 941 892 941 892 910 892 c 0,77,78
 880 892 880 892 859 879 c 128,-1,79
 838 866 838 866 824 847.5 c 128,-1,80
 810 829 810 829 802 807.5 c 128,-1,81
 794 786 794 786 790 768 c 1,82,-1
 710 681 l 1,70,-1
448 513 m 1,83,-1
 439 513 l 2,84,85
 414 513 414 513 387 504.5 c 128,-1,86
 360 496 360 496 337.5 478 c 128,-1,87
 315 460 315 460 300.5 430.5 c 128,-1,88
 286 401 286 401 286 359 c 0,89,90
 286 288 286 288 311.5 248 c 128,-1,91
 337 208 337 208 380 208 c 0,92,93
 406 208 406 208 419 221 c 128,-1,94
 432 234 432 234 439 251 c 0,95,96
 446 269 446 269 448 294 c 2,97,-1
 448 513 l 1,83,-1
EndSplineSet
Validated: 1
EndChar

StartChar: ccedilla
Encoding: 231 231 154
Width: 1300
GlyphClass: 1
Flags: W
LayerCount: 2
Fore
SplineSet
967 772 m 1,0,1
 919 829 919 829 860.5 855 c 128,-1,2
 802 881 802 881 726 881 c 0,3,4
 665 881 665 881 612 854.5 c 128,-1,5
 559 828 559 828 519.5 783 c 128,-1,6
 480 738 480 738 457.5 678.5 c 128,-1,7
 435 619 435 619 435 553 c 0,8,9
 435 484 435 484 458.5 425.5 c 128,-1,10
 482 367 482 367 522 325 c 128,-1,11
 562 283 562 283 614.5 259.5 c 128,-1,12
 667 236 667 236 726 236 c 0,13,14
 778 236 778 236 820.5 245.5 c 128,-1,15
 863 255 863 255 896.5 271.5 c 128,-1,16
 930 288 930 288 955.5 309 c 128,-1,17
 981 330 981 330 999 353 c 1,18,-1
 1123 137 l 1,19,20
 1105 121 1105 121 1069.5 95 c 128,-1,21
 1034 69 1034 69 981 44 c 128,-1,22
 928 19 928 19 856 1 c 0,23,24
 842 -2 842 -2 827 -5 c 1,25,26
 850 -23 850 -23 869 -46 c 256,27,28
 888 -69 888 -69 903.5 -100.5 c 128,-1,29
 919 -132 919 -132 919 -171 c 0,30,31
 919 -221 919 -221 895.5 -264 c 128,-1,32
 872 -307 872 -307 832 -338.5 c 128,-1,33
 792 -370 792 -370 740 -388.5 c 128,-1,34
 688 -407 688 -407 631 -407 c 0,35,36
 571 -407 571 -407 513.5 -389 c 128,-1,37
 456 -371 456 -371 408 -349 c 0,38,39
 353 -323 353 -323 302 -290 c 1,40,-1
 417 -131 l 1,41,42
 449 -151 449 -151 481 -166 c 0,43,44
 507 -179 507 -179 536.5 -189.5 c 128,-1,45
 566 -200 566 -200 588 -200 c 0,46,47
 611 -200 611 -200 631.5 -187.5 c 128,-1,48
 652 -175 652 -175 652 -147 c 0,49,50
 652 -126 652 -126 640 -102.5 c 128,-1,51
 628 -79 628 -79 612 -58 c 128,-1,52
 596 -37 596 -37 580 -21 c 2,53,-1
 563 -4 l 1,54,55
 504 7 504 7 451 31 c 0,56,57
 343 79 343 79 266 159 c 128,-1,58
 189 239 189 239 147 344.5 c 128,-1,59
 105 450 105 450 105 565 c 0,60,61
 105 669 105 669 145.5 768.5 c 128,-1,62
 186 868 186 868 262.5 945.5 c 128,-1,63
 339 1023 339 1023 449 1070 c 128,-1,64
 559 1117 559 1117 697 1117 c 0,65,66
 832 1117 832 1117 941.5 1079.5 c 128,-1,67
 1051 1042 1051 1042 1129 957 c 1,68,-1
 967 772 l 1,0,1
EndSplineSet
Validated: 1
EndChar

StartChar: egrave
Encoding: 232 232 155
Width: 1300
GlyphClass: 1
Flags: W
LayerCount: 2
Fore
SplineSet
1148 158 m 1,0,1
 1108 121 1108 121 1062 89.5 c 128,-1,2
 1016 58 1016 58 960 34.5 c 128,-1,3
 904 11 904 11 836 -2.5 c 128,-1,4
 768 -16 768 -16 686 -16 c 0,5,6
 542 -16 542 -16 432.5 31 c 128,-1,7
 323 78 323 78 249 156.5 c 128,-1,8
 175 235 175 235 137.5 337 c 128,-1,9
 100 439 100 439 100 550 c 0,10,11
 100 621 100 621 117 690.5 c 128,-1,12
 134 760 134 760 167 822.5 c 128,-1,13
 200 885 200 885 247.5 939 c 128,-1,14
 295 993 295 993 356.5 1032 c 128,-1,15
 418 1071 418 1071 492.5 1093.5 c 128,-1,16
 567 1116 567 1116 653 1116 c 0,17,18
 773 1116 773 1116 867 1080.5 c 128,-1,19
 961 1045 961 1045 1026 981.5 c 128,-1,20
 1091 918 1091 918 1125 829 c 128,-1,21
 1159 740 1159 740 1159 632 c 0,22,23
 1159 605 1159 605 1155.5 561 c 128,-1,24
 1152 517 1152 517 1147 466 c 1,25,-1
 400 466 l 1,26,27
 402 412 402 412 430 363.5 c 128,-1,28
 458 315 458 315 501.5 279 c 128,-1,29
 545 243 545 243 598.5 221.5 c 128,-1,30
 652 200 652 200 706 200 c 0,31,32
 757 200 757 200 804.5 211 c 128,-1,33
 852 222 852 222 890.5 238 c 128,-1,34
 929 254 929 254 957.5 271 c 128,-1,35
 986 288 986 288 1000 300 c 1,36,-1
 1148 158 l 1,0,1
865 672 m 1,37,38
 865 718 865 718 851.5 759 c 128,-1,39
 838 800 838 800 812 831.5 c 128,-1,40
 786 863 786 863 747 881.5 c 128,-1,41
 708 900 708 900 657 900 c 256,42,43
 606 900 606 900 568 885 c 128,-1,44
 530 870 530 870 503 847.5 c 128,-1,45
 476 825 476 825 459 800 c 128,-1,46
 442 775 442 775 434 756 c 1,47,-1
 343 653 l 1,48,-1
 516 671 l 1,49,-1
 865 672 l 1,37,38
800 1200 m 1,50,-1
 585 1200 l 1,51,-1
 300 1520 l 1,52,-1
 637 1500 l 1,53,-1
 800 1200 l 1,50,-1
EndSplineSet
Validated: 1
EndChar

StartChar: eacute
Encoding: 233 233 156
Width: 1300
GlyphClass: 1
Flags: W
LayerCount: 2
Fore
SplineSet
1148 158 m 1,0,1
 1108 121 1108 121 1062 89.5 c 128,-1,2
 1016 58 1016 58 960 34.5 c 128,-1,3
 904 11 904 11 836 -2.5 c 128,-1,4
 768 -16 768 -16 686 -16 c 0,5,6
 542 -16 542 -16 432.5 31 c 128,-1,7
 323 78 323 78 249 156.5 c 128,-1,8
 175 235 175 235 137.5 337 c 128,-1,9
 100 439 100 439 100 550 c 0,10,11
 100 621 100 621 117 690.5 c 128,-1,12
 134 760 134 760 167 822.5 c 128,-1,13
 200 885 200 885 247.5 939 c 128,-1,14
 295 993 295 993 356.5 1032 c 128,-1,15
 418 1071 418 1071 492.5 1093.5 c 128,-1,16
 567 1116 567 1116 653 1116 c 0,17,18
 773 1116 773 1116 867 1080.5 c 128,-1,19
 961 1045 961 1045 1026 981.5 c 128,-1,20
 1091 918 1091 918 1125 829 c 128,-1,21
 1159 740 1159 740 1159 632 c 0,22,23
 1159 605 1159 605 1155.5 561 c 128,-1,24
 1152 517 1152 517 1147 466 c 1,25,-1
 400 466 l 1,26,27
 402 412 402 412 430 363.5 c 128,-1,28
 458 315 458 315 501.5 279 c 128,-1,29
 545 243 545 243 598.5 221.5 c 128,-1,30
 652 200 652 200 706 200 c 0,31,32
 757 200 757 200 804.5 211 c 128,-1,33
 852 222 852 222 890.5 238 c 128,-1,34
 929 254 929 254 957.5 271 c 128,-1,35
 986 288 986 288 1000 300 c 1,36,-1
 1148 158 l 1,0,1
865 672 m 1,37,38
 865 718 865 718 851.5 759 c 128,-1,39
 838 800 838 800 812 831.5 c 128,-1,40
 786 863 786 863 747 881.5 c 128,-1,41
 708 900 708 900 657 900 c 256,42,43
 606 900 606 900 568 885 c 128,-1,44
 530 870 530 870 503 847.5 c 128,-1,45
 476 825 476 825 459 800 c 128,-1,46
 442 775 442 775 434 756 c 1,47,-1
 343 653 l 1,48,-1
 516 671 l 1,49,-1
 865 672 l 1,37,38
663 1500 m 1,50,-1
 1000 1520 l 1,51,-1
 715 1200 l 1,52,-1
 500 1200 l 1,53,-1
 663 1500 l 1,50,-1
EndSplineSet
Validated: 1
EndChar

StartChar: ecircumflex
Encoding: 234 234 157
Width: 1300
GlyphClass: 1
Flags: W
LayerCount: 2
Fore
SplineSet
1148 158 m 1,0,1
 1108 121 1108 121 1062 89.5 c 128,-1,2
 1016 58 1016 58 960 34.5 c 128,-1,3
 904 11 904 11 836 -2.5 c 128,-1,4
 768 -16 768 -16 686 -16 c 0,5,6
 542 -16 542 -16 432.5 31 c 128,-1,7
 323 78 323 78 249 156.5 c 128,-1,8
 175 235 175 235 137.5 337 c 128,-1,9
 100 439 100 439 100 550 c 0,10,11
 100 621 100 621 117 690.5 c 128,-1,12
 134 760 134 760 167 822.5 c 128,-1,13
 200 885 200 885 247.5 939 c 128,-1,14
 295 993 295 993 356.5 1032 c 128,-1,15
 418 1071 418 1071 492.5 1093.5 c 128,-1,16
 567 1116 567 1116 653 1116 c 0,17,18
 773 1116 773 1116 867 1080.5 c 128,-1,19
 961 1045 961 1045 1026 981.5 c 128,-1,20
 1091 918 1091 918 1125 829 c 128,-1,21
 1159 740 1159 740 1159 632 c 0,22,23
 1159 605 1159 605 1155.5 561 c 128,-1,24
 1152 517 1152 517 1147 466 c 1,25,-1
 400 466 l 1,26,27
 402 412 402 412 430 363.5 c 128,-1,28
 458 315 458 315 501.5 279 c 128,-1,29
 545 243 545 243 598.5 221.5 c 128,-1,30
 652 200 652 200 706 200 c 0,31,32
 757 200 757 200 804.5 211 c 128,-1,33
 852 222 852 222 890.5 238 c 128,-1,34
 929 254 929 254 957.5 271 c 128,-1,35
 986 288 986 288 1000 300 c 1,36,-1
 1148 158 l 1,0,1
865 672 m 1,37,38
 865 718 865 718 851.5 759 c 128,-1,39
 838 800 838 800 812 831.5 c 128,-1,40
 786 863 786 863 747 881.5 c 128,-1,41
 708 900 708 900 657 900 c 256,42,43
 606 900 606 900 568 885 c 128,-1,44
 530 870 530 870 503 847.5 c 128,-1,45
 476 825 476 825 459 800 c 128,-1,46
 442 775 442 775 434 756 c 1,47,-1
 343 653 l 1,48,-1
 516 671 l 1,49,-1
 865 672 l 1,37,38
983 1220 m 1,50,-1
 763 1220 l 1,51,-1
 693 1323 l 1,52,-1
 663 1450 l 1,53,-1
 633 1323 l 1,54,-1
 552 1220 l 1,55,-1
 313 1220 l 1,56,-1
 508 1500 l 1,57,-1
 798 1520 l 1,58,-1
 983 1220 l 1,50,-1
EndSplineSet
Validated: 1
EndChar

StartChar: edieresis
Encoding: 235 235 158
Width: 1300
GlyphClass: 1
Flags: W
LayerCount: 2
Fore
SplineSet
1148 158 m 1,0,1
 1108 121 1108 121 1062 89.5 c 128,-1,2
 1016 58 1016 58 960 34.5 c 128,-1,3
 904 11 904 11 836 -2.5 c 128,-1,4
 768 -16 768 -16 686 -16 c 0,5,6
 542 -16 542 -16 432.5 31 c 128,-1,7
 323 78 323 78 249 156.5 c 128,-1,8
 175 235 175 235 137.5 337 c 128,-1,9
 100 439 100 439 100 550 c 0,10,11
 100 621 100 621 117 690.5 c 128,-1,12
 134 760 134 760 167 822.5 c 128,-1,13
 200 885 200 885 247.5 939 c 128,-1,14
 295 993 295 993 356.5 1032 c 128,-1,15
 418 1071 418 1071 492.5 1093.5 c 128,-1,16
 567 1116 567 1116 653 1116 c 0,17,18
 773 1116 773 1116 867 1080.5 c 128,-1,19
 961 1045 961 1045 1026 981.5 c 128,-1,20
 1091 918 1091 918 1125 829 c 128,-1,21
 1159 740 1159 740 1159 632 c 0,22,23
 1159 605 1159 605 1155.5 561 c 128,-1,24
 1152 517 1152 517 1147 466 c 1,25,-1
 400 466 l 1,26,27
 402 412 402 412 430 363.5 c 128,-1,28
 458 315 458 315 501.5 279 c 128,-1,29
 545 243 545 243 598.5 221.5 c 128,-1,30
 652 200 652 200 706 200 c 0,31,32
 757 200 757 200 804.5 211 c 128,-1,33
 852 222 852 222 890.5 238 c 128,-1,34
 929 254 929 254 957.5 271 c 128,-1,35
 986 288 986 288 1000 300 c 1,36,-1
 1148 158 l 1,0,1
865 672 m 1,37,38
 865 718 865 718 851.5 759 c 128,-1,39
 838 800 838 800 812 831.5 c 128,-1,40
 786 863 786 863 747 881.5 c 128,-1,41
 708 900 708 900 657 900 c 256,42,43
 606 900 606 900 568 885 c 128,-1,44
 530 870 530 870 503 847.5 c 128,-1,45
 476 825 476 825 459 800 c 128,-1,46
 442 775 442 775 434 756 c 1,47,-1
 343 653 l 1,48,-1
 516 671 l 1,49,-1
 865 672 l 1,37,38
312 1566 m 1,50,-1
 588 1566 l 1,51,-1
 588 1300 l 1,52,-1
 312 1300 l 1,53,-1
 312 1566 l 1,50,-1
712 1566 m 1,54,-1
 988 1566 l 1,55,-1
 988 1300 l 1,56,-1
 712 1300 l 1,57,-1
 712 1566 l 1,54,-1
EndSplineSet
Validated: 1
EndChar

StartChar: igrave
Encoding: 236 236 159
Width: 1300
GlyphClass: 1
Flags: W
LayerCount: 2
Fore
SplineSet
464 834 m 1,0,-1
 544 896 l 1,1,-1
 452 876 l 1,2,-1
 189 876 l 1,3,-1
 161 1100 l 1,4,-1
 791 1100 l 1,5,-1
 791 423 l 2,6,7
 791 382 791 382 801 347.5 c 128,-1,8
 811 313 811 313 829 288.5 c 128,-1,9
 847 264 847 264 872 250 c 128,-1,10
 897 236 897 236 927 236 c 0,11,12
 993 236 993 236 1043 258 c 128,-1,13
 1093 280 1093 280 1145 330 c 1,14,-1
 1204 98 l 1,15,16
 1190 87 1190 87 1169 68 c 128,-1,17
 1148 49 1148 49 1113.5 30 c 128,-1,18
 1079 11 1079 11 1029 -3 c 128,-1,19
 979 -17 979 -17 908 -17 c 0,20,21
 793 -17 793 -17 709.5 19 c 128,-1,22
 626 55 626 55 571.5 116.5 c 128,-1,23
 517 178 517 178 490.5 259.5 c 128,-1,24
 464 341 464 341 464 432 c 2,25,-1
 464 834 l 1,0,-1
790 1200 m 1,26,-1
 575 1200 l 1,27,-1
 290 1520 l 1,28,-1
 627 1500 l 1,29,-1
 790 1200 l 1,26,-1
EndSplineSet
Validated: 1
EndChar

StartChar: iacute
Encoding: 237 237 160
Width: 1300
GlyphClass: 1
Flags: W
LayerCount: 2
Fore
SplineSet
464 834 m 1,0,-1
 544 896 l 1,1,-1
 452 876 l 1,2,-1
 189 876 l 1,3,-1
 161 1100 l 1,4,-1
 791 1100 l 1,5,-1
 791 423 l 2,6,7
 791 382 791 382 801 347.5 c 128,-1,8
 811 313 811 313 829 288.5 c 128,-1,9
 847 264 847 264 872 250 c 128,-1,10
 897 236 897 236 927 236 c 0,11,12
 993 236 993 236 1043 258 c 128,-1,13
 1093 280 1093 280 1145 330 c 1,14,-1
 1204 98 l 1,15,16
 1190 87 1190 87 1169 68 c 128,-1,17
 1148 49 1148 49 1113.5 30 c 128,-1,18
 1079 11 1079 11 1029 -3 c 128,-1,19
 979 -17 979 -17 908 -17 c 0,20,21
 793 -17 793 -17 709.5 19 c 128,-1,22
 626 55 626 55 571.5 116.5 c 128,-1,23
 517 178 517 178 490.5 259.5 c 128,-1,24
 464 341 464 341 464 432 c 2,25,-1
 464 834 l 1,0,-1
633 1500 m 1,26,-1
 970 1520 l 1,27,-1
 685 1200 l 1,28,-1
 470 1200 l 1,29,-1
 633 1500 l 1,26,-1
EndSplineSet
Validated: 1
EndChar

StartChar: icircumflex
Encoding: 238 238 161
Width: 1300
GlyphClass: 1
Flags: W
LayerCount: 2
Fore
SplineSet
464 834 m 1,0,-1
 544 896 l 1,1,-1
 452 876 l 1,2,-1
 189 876 l 1,3,-1
 161 1100 l 1,4,-1
 791 1100 l 1,5,-1
 791 423 l 2,6,7
 791 382 791 382 801 347.5 c 128,-1,8
 811 313 811 313 829 288.5 c 128,-1,9
 847 264 847 264 872 250 c 128,-1,10
 897 236 897 236 927 236 c 0,11,12
 993 236 993 236 1043 258 c 128,-1,13
 1093 280 1093 280 1145 330 c 1,14,-1
 1204 98 l 1,15,16
 1190 87 1190 87 1169 68 c 128,-1,17
 1148 49 1148 49 1113.5 30 c 128,-1,18
 1079 11 1079 11 1029 -3 c 128,-1,19
 979 -17 979 -17 908 -17 c 0,20,21
 793 -17 793 -17 709.5 19 c 128,-1,22
 626 55 626 55 571.5 116.5 c 128,-1,23
 517 178 517 178 490.5 259.5 c 128,-1,24
 464 341 464 341 464 432 c 2,25,-1
 464 834 l 1,0,-1
921 1220 m 1,26,-1
 701 1220 l 1,27,-1
 631 1323 l 1,28,-1
 601 1450 l 1,29,-1
 571 1323 l 1,30,-1
 490 1220 l 1,31,-1
 251 1220 l 1,32,-1
 446 1500 l 1,33,-1
 736 1520 l 1,34,-1
 921 1220 l 1,26,-1
EndSplineSet
Validated: 1
EndChar

StartChar: idieresis
Encoding: 239 239 162
Width: 1300
GlyphClass: 1
Flags: W
LayerCount: 2
Fore
SplineSet
464 834 m 1,0,-1
 544 896 l 1,1,-1
 452 876 l 1,2,-1
 189 876 l 1,3,-1
 161 1100 l 1,4,-1
 791 1100 l 1,5,-1
 791 423 l 2,6,7
 791 382 791 382 801 347.5 c 128,-1,8
 811 313 811 313 829 288.5 c 128,-1,9
 847 264 847 264 872 250 c 128,-1,10
 897 236 897 236 927 236 c 0,11,12
 993 236 993 236 1043 258 c 128,-1,13
 1093 280 1093 280 1145 330 c 1,14,-1
 1204 98 l 1,15,16
 1190 87 1190 87 1169 68 c 128,-1,17
 1148 49 1148 49 1113.5 30 c 128,-1,18
 1079 11 1079 11 1029 -3 c 128,-1,19
 979 -17 979 -17 908 -17 c 0,20,21
 793 -17 793 -17 709.5 19 c 128,-1,22
 626 55 626 55 571.5 116.5 c 128,-1,23
 517 178 517 178 490.5 259.5 c 128,-1,24
 464 341 464 341 464 432 c 2,25,-1
 464 834 l 1,0,-1
262 1566 m 1,26,-1
 538 1566 l 1,27,-1
 538 1300 l 1,28,-1
 262 1300 l 1,29,-1
 262 1566 l 1,26,-1
662 1566 m 1,30,-1
 938 1566 l 1,31,-1
 938 1300 l 1,32,-1
 662 1300 l 1,33,-1
 662 1566 l 1,30,-1
EndSplineSet
Validated: 1
EndChar

StartChar: ntilde
Encoding: 241 241 163
Width: 1300
GlyphClass: 1
Flags: W
LayerCount: 2
Fore
SplineSet
460 0 m 1,0,-1
 143 0 l 1,1,-1
 143 1100 l 1,2,-1
 460 1120 l 1,3,-1
 460 1000 l 1,4,-1
 537 1100 l 1,5,6
 575 1110 575 1110 618.5 1113.5 c 128,-1,7
 662 1117 662 1117 720 1117 c 0,8,9
 811 1117 811 1117 884 1090 c 128,-1,10
 957 1063 957 1063 1007.5 1013.5 c 128,-1,11
 1058 964 1058 964 1085 893.5 c 128,-1,12
 1112 823 1112 823 1112 736 c 2,13,-1
 1112 0 l 1,14,-1
 795 0 l 1,15,-1
 795 736 l 2,16,17
 795 777 795 777 782.5 806.5 c 128,-1,18
 770 836 770 836 750 855 c 128,-1,19
 730 874 730 874 704 883 c 128,-1,20
 678 892 678 892 650 892 c 0,21,22
 587 892 587 892 543.5 871.5 c 128,-1,23
 500 851 500 851 460 808 c 1,24,-1
 460 0 l 1,0,-1
226 1247 m 1,25,26
 230 1287 230 1287 246 1332.5 c 128,-1,27
 262 1378 262 1378 292 1416 c 128,-1,28
 322 1454 322 1454 368 1479 c 128,-1,29
 414 1504 414 1504 477 1504 c 0,30,31
 526 1504 526 1504 559.5 1491.5 c 128,-1,32
 593 1479 593 1479 620 1464 c 128,-1,33
 647 1449 647 1449 671.5 1436.5 c 128,-1,34
 696 1424 696 1424 727 1424 c 0,35,36
 748 1424 748 1424 762 1431 c 128,-1,37
 776 1438 776 1438 785.5 1450 c 128,-1,38
 795 1462 795 1462 800 1478 c 128,-1,39
 805 1494 805 1494 808 1512 c 1,40,-1
 975 1502 l 1,41,42
 972 1458 972 1458 958 1411.5 c 128,-1,43
 944 1365 944 1365 915.5 1327 c 128,-1,44
 887 1289 887 1289 842 1264.5 c 128,-1,45
 797 1240 797 1240 730 1240 c 0,46,47
 684 1240 684 1240 652.5 1252.5 c 128,-1,48
 621 1265 621 1265 595 1280 c 128,-1,49
 569 1295 569 1295 542.5 1307.5 c 128,-1,50
 516 1320 516 1320 481 1320 c 0,51,52
 463 1320 463 1320 451 1313 c 128,-1,53
 439 1306 439 1306 430.5 1295 c 128,-1,54
 422 1284 422 1284 417 1269.5 c 128,-1,55
 412 1255 412 1255 408 1240 c 1,56,-1
 226 1247 l 1,25,26
EndSplineSet
Validated: 1
EndChar

StartChar: ograve
Encoding: 242 242 164
Width: 1300
GlyphClass: 1
Flags: W
LayerCount: 2
Fore
SplineSet
627 -17 m 0,0,1
 507 -17 507 -17 407 26.5 c 128,-1,2
 307 70 307 70 234.5 146.5 c 128,-1,3
 162 223 162 223 121.5 327 c 128,-1,4
 81 431 81 431 81 553 c 0,5,6
 81 674 81 674 120 778 c 128,-1,7
 159 882 159 882 230.5 958 c 128,-1,8
 302 1034 302 1034 403 1077.5 c 128,-1,9
 504 1121 504 1121 627 1117 c 1,10,11
 747 1121 747 1121 846 1077.5 c 128,-1,12
 945 1034 945 1034 1015.5 958 c 128,-1,13
 1086 882 1086 882 1125 778 c 128,-1,14
 1164 674 1164 674 1164 553 c 0,15,16
 1164 431 1164 431 1126.5 327 c 128,-1,17
 1089 223 1089 223 1019 146.5 c 128,-1,18
 949 70 949 70 850 26.5 c 128,-1,19
 751 -17 751 -17 627 -17 c 0,0,1
838 528 m 0,20,21
 838 596 838 596 826.5 662 c 128,-1,22
 815 728 815 728 789 780.5 c 128,-1,23
 763 833 763 833 722 865 c 128,-1,24
 681 897 681 897 623 897 c 0,25,26
 567 897 567 897 526.5 869.5 c 128,-1,27
 486 842 486 842 460 796 c 128,-1,28
 434 750 434 750 421 691.5 c 128,-1,29
 408 633 408 633 408 571 c 0,30,31
 408 502 408 502 421 436 c 128,-1,32
 434 370 434 370 461 318.5 c 128,-1,33
 488 267 488 267 530 235 c 128,-1,34
 572 203 572 203 631 203 c 0,35,36
 685 203 685 203 724.5 230.5 c 128,-1,37
 764 258 764 258 789 304 c 128,-1,38
 814 350 814 350 826 408 c 128,-1,39
 838 466 838 466 838 528 c 0,20,21
800 1200 m 1,40,-1
 585 1200 l 1,41,-1
 300 1520 l 1,42,-1
 637 1500 l 1,43,-1
 800 1200 l 1,40,-1
EndSplineSet
Validated: 33
EndChar

